G04 EAGLE Gerber RS-274X export*
G75*
%MOMM*%
%FSLAX34Y34*%
%LPD*%
%INSoldermask Top*%
%IPPOS*%
%AMOC8*
5,1,8,0,0,1.08239X$1,22.5*%
G01*
%ADD10P,1.649562X8X292.500000*%
%ADD11P,1.649562X8X112.500000*%
%ADD12P,1.951982X8X292.500000*%
%ADD13C,1.803400*%
%ADD14P,1.951982X8X202.500000*%
%ADD15C,1.524000*%
%ADD16P,1.649562X8X202.500000*%
%ADD17P,1.649562X8X22.500000*%
%ADD18R,1.879600X1.879600*%
%ADD19P,2.034460X8X22.500000*%
%ADD20P,1.951982X8X22.500000*%
%ADD21P,1.759533X8X292.500000*%
%ADD22C,3.251200*%
%ADD23C,0.959600*%


D10*
X355600Y590550D03*
X355600Y565150D03*
D11*
X355600Y692150D03*
X355600Y717550D03*
X203200Y692150D03*
X203200Y717550D03*
D12*
X88900Y577850D03*
D13*
X88900Y603250D03*
D14*
X165100Y565150D03*
D13*
X190500Y565150D03*
D15*
X310896Y565150D02*
X324104Y565150D01*
X324104Y590550D02*
X310896Y590550D01*
X310896Y717550D02*
X324104Y717550D01*
X247904Y717550D02*
X234696Y717550D01*
X310896Y615950D02*
X324104Y615950D01*
X324104Y641350D02*
X310896Y641350D01*
X310896Y692150D02*
X324104Y692150D01*
X324104Y666750D02*
X310896Y666750D01*
X247904Y692150D02*
X234696Y692150D01*
X234696Y666750D02*
X247904Y666750D01*
X247904Y641350D02*
X234696Y641350D01*
X234696Y615950D02*
X247904Y615950D01*
X247904Y590550D02*
X234696Y590550D01*
X234696Y565150D02*
X247904Y565150D01*
D16*
X431800Y501650D03*
X355600Y501650D03*
X190500Y768350D03*
X114300Y768350D03*
X177800Y692150D03*
X101600Y692150D03*
X177800Y717550D03*
X101600Y717550D03*
D17*
X241300Y762000D03*
X317500Y762000D03*
D18*
X57150Y451250D03*
D19*
X57150Y476250D03*
X57150Y501250D03*
D18*
X57150Y883050D03*
D19*
X57150Y908050D03*
X57150Y933050D03*
D18*
X57150Y667150D03*
D19*
X57150Y692150D03*
X57150Y717150D03*
D17*
X114300Y742950D03*
X190500Y742950D03*
X355600Y527050D03*
X431800Y527050D03*
X381000Y590550D03*
X457200Y590550D03*
X381000Y565150D03*
X457200Y565150D03*
D16*
X431800Y781050D03*
X355600Y781050D03*
D17*
X355600Y755650D03*
X431800Y755650D03*
X381000Y692150D03*
X457200Y692150D03*
X381000Y717550D03*
X457200Y717550D03*
X114300Y793750D03*
X190500Y793750D03*
D15*
X361696Y425450D02*
X374904Y425450D01*
X374904Y476250D02*
X361696Y476250D01*
X361696Y450850D02*
X374904Y450850D01*
X412496Y425450D02*
X425704Y425450D01*
X425704Y476250D02*
X412496Y476250D01*
X412496Y450850D02*
X425704Y450850D01*
X374904Y806450D02*
X361696Y806450D01*
X361696Y857250D02*
X374904Y857250D01*
X374904Y831850D02*
X361696Y831850D01*
X412496Y806450D02*
X425704Y806450D01*
X425704Y857250D02*
X412496Y857250D01*
X412496Y831850D02*
X425704Y831850D01*
X184404Y869950D02*
X171196Y869950D01*
X171196Y819150D02*
X184404Y819150D01*
X184404Y844550D02*
X171196Y844550D01*
X133604Y869950D02*
X120396Y869950D01*
X120396Y819150D02*
X133604Y819150D01*
X133604Y844550D02*
X120396Y844550D01*
D20*
X266700Y412750D03*
D13*
X241300Y412750D03*
D20*
X355600Y374650D03*
D13*
X330200Y374650D03*
D21*
X330200Y285750D03*
X355600Y285750D03*
X330200Y260350D03*
X355600Y260350D03*
X330200Y234950D03*
X355600Y234950D03*
X330200Y209550D03*
X355600Y209550D03*
X330200Y184150D03*
X355600Y184150D03*
D22*
X70000Y59690D02*
X70000Y29210D01*
X17000Y29210D02*
X17000Y59690D01*
X128000Y59690D02*
X128000Y29210D01*
X70000Y219710D02*
X70000Y250190D01*
X17000Y250190D02*
X17000Y219710D01*
X128000Y219710D02*
X128000Y250190D01*
D17*
X177800Y641350D03*
X203200Y641350D03*
D16*
X381000Y641350D03*
X355600Y641350D03*
D23*
X292100Y501650D03*
X406400Y692150D03*
X393700Y755650D03*
M02*
