M48
;GenerationSoftware,Autodesk,EAGLE,9.6.2*%
;CreationDate,2022-05-18T20:17:27Z*%
FMAT,2
ICI,OFF
METRIC,TZ,000.000
T5C0.350
T4C0.813
T3C0.914
T2C1.100
T1C2.032
%
G90
M71
T1
X12800Y23495
X1700Y23495
X7000Y23495
X12800Y4445
X1700Y4445
X7000Y4445
T2
X5715Y71715
X5715Y69215
X5715Y66715
X5715Y93305
X5715Y90805
X5715Y88305
X5715Y50125
X5715Y47625
X5715Y45125
T3
X35560Y18415
X33020Y18415
X35560Y20955
X33020Y20955
X35560Y23495
X33020Y23495
X35560Y26035
X33020Y26035
X35560Y28575
X33020Y28575
T4
X24130Y59055
X24130Y56515
X43180Y50165
X35560Y50165
X19050Y76835
X11430Y76835
X17780Y69215
X10160Y69215
X17780Y71755
X10160Y71755
X24130Y76200
X31750Y76200
X24130Y61595
X24130Y64135
X24130Y66675
X24130Y69215
X31750Y66675
X31750Y69215
X31750Y64135
X31750Y61595
X24130Y71755
X11430Y74295
X19050Y74295
X35560Y52705
X43180Y52705
X38100Y59055
X45720Y59055
X38100Y56515
X35560Y64135
X43180Y78105
X35560Y78105
X35560Y75565
X43180Y75565
X38100Y69215
X45720Y69215
X38100Y71755
X45720Y71755
X11430Y79375
X19050Y79375
X36830Y42545
X36830Y47625
X36830Y45085
X41910Y42545
X41910Y47625
X41910Y45085
X36830Y80645
X36830Y85725
X36830Y83185
X41910Y80645
X41910Y85725
X41910Y83185
X17780Y86995
X17780Y81915
X17780Y84455
X12700Y86995
X12700Y81915
X12700Y84455
X26670Y41275
X24130Y41275
X35560Y37465
X33020Y37465
X31750Y71755
X31750Y59055
X31750Y56515
X19050Y56515
X16510Y56515
X8890Y60325
X8890Y57785
X20320Y71755
X20320Y69215
X35560Y71755
X35560Y69215
X35560Y56515
X35560Y59055
X38100Y64135
X20320Y64135
X45720Y56515
X17780Y64135
T5
X40640Y69215
X39370Y75565
X29210Y50165
M30