G04 EAGLE Gerber RS-274X export*
G75*
%MOMM*%
%FSLAX34Y34*%
%LPD*%
%INBottom Copper*%
%IPPOS*%
%AMOC8*
5,1,8,0,0,1.08239X$1,22.5*%
G01*
%ADD10P,1.429621X8X292.500000*%
%ADD11P,1.429621X8X112.500000*%
%ADD12P,1.732040X8X292.500000*%
%ADD13C,1.600200*%
%ADD14P,1.732040X8X202.500000*%
%ADD15C,1.320800*%
%ADD16P,1.429621X8X202.500000*%
%ADD17P,1.429621X8X22.500000*%
%ADD18R,1.676400X1.676400*%
%ADD19P,1.814519X8X22.500000*%
%ADD20P,1.732040X8X22.500000*%
%ADD21P,1.539592X8X292.500000*%
%ADD22C,3.048000*%
%ADD23C,0.406400*%
%ADD24C,0.609600*%
%ADD25C,0.756400*%

G36*
X61973Y10161D02*
X61973Y10161D01*
X61978Y10161D01*
X62172Y10181D01*
X62370Y10201D01*
X62374Y10202D01*
X62378Y10202D01*
X62566Y10261D01*
X62754Y10319D01*
X62758Y10321D01*
X62763Y10322D01*
X62937Y10418D01*
X63109Y10511D01*
X63112Y10513D01*
X63116Y10516D01*
X63269Y10644D01*
X63418Y10768D01*
X63421Y10772D01*
X63424Y10775D01*
X63549Y10931D01*
X63670Y11082D01*
X63672Y11086D01*
X63675Y11089D01*
X63767Y11270D01*
X63856Y11439D01*
X63857Y11444D01*
X63859Y11448D01*
X63913Y11638D01*
X63967Y11826D01*
X63967Y11831D01*
X63969Y11835D01*
X63984Y12028D01*
X64000Y12228D01*
X63999Y12232D01*
X64000Y12236D01*
X63976Y12430D01*
X63953Y12627D01*
X63952Y12632D01*
X63951Y12636D01*
X63890Y12821D01*
X63828Y13010D01*
X63826Y13014D01*
X63825Y13018D01*
X63728Y13187D01*
X63630Y13361D01*
X63627Y13364D01*
X63625Y13368D01*
X63497Y13515D01*
X63367Y13665D01*
X63363Y13668D01*
X63361Y13672D01*
X63204Y13792D01*
X63049Y13912D01*
X63045Y13914D01*
X63041Y13917D01*
X62746Y14069D01*
X60504Y14998D01*
X55788Y19714D01*
X53235Y25875D01*
X53235Y63025D01*
X55788Y69186D01*
X60504Y73902D01*
X66665Y76455D01*
X70612Y76455D01*
X70630Y76457D01*
X70648Y76455D01*
X70830Y76476D01*
X71013Y76495D01*
X71030Y76500D01*
X71047Y76502D01*
X71222Y76559D01*
X71398Y76613D01*
X71413Y76621D01*
X71430Y76627D01*
X71590Y76717D01*
X71752Y76805D01*
X71765Y76816D01*
X71781Y76825D01*
X71920Y76945D01*
X72061Y77062D01*
X72072Y77076D01*
X72086Y77088D01*
X72198Y77233D01*
X72313Y77376D01*
X72321Y77392D01*
X72332Y77406D01*
X72414Y77571D01*
X72499Y77733D01*
X72504Y77750D01*
X72512Y77766D01*
X72559Y77944D01*
X72610Y78120D01*
X72612Y78138D01*
X72616Y78155D01*
X72643Y78486D01*
X72643Y84023D01*
X87427Y98807D01*
X137385Y98807D01*
X137412Y98809D01*
X137439Y98807D01*
X137613Y98829D01*
X137786Y98847D01*
X137811Y98854D01*
X137838Y98858D01*
X138004Y98913D01*
X138171Y98965D01*
X138194Y98978D01*
X138220Y98986D01*
X138371Y99073D01*
X138525Y99157D01*
X138545Y99174D01*
X138569Y99187D01*
X138822Y99402D01*
X160948Y121528D01*
X160965Y121549D01*
X160986Y121567D01*
X161093Y121704D01*
X161203Y121840D01*
X161216Y121863D01*
X161232Y121885D01*
X161310Y122042D01*
X161392Y122196D01*
X161400Y122221D01*
X161412Y122245D01*
X161457Y122415D01*
X161507Y122581D01*
X161509Y122608D01*
X161516Y122634D01*
X161543Y122965D01*
X161543Y554394D01*
X161541Y554421D01*
X161543Y554447D01*
X161521Y554621D01*
X161503Y554795D01*
X161496Y554820D01*
X161492Y554847D01*
X161436Y555013D01*
X161385Y555180D01*
X161372Y555203D01*
X161364Y555228D01*
X161277Y555380D01*
X161193Y555534D01*
X161176Y555554D01*
X161163Y555577D01*
X160948Y555830D01*
X155574Y561204D01*
X155574Y569096D01*
X161154Y574676D01*
X169046Y574676D01*
X174626Y569096D01*
X174626Y561204D01*
X169252Y555830D01*
X169235Y555810D01*
X169214Y555792D01*
X169107Y555654D01*
X168997Y555519D01*
X168984Y555495D01*
X168968Y555474D01*
X168890Y555317D01*
X168808Y555163D01*
X168800Y555138D01*
X168788Y555113D01*
X168743Y554944D01*
X168693Y554777D01*
X168691Y554751D01*
X168684Y554725D01*
X168657Y554394D01*
X168657Y119177D01*
X141173Y91693D01*
X91215Y91693D01*
X91188Y91691D01*
X91161Y91693D01*
X90987Y91671D01*
X90814Y91653D01*
X90789Y91646D01*
X90762Y91642D01*
X90596Y91587D01*
X90429Y91535D01*
X90406Y91522D01*
X90380Y91514D01*
X90229Y91427D01*
X90075Y91343D01*
X90055Y91326D01*
X90031Y91313D01*
X89778Y91098D01*
X80352Y81672D01*
X80335Y81651D01*
X80314Y81633D01*
X80207Y81496D01*
X80097Y81360D01*
X80084Y81337D01*
X80068Y81315D01*
X79990Y81158D01*
X79908Y81004D01*
X79900Y80979D01*
X79888Y80955D01*
X79843Y80785D01*
X79793Y80619D01*
X79791Y80592D01*
X79784Y80566D01*
X79757Y80235D01*
X79757Y74484D01*
X79759Y74457D01*
X79757Y74430D01*
X79779Y74256D01*
X79797Y74083D01*
X79804Y74057D01*
X79808Y74031D01*
X79864Y73865D01*
X79915Y73698D01*
X79928Y73674D01*
X79936Y73649D01*
X80023Y73497D01*
X80107Y73344D01*
X80124Y73323D01*
X80137Y73300D01*
X80352Y73047D01*
X84212Y69186D01*
X86765Y63025D01*
X86765Y25875D01*
X84212Y19714D01*
X79496Y14998D01*
X77254Y14069D01*
X77250Y14067D01*
X77246Y14065D01*
X77073Y13972D01*
X76899Y13878D01*
X76895Y13876D01*
X76891Y13873D01*
X76743Y13749D01*
X76588Y13622D01*
X76586Y13619D01*
X76582Y13616D01*
X76459Y13463D01*
X76335Y13309D01*
X76333Y13305D01*
X76330Y13302D01*
X76240Y13128D01*
X76148Y12953D01*
X76146Y12949D01*
X76144Y12945D01*
X76090Y12757D01*
X76035Y12566D01*
X76034Y12562D01*
X76033Y12558D01*
X76017Y12360D01*
X76000Y12165D01*
X76000Y12161D01*
X76000Y12156D01*
X76023Y11962D01*
X76045Y11765D01*
X76047Y11761D01*
X76047Y11757D01*
X76108Y11571D01*
X76168Y11382D01*
X76170Y11378D01*
X76172Y11374D01*
X76269Y11202D01*
X76365Y11030D01*
X76368Y11027D01*
X76370Y11023D01*
X76498Y10875D01*
X76626Y10725D01*
X76630Y10722D01*
X76633Y10718D01*
X76788Y10598D01*
X76943Y10476D01*
X76947Y10474D01*
X76951Y10472D01*
X77129Y10383D01*
X77303Y10296D01*
X77307Y10294D01*
X77312Y10292D01*
X77503Y10241D01*
X77692Y10189D01*
X77696Y10189D01*
X77700Y10188D01*
X78031Y10161D01*
X119969Y10161D01*
X119973Y10161D01*
X119978Y10161D01*
X120172Y10181D01*
X120370Y10201D01*
X120374Y10202D01*
X120378Y10202D01*
X120566Y10261D01*
X120754Y10319D01*
X120758Y10321D01*
X120763Y10322D01*
X120937Y10418D01*
X121109Y10511D01*
X121112Y10513D01*
X121116Y10516D01*
X121269Y10644D01*
X121418Y10768D01*
X121421Y10772D01*
X121424Y10775D01*
X121549Y10931D01*
X121670Y11082D01*
X121672Y11086D01*
X121675Y11089D01*
X121767Y11270D01*
X121856Y11439D01*
X121857Y11444D01*
X121859Y11448D01*
X121913Y11638D01*
X121967Y11826D01*
X121967Y11831D01*
X121969Y11835D01*
X121984Y12028D01*
X122000Y12228D01*
X121999Y12232D01*
X122000Y12236D01*
X121976Y12430D01*
X121953Y12627D01*
X121952Y12632D01*
X121951Y12636D01*
X121890Y12821D01*
X121828Y13010D01*
X121826Y13014D01*
X121825Y13018D01*
X121728Y13187D01*
X121630Y13361D01*
X121627Y13364D01*
X121625Y13368D01*
X121497Y13515D01*
X121367Y13665D01*
X121363Y13668D01*
X121361Y13672D01*
X121204Y13792D01*
X121049Y13912D01*
X121045Y13914D01*
X121041Y13917D01*
X120746Y14069D01*
X118504Y14998D01*
X113788Y19714D01*
X111235Y25875D01*
X111235Y63025D01*
X113788Y69186D01*
X118504Y73902D01*
X124665Y76455D01*
X131335Y76455D01*
X137496Y73902D01*
X142212Y69186D01*
X144765Y63025D01*
X144765Y25875D01*
X142212Y19714D01*
X137496Y14998D01*
X135254Y14069D01*
X135250Y14067D01*
X135246Y14065D01*
X135073Y13972D01*
X134899Y13878D01*
X134895Y13876D01*
X134891Y13873D01*
X134743Y13749D01*
X134588Y13622D01*
X134586Y13619D01*
X134582Y13616D01*
X134459Y13463D01*
X134335Y13309D01*
X134333Y13305D01*
X134330Y13302D01*
X134240Y13128D01*
X134148Y12953D01*
X134146Y12949D01*
X134144Y12945D01*
X134090Y12757D01*
X134035Y12566D01*
X134034Y12562D01*
X134033Y12558D01*
X134017Y12360D01*
X134000Y12165D01*
X134000Y12161D01*
X134000Y12156D01*
X134023Y11962D01*
X134045Y11765D01*
X134047Y11761D01*
X134047Y11757D01*
X134108Y11571D01*
X134168Y11382D01*
X134170Y11378D01*
X134172Y11374D01*
X134269Y11202D01*
X134365Y11030D01*
X134368Y11027D01*
X134370Y11023D01*
X134498Y10875D01*
X134626Y10725D01*
X134630Y10722D01*
X134633Y10718D01*
X134788Y10598D01*
X134943Y10476D01*
X134947Y10474D01*
X134951Y10472D01*
X135129Y10383D01*
X135303Y10296D01*
X135307Y10294D01*
X135312Y10292D01*
X135503Y10241D01*
X135692Y10189D01*
X135696Y10189D01*
X135700Y10188D01*
X136031Y10161D01*
X464058Y10161D01*
X464076Y10163D01*
X464094Y10161D01*
X464276Y10182D01*
X464459Y10201D01*
X464476Y10206D01*
X464493Y10208D01*
X464668Y10265D01*
X464844Y10319D01*
X464859Y10327D01*
X464876Y10333D01*
X465036Y10423D01*
X465198Y10511D01*
X465211Y10522D01*
X465227Y10531D01*
X465366Y10651D01*
X465507Y10768D01*
X465518Y10782D01*
X465532Y10794D01*
X465644Y10939D01*
X465759Y11082D01*
X465767Y11098D01*
X465778Y11112D01*
X465860Y11277D01*
X465945Y11439D01*
X465950Y11456D01*
X465958Y11472D01*
X466005Y11651D01*
X466056Y11826D01*
X466058Y11844D01*
X466062Y11861D01*
X466089Y12192D01*
X466089Y557640D01*
X466088Y557648D01*
X466089Y557657D01*
X466068Y557849D01*
X466049Y558040D01*
X466047Y558049D01*
X466046Y558058D01*
X465988Y558240D01*
X465931Y558425D01*
X465927Y558433D01*
X465924Y558442D01*
X465831Y558610D01*
X465739Y558779D01*
X465734Y558786D01*
X465729Y558794D01*
X465605Y558941D01*
X465482Y559088D01*
X465475Y559094D01*
X465469Y559101D01*
X465318Y559220D01*
X465168Y559341D01*
X465160Y559345D01*
X465153Y559350D01*
X464980Y559438D01*
X464811Y559526D01*
X464802Y559529D01*
X464794Y559533D01*
X464608Y559585D01*
X464424Y559638D01*
X464415Y559638D01*
X464406Y559641D01*
X464213Y559655D01*
X464022Y559671D01*
X464014Y559670D01*
X464005Y559670D01*
X463812Y559646D01*
X463623Y559624D01*
X463614Y559621D01*
X463605Y559620D01*
X463422Y559558D01*
X463240Y559499D01*
X463232Y559494D01*
X463224Y559492D01*
X463058Y559396D01*
X462889Y559301D01*
X462882Y559295D01*
X462875Y559291D01*
X462622Y559076D01*
X460567Y557021D01*
X453833Y557021D01*
X449071Y561783D01*
X449071Y568517D01*
X453833Y573279D01*
X460567Y573279D01*
X462622Y571224D01*
X462629Y571218D01*
X462634Y571212D01*
X462784Y571091D01*
X462933Y570969D01*
X462941Y570965D01*
X462948Y570959D01*
X463118Y570871D01*
X463289Y570780D01*
X463298Y570778D01*
X463305Y570774D01*
X463490Y570721D01*
X463675Y570666D01*
X463684Y570665D01*
X463692Y570662D01*
X463883Y570647D01*
X464076Y570629D01*
X464085Y570630D01*
X464094Y570629D01*
X464283Y570652D01*
X464476Y570673D01*
X464485Y570675D01*
X464493Y570676D01*
X464675Y570736D01*
X464860Y570794D01*
X464868Y570798D01*
X464876Y570801D01*
X465045Y570896D01*
X465212Y570989D01*
X465219Y570995D01*
X465227Y570999D01*
X465373Y571125D01*
X465519Y571249D01*
X465525Y571256D01*
X465532Y571262D01*
X465649Y571414D01*
X465769Y571565D01*
X465773Y571573D01*
X465778Y571580D01*
X465864Y571752D01*
X465951Y571924D01*
X465954Y571933D01*
X465958Y571941D01*
X466008Y572127D01*
X466059Y572312D01*
X466060Y572321D01*
X466062Y572330D01*
X466089Y572660D01*
X466089Y583040D01*
X466088Y583048D01*
X466089Y583057D01*
X466068Y583249D01*
X466049Y583440D01*
X466047Y583449D01*
X466046Y583458D01*
X465988Y583640D01*
X465931Y583825D01*
X465927Y583833D01*
X465924Y583842D01*
X465831Y584010D01*
X465739Y584179D01*
X465734Y584186D01*
X465729Y584194D01*
X465605Y584341D01*
X465482Y584488D01*
X465475Y584494D01*
X465469Y584501D01*
X465318Y584620D01*
X465168Y584741D01*
X465160Y584745D01*
X465153Y584750D01*
X464980Y584838D01*
X464811Y584926D01*
X464802Y584929D01*
X464794Y584933D01*
X464608Y584985D01*
X464424Y585038D01*
X464415Y585038D01*
X464406Y585041D01*
X464213Y585055D01*
X464022Y585071D01*
X464014Y585070D01*
X464005Y585070D01*
X463812Y585046D01*
X463623Y585024D01*
X463614Y585021D01*
X463605Y585020D01*
X463422Y584958D01*
X463240Y584899D01*
X463232Y584894D01*
X463224Y584892D01*
X463058Y584796D01*
X462889Y584701D01*
X462882Y584695D01*
X462875Y584691D01*
X462622Y584476D01*
X460567Y582421D01*
X453833Y582421D01*
X452228Y584026D01*
X452215Y584037D01*
X452203Y584051D01*
X452059Y584164D01*
X451917Y584281D01*
X451901Y584289D01*
X451887Y584300D01*
X451723Y584384D01*
X451561Y584470D01*
X451544Y584475D01*
X451528Y584483D01*
X451351Y584532D01*
X451175Y584584D01*
X451158Y584586D01*
X451140Y584591D01*
X450957Y584604D01*
X450774Y584621D01*
X450757Y584619D01*
X450739Y584620D01*
X450557Y584597D01*
X450374Y584577D01*
X450357Y584572D01*
X450339Y584570D01*
X450166Y584511D01*
X449990Y584456D01*
X449975Y584447D01*
X449958Y584441D01*
X449798Y584350D01*
X449638Y584261D01*
X449624Y584249D01*
X449609Y584241D01*
X449356Y584026D01*
X442302Y576972D01*
X442285Y576951D01*
X442264Y576933D01*
X442157Y576796D01*
X442047Y576660D01*
X442034Y576637D01*
X442018Y576615D01*
X441940Y576458D01*
X441858Y576304D01*
X441850Y576279D01*
X441838Y576255D01*
X441793Y576085D01*
X441743Y575919D01*
X441741Y575892D01*
X441734Y575866D01*
X441707Y575535D01*
X441707Y554765D01*
X441709Y554738D01*
X441707Y554711D01*
X441729Y554537D01*
X441747Y554364D01*
X441754Y554339D01*
X441758Y554312D01*
X441813Y554146D01*
X441865Y553979D01*
X441878Y553956D01*
X441886Y553930D01*
X441973Y553779D01*
X442057Y553625D01*
X442074Y553605D01*
X442087Y553581D01*
X442302Y553328D01*
X454407Y541223D01*
X454407Y443027D01*
X451729Y440349D01*
X451728Y440348D01*
X435952Y424572D01*
X433142Y421762D01*
X433123Y421738D01*
X433099Y421718D01*
X432995Y421583D01*
X432887Y421451D01*
X432873Y421423D01*
X432854Y421399D01*
X432702Y421103D01*
X432595Y420845D01*
X430309Y418559D01*
X429645Y418284D01*
X427321Y417321D01*
X410879Y417321D01*
X407891Y418559D01*
X405551Y420899D01*
X405500Y420994D01*
X405486Y421011D01*
X405475Y421031D01*
X405358Y421166D01*
X405244Y421305D01*
X405226Y421319D01*
X405212Y421336D01*
X405071Y421445D01*
X404931Y421558D01*
X404911Y421569D01*
X404894Y421582D01*
X404733Y421662D01*
X404574Y421745D01*
X404553Y421752D01*
X404533Y421762D01*
X404359Y421808D01*
X404188Y421858D01*
X404166Y421860D01*
X404144Y421866D01*
X403814Y421893D01*
X383586Y421893D01*
X383564Y421891D01*
X383542Y421893D01*
X383365Y421871D01*
X383186Y421853D01*
X383165Y421847D01*
X383142Y421844D01*
X382973Y421788D01*
X382801Y421735D01*
X382781Y421725D01*
X382760Y421718D01*
X382605Y421629D01*
X382447Y421543D01*
X382430Y421529D01*
X382410Y421518D01*
X382275Y421400D01*
X382138Y421286D01*
X382124Y421268D01*
X382107Y421254D01*
X381998Y421112D01*
X381885Y420972D01*
X381875Y420952D01*
X381861Y420934D01*
X381837Y420888D01*
X379509Y418559D01*
X378845Y418284D01*
X376521Y417321D01*
X360079Y417321D01*
X357091Y418559D01*
X354805Y420845D01*
X353567Y423833D01*
X353567Y427067D01*
X354805Y430055D01*
X357091Y432341D01*
X360079Y433579D01*
X376521Y433579D01*
X379509Y432341D01*
X381849Y430001D01*
X381900Y429906D01*
X381914Y429889D01*
X381925Y429869D01*
X382042Y429734D01*
X382156Y429595D01*
X382174Y429581D01*
X382188Y429564D01*
X382330Y429455D01*
X382469Y429342D01*
X382489Y429331D01*
X382506Y429318D01*
X382667Y429238D01*
X382826Y429155D01*
X382847Y429148D01*
X382867Y429138D01*
X383041Y429092D01*
X383212Y429042D01*
X383234Y429040D01*
X383256Y429034D01*
X383586Y429007D01*
X403814Y429007D01*
X403836Y429009D01*
X403858Y429007D01*
X404035Y429029D01*
X404214Y429047D01*
X404235Y429053D01*
X404258Y429056D01*
X404427Y429112D01*
X404599Y429165D01*
X404619Y429175D01*
X404640Y429182D01*
X404795Y429271D01*
X404953Y429357D01*
X404970Y429371D01*
X404990Y429382D01*
X405125Y429500D01*
X405262Y429614D01*
X405276Y429632D01*
X405293Y429646D01*
X405402Y429788D01*
X405515Y429928D01*
X405525Y429948D01*
X405539Y429966D01*
X405563Y430012D01*
X407891Y432341D01*
X410879Y433579D01*
X427321Y433579D01*
X430309Y432341D01*
X430549Y432101D01*
X430562Y432090D01*
X430574Y432076D01*
X430718Y431962D01*
X430860Y431846D01*
X430876Y431838D01*
X430890Y431827D01*
X431054Y431743D01*
X431216Y431657D01*
X431233Y431652D01*
X431249Y431644D01*
X431425Y431595D01*
X431602Y431543D01*
X431619Y431541D01*
X431637Y431536D01*
X431820Y431523D01*
X432003Y431506D01*
X432020Y431508D01*
X432038Y431507D01*
X432221Y431530D01*
X432403Y431550D01*
X432420Y431555D01*
X432438Y431557D01*
X432612Y431616D01*
X432787Y431671D01*
X432802Y431680D01*
X432819Y431686D01*
X432979Y431777D01*
X433139Y431866D01*
X433153Y431878D01*
X433168Y431886D01*
X433421Y432101D01*
X446698Y445378D01*
X446715Y445399D01*
X446736Y445416D01*
X446843Y445554D01*
X446953Y445690D01*
X446966Y445713D01*
X446982Y445735D01*
X447060Y445892D01*
X447142Y446046D01*
X447150Y446071D01*
X447162Y446095D01*
X447207Y446265D01*
X447257Y446431D01*
X447259Y446458D01*
X447266Y446484D01*
X447293Y446815D01*
X447293Y537435D01*
X447291Y537462D01*
X447293Y537489D01*
X447271Y537663D01*
X447253Y537836D01*
X447246Y537861D01*
X447242Y537888D01*
X447187Y538054D01*
X447135Y538221D01*
X447122Y538244D01*
X447114Y538270D01*
X447027Y538421D01*
X446943Y538575D01*
X446926Y538595D01*
X446913Y538619D01*
X446698Y538872D01*
X434593Y550977D01*
X434593Y579323D01*
X448476Y593206D01*
X448493Y593227D01*
X448514Y593245D01*
X448621Y593382D01*
X448731Y593518D01*
X448744Y593541D01*
X448760Y593563D01*
X448803Y593649D01*
X453833Y598679D01*
X460567Y598679D01*
X462622Y596624D01*
X462629Y596618D01*
X462634Y596612D01*
X462784Y596491D01*
X462933Y596369D01*
X462941Y596365D01*
X462948Y596359D01*
X463118Y596271D01*
X463289Y596180D01*
X463298Y596178D01*
X463305Y596174D01*
X463490Y596121D01*
X463675Y596066D01*
X463684Y596065D01*
X463692Y596062D01*
X463883Y596047D01*
X464076Y596029D01*
X464085Y596030D01*
X464094Y596029D01*
X464283Y596052D01*
X464476Y596073D01*
X464485Y596075D01*
X464493Y596076D01*
X464675Y596136D01*
X464860Y596194D01*
X464868Y596198D01*
X464876Y596201D01*
X465045Y596296D01*
X465212Y596389D01*
X465219Y596395D01*
X465227Y596399D01*
X465373Y596525D01*
X465519Y596649D01*
X465525Y596656D01*
X465532Y596662D01*
X465649Y596814D01*
X465769Y596965D01*
X465773Y596973D01*
X465778Y596980D01*
X465864Y597152D01*
X465951Y597324D01*
X465954Y597333D01*
X465958Y597341D01*
X466008Y597527D01*
X466059Y597712D01*
X466060Y597721D01*
X466062Y597730D01*
X466089Y598060D01*
X466089Y684640D01*
X466088Y684648D01*
X466089Y684657D01*
X466068Y684849D01*
X466049Y685040D01*
X466047Y685049D01*
X466046Y685058D01*
X465988Y685240D01*
X465931Y685425D01*
X465927Y685433D01*
X465924Y685442D01*
X465831Y685610D01*
X465739Y685779D01*
X465734Y685786D01*
X465729Y685794D01*
X465605Y685941D01*
X465482Y686088D01*
X465475Y686094D01*
X465469Y686101D01*
X465318Y686220D01*
X465168Y686341D01*
X465160Y686345D01*
X465153Y686350D01*
X464980Y686438D01*
X464811Y686526D01*
X464802Y686529D01*
X464794Y686533D01*
X464608Y686585D01*
X464424Y686638D01*
X464415Y686638D01*
X464406Y686641D01*
X464213Y686655D01*
X464022Y686671D01*
X464014Y686670D01*
X464005Y686670D01*
X463812Y686646D01*
X463623Y686624D01*
X463614Y686621D01*
X463605Y686620D01*
X463422Y686558D01*
X463240Y686499D01*
X463232Y686494D01*
X463224Y686492D01*
X463058Y686396D01*
X462889Y686301D01*
X462882Y686295D01*
X462875Y686291D01*
X462622Y686076D01*
X460567Y684021D01*
X453833Y684021D01*
X449071Y688783D01*
X449071Y695517D01*
X453833Y700279D01*
X460567Y700279D01*
X462622Y698224D01*
X462629Y698218D01*
X462634Y698212D01*
X462784Y698091D01*
X462933Y697969D01*
X462941Y697965D01*
X462948Y697959D01*
X463118Y697871D01*
X463289Y697780D01*
X463298Y697778D01*
X463305Y697774D01*
X463490Y697721D01*
X463675Y697666D01*
X463684Y697665D01*
X463692Y697662D01*
X463883Y697647D01*
X464076Y697629D01*
X464085Y697630D01*
X464094Y697629D01*
X464283Y697652D01*
X464476Y697673D01*
X464485Y697675D01*
X464493Y697676D01*
X464675Y697736D01*
X464860Y697794D01*
X464868Y697798D01*
X464876Y697801D01*
X465045Y697896D01*
X465212Y697989D01*
X465219Y697995D01*
X465227Y697999D01*
X465373Y698125D01*
X465519Y698249D01*
X465525Y698256D01*
X465532Y698262D01*
X465649Y698414D01*
X465769Y698565D01*
X465773Y698573D01*
X465778Y698580D01*
X465864Y698752D01*
X465951Y698924D01*
X465954Y698933D01*
X465958Y698941D01*
X466007Y699126D01*
X466059Y699312D01*
X466060Y699321D01*
X466062Y699330D01*
X466089Y699660D01*
X466089Y710040D01*
X466088Y710048D01*
X466089Y710057D01*
X466068Y710249D01*
X466049Y710440D01*
X466047Y710449D01*
X466046Y710458D01*
X465988Y710640D01*
X465931Y710825D01*
X465927Y710833D01*
X465924Y710842D01*
X465831Y711010D01*
X465739Y711179D01*
X465734Y711186D01*
X465729Y711194D01*
X465605Y711341D01*
X465482Y711488D01*
X465475Y711494D01*
X465469Y711501D01*
X465318Y711620D01*
X465168Y711741D01*
X465160Y711745D01*
X465153Y711750D01*
X464980Y711838D01*
X464811Y711926D01*
X464802Y711929D01*
X464794Y711933D01*
X464608Y711985D01*
X464424Y712038D01*
X464415Y712038D01*
X464406Y712041D01*
X464213Y712055D01*
X464022Y712071D01*
X464014Y712070D01*
X464005Y712070D01*
X463812Y712046D01*
X463623Y712024D01*
X463614Y712021D01*
X463605Y712020D01*
X463422Y711958D01*
X463240Y711899D01*
X463232Y711894D01*
X463224Y711892D01*
X463058Y711796D01*
X462889Y711701D01*
X462882Y711695D01*
X462875Y711691D01*
X462622Y711476D01*
X460567Y709421D01*
X453833Y709421D01*
X449071Y714183D01*
X449071Y720917D01*
X453833Y725679D01*
X460567Y725679D01*
X462622Y723624D01*
X462629Y723618D01*
X462634Y723612D01*
X462784Y723491D01*
X462933Y723369D01*
X462941Y723365D01*
X462948Y723359D01*
X463118Y723271D01*
X463289Y723180D01*
X463298Y723178D01*
X463305Y723174D01*
X463490Y723121D01*
X463675Y723066D01*
X463684Y723065D01*
X463692Y723062D01*
X463883Y723047D01*
X464076Y723029D01*
X464085Y723030D01*
X464094Y723029D01*
X464283Y723052D01*
X464476Y723073D01*
X464485Y723075D01*
X464493Y723076D01*
X464675Y723136D01*
X464860Y723194D01*
X464868Y723198D01*
X464876Y723201D01*
X465045Y723296D01*
X465212Y723389D01*
X465219Y723395D01*
X465227Y723399D01*
X465373Y723525D01*
X465519Y723649D01*
X465525Y723656D01*
X465532Y723662D01*
X465649Y723814D01*
X465769Y723965D01*
X465773Y723973D01*
X465778Y723980D01*
X465864Y724152D01*
X465951Y724324D01*
X465954Y724333D01*
X465958Y724341D01*
X466008Y724527D01*
X466059Y724712D01*
X466060Y724721D01*
X466062Y724730D01*
X466089Y725060D01*
X466089Y946655D01*
X466087Y946673D01*
X466089Y946691D01*
X466068Y946874D01*
X466049Y947056D01*
X466044Y947073D01*
X466042Y947091D01*
X465985Y947266D01*
X465931Y947441D01*
X465923Y947457D01*
X465917Y947474D01*
X465827Y947634D01*
X465739Y947795D01*
X465728Y947809D01*
X465719Y947825D01*
X465599Y947964D01*
X465482Y948104D01*
X465468Y948116D01*
X465456Y948129D01*
X465311Y948242D01*
X465168Y948357D01*
X465152Y948365D01*
X465138Y948376D01*
X464973Y948458D01*
X464811Y948542D01*
X464793Y948547D01*
X464777Y948555D01*
X464599Y948603D01*
X464424Y948654D01*
X464406Y948655D01*
X464388Y948660D01*
X464058Y948687D01*
X12192Y948592D01*
X12174Y948590D01*
X12156Y948592D01*
X11974Y948570D01*
X11791Y948552D01*
X11774Y948547D01*
X11757Y948545D01*
X11581Y948487D01*
X11406Y948434D01*
X11391Y948425D01*
X11374Y948420D01*
X11213Y948329D01*
X11052Y948242D01*
X11039Y948231D01*
X11023Y948222D01*
X10884Y948102D01*
X10743Y947984D01*
X10732Y947970D01*
X10718Y947959D01*
X10606Y947814D01*
X10491Y947670D01*
X10482Y947655D01*
X10472Y947641D01*
X10390Y947476D01*
X10305Y947313D01*
X10300Y947296D01*
X10292Y947280D01*
X10245Y947102D01*
X10194Y946926D01*
X10192Y946908D01*
X10188Y946891D01*
X10161Y946561D01*
X10161Y269413D01*
X10169Y269331D01*
X10167Y269249D01*
X10189Y269131D01*
X10201Y269012D01*
X10225Y268933D01*
X10239Y268853D01*
X10284Y268741D01*
X10319Y268627D01*
X10358Y268555D01*
X10388Y268478D01*
X10454Y268378D01*
X10511Y268273D01*
X10563Y268210D01*
X10608Y268141D01*
X10692Y268055D01*
X10768Y267964D01*
X10832Y267912D01*
X10890Y267854D01*
X10989Y267786D01*
X11082Y267711D01*
X11155Y267674D01*
X11223Y267627D01*
X11333Y267581D01*
X11439Y267526D01*
X11518Y267503D01*
X11594Y267471D01*
X11711Y267448D01*
X11826Y267414D01*
X11908Y267408D01*
X11989Y267391D01*
X12108Y267391D01*
X12228Y267382D01*
X12309Y267391D01*
X12391Y267391D01*
X12541Y267418D01*
X12627Y267429D01*
X12666Y267441D01*
X12718Y267451D01*
X12937Y267509D01*
X12937Y236982D01*
X12939Y236964D01*
X12937Y236947D01*
X12958Y236764D01*
X12977Y236582D01*
X12982Y236564D01*
X12984Y236547D01*
X13041Y236372D01*
X13095Y236197D01*
X13103Y236181D01*
X13109Y236164D01*
X13199Y236004D01*
X13287Y235843D01*
X13298Y235829D01*
X13307Y235813D01*
X13427Y235674D01*
X13544Y235533D01*
X13558Y235522D01*
X13570Y235509D01*
X13715Y235396D01*
X13858Y235281D01*
X13874Y235273D01*
X13888Y235262D01*
X14053Y235180D01*
X14215Y235095D01*
X14232Y235091D01*
X14249Y235083D01*
X14427Y235035D01*
X14602Y234984D01*
X14620Y234983D01*
X14637Y234978D01*
X14968Y234951D01*
X17001Y234951D01*
X17001Y234949D01*
X14968Y234949D01*
X14950Y234947D01*
X14932Y234949D01*
X14750Y234927D01*
X14567Y234909D01*
X14550Y234904D01*
X14533Y234902D01*
X14358Y234845D01*
X14182Y234791D01*
X14167Y234783D01*
X14150Y234777D01*
X13990Y234687D01*
X13828Y234599D01*
X13815Y234588D01*
X13799Y234579D01*
X13660Y234459D01*
X13519Y234342D01*
X13508Y234328D01*
X13495Y234316D01*
X13382Y234171D01*
X13267Y234028D01*
X13259Y234012D01*
X13248Y233998D01*
X13166Y233833D01*
X13081Y233670D01*
X13076Y233653D01*
X13068Y233637D01*
X13021Y233459D01*
X12970Y233284D01*
X12968Y233266D01*
X12964Y233249D01*
X12937Y232918D01*
X12937Y202391D01*
X12718Y202449D01*
X12637Y202463D01*
X12558Y202486D01*
X12438Y202495D01*
X12320Y202515D01*
X12238Y202512D01*
X12156Y202518D01*
X12038Y202504D01*
X11918Y202500D01*
X11838Y202481D01*
X11757Y202471D01*
X11643Y202434D01*
X11526Y202407D01*
X11452Y202372D01*
X11374Y202347D01*
X11270Y202288D01*
X11161Y202238D01*
X11095Y202189D01*
X11023Y202149D01*
X10933Y202071D01*
X10836Y202000D01*
X10781Y201939D01*
X10718Y201886D01*
X10645Y201791D01*
X10564Y201703D01*
X10522Y201632D01*
X10472Y201567D01*
X10418Y201460D01*
X10357Y201358D01*
X10329Y201280D01*
X10292Y201207D01*
X10261Y201091D01*
X10221Y200979D01*
X10209Y200898D01*
X10188Y200818D01*
X10175Y200666D01*
X10163Y200580D01*
X10165Y200540D01*
X10161Y200487D01*
X10161Y78913D01*
X10169Y78831D01*
X10167Y78749D01*
X10189Y78631D01*
X10201Y78512D01*
X10225Y78433D01*
X10239Y78353D01*
X10284Y78241D01*
X10319Y78127D01*
X10358Y78055D01*
X10388Y77978D01*
X10454Y77878D01*
X10511Y77773D01*
X10563Y77710D01*
X10608Y77641D01*
X10692Y77555D01*
X10768Y77464D01*
X10832Y77412D01*
X10890Y77354D01*
X10989Y77286D01*
X11082Y77211D01*
X11155Y77174D01*
X11223Y77127D01*
X11333Y77081D01*
X11439Y77026D01*
X11518Y77003D01*
X11594Y76971D01*
X11711Y76948D01*
X11826Y76914D01*
X11908Y76908D01*
X11989Y76891D01*
X12108Y76891D01*
X12228Y76882D01*
X12309Y76891D01*
X12391Y76891D01*
X12541Y76918D01*
X12627Y76929D01*
X12666Y76941D01*
X12718Y76951D01*
X12937Y77009D01*
X12937Y46482D01*
X12939Y46464D01*
X12937Y46447D01*
X12958Y46264D01*
X12977Y46082D01*
X12982Y46064D01*
X12984Y46047D01*
X13041Y45872D01*
X13095Y45697D01*
X13103Y45681D01*
X13109Y45664D01*
X13199Y45504D01*
X13287Y45343D01*
X13298Y45329D01*
X13307Y45313D01*
X13427Y45174D01*
X13544Y45033D01*
X13558Y45022D01*
X13570Y45009D01*
X13715Y44896D01*
X13858Y44781D01*
X13874Y44773D01*
X13888Y44762D01*
X14053Y44680D01*
X14215Y44595D01*
X14232Y44591D01*
X14249Y44583D01*
X14427Y44535D01*
X14602Y44484D01*
X14620Y44483D01*
X14637Y44478D01*
X14968Y44451D01*
X17001Y44451D01*
X17001Y42418D01*
X17003Y42400D01*
X17001Y42382D01*
X17023Y42200D01*
X17041Y42017D01*
X17046Y42000D01*
X17048Y41983D01*
X17105Y41808D01*
X17159Y41632D01*
X17167Y41617D01*
X17173Y41600D01*
X17263Y41440D01*
X17351Y41278D01*
X17362Y41265D01*
X17371Y41249D01*
X17491Y41110D01*
X17608Y40969D01*
X17622Y40958D01*
X17634Y40945D01*
X17779Y40832D01*
X17922Y40717D01*
X17938Y40709D01*
X17952Y40698D01*
X18117Y40616D01*
X18280Y40531D01*
X18297Y40526D01*
X18313Y40518D01*
X18491Y40471D01*
X18666Y40420D01*
X18684Y40418D01*
X18701Y40414D01*
X19032Y40387D01*
X34781Y40387D01*
X34781Y28045D01*
X34476Y25734D01*
X33873Y23482D01*
X32981Y21329D01*
X31816Y19310D01*
X30397Y17461D01*
X28749Y15813D01*
X26900Y14394D01*
X26132Y13951D01*
X26073Y13908D01*
X26008Y13873D01*
X25910Y13791D01*
X25805Y13716D01*
X25755Y13663D01*
X25699Y13616D01*
X25618Y13515D01*
X25531Y13422D01*
X25493Y13359D01*
X25447Y13302D01*
X25388Y13188D01*
X25320Y13078D01*
X25295Y13010D01*
X25261Y12945D01*
X25226Y12821D01*
X25181Y12701D01*
X25170Y12628D01*
X25150Y12558D01*
X25139Y12429D01*
X25120Y12303D01*
X25123Y12230D01*
X25117Y12156D01*
X25132Y12029D01*
X25138Y11901D01*
X25155Y11829D01*
X25164Y11757D01*
X25204Y11634D01*
X25235Y11510D01*
X25266Y11444D01*
X25289Y11374D01*
X25352Y11262D01*
X25407Y11146D01*
X25451Y11087D01*
X25487Y11023D01*
X25571Y10926D01*
X25647Y10823D01*
X25702Y10774D01*
X25750Y10718D01*
X25851Y10640D01*
X25947Y10554D01*
X26010Y10517D01*
X26068Y10472D01*
X26183Y10415D01*
X26293Y10349D01*
X26363Y10325D01*
X26428Y10292D01*
X26552Y10259D01*
X26674Y10217D01*
X26746Y10207D01*
X26817Y10188D01*
X26986Y10174D01*
X27073Y10162D01*
X27106Y10164D01*
X27148Y10161D01*
X61969Y10161D01*
X61973Y10161D01*
G37*
%LPC*%
G36*
X326623Y175513D02*
X326623Y175513D01*
X323154Y178982D01*
X323133Y178999D01*
X323115Y179020D01*
X322977Y179127D01*
X322842Y179237D01*
X322818Y179250D01*
X322797Y179266D01*
X322641Y179344D01*
X322486Y179426D01*
X322461Y179434D01*
X322437Y179446D01*
X322267Y179491D01*
X322100Y179541D01*
X322074Y179543D01*
X322048Y179550D01*
X321717Y179577D01*
X303890Y179577D01*
X302210Y180273D01*
X262823Y219660D01*
X262127Y221340D01*
X262127Y403010D01*
X262125Y403037D01*
X262127Y403063D01*
X262105Y403237D01*
X262087Y403411D01*
X262080Y403436D01*
X262076Y403463D01*
X262021Y403628D01*
X261969Y403795D01*
X261956Y403819D01*
X261948Y403844D01*
X261861Y403996D01*
X261777Y404150D01*
X261760Y404170D01*
X261747Y404193D01*
X261532Y404446D01*
X257174Y408804D01*
X257174Y416696D01*
X261532Y421054D01*
X261549Y421074D01*
X261570Y421092D01*
X261677Y421230D01*
X261787Y421365D01*
X261800Y421389D01*
X261816Y421410D01*
X261894Y421567D01*
X261976Y421721D01*
X261984Y421746D01*
X261996Y421771D01*
X262041Y421940D01*
X262091Y422107D01*
X262093Y422133D01*
X262100Y422159D01*
X262127Y422490D01*
X262127Y634746D01*
X262125Y634764D01*
X262127Y634782D01*
X262106Y634964D01*
X262087Y635147D01*
X262082Y635164D01*
X262080Y635181D01*
X262023Y635356D01*
X261969Y635532D01*
X261961Y635547D01*
X261955Y635564D01*
X261865Y635724D01*
X261777Y635886D01*
X261766Y635899D01*
X261757Y635915D01*
X261637Y636054D01*
X261520Y636195D01*
X261506Y636206D01*
X261494Y636220D01*
X261349Y636332D01*
X261206Y636447D01*
X261190Y636455D01*
X261176Y636466D01*
X261011Y636548D01*
X260849Y636633D01*
X260832Y636638D01*
X260816Y636646D01*
X260637Y636693D01*
X260462Y636744D01*
X260444Y636746D01*
X260427Y636750D01*
X260096Y636777D01*
X255668Y636777D01*
X255642Y636775D01*
X255615Y636777D01*
X255441Y636755D01*
X255268Y636737D01*
X255242Y636730D01*
X255216Y636726D01*
X255050Y636671D01*
X254883Y636619D01*
X254859Y636606D01*
X254834Y636598D01*
X254682Y636511D01*
X254529Y636427D01*
X254508Y636410D01*
X254485Y636397D01*
X254232Y636182D01*
X252509Y634459D01*
X249521Y633221D01*
X233079Y633221D01*
X230091Y634459D01*
X228368Y636182D01*
X228347Y636199D01*
X228330Y636220D01*
X228192Y636327D01*
X228056Y636437D01*
X228033Y636450D01*
X228012Y636466D01*
X227855Y636544D01*
X227701Y636626D01*
X227675Y636634D01*
X227651Y636646D01*
X227482Y636691D01*
X227315Y636741D01*
X227288Y636743D01*
X227262Y636750D01*
X226932Y636777D01*
X210964Y636777D01*
X210938Y636775D01*
X210911Y636777D01*
X210737Y636755D01*
X210564Y636737D01*
X210538Y636730D01*
X210512Y636726D01*
X210346Y636671D01*
X210179Y636619D01*
X210155Y636606D01*
X210130Y636598D01*
X209978Y636511D01*
X209825Y636427D01*
X209804Y636410D01*
X209781Y636397D01*
X209528Y636182D01*
X206567Y633221D01*
X199833Y633221D01*
X195071Y637983D01*
X195071Y644717D01*
X199833Y649479D01*
X206567Y649479D01*
X209528Y646518D01*
X209540Y646508D01*
X209547Y646500D01*
X209555Y646494D01*
X209566Y646480D01*
X209704Y646373D01*
X209840Y646263D01*
X209863Y646250D01*
X209884Y646234D01*
X210041Y646156D01*
X210195Y646074D01*
X210221Y646066D01*
X210245Y646054D01*
X210414Y646009D01*
X210581Y645959D01*
X210608Y645957D01*
X210634Y645950D01*
X210964Y645923D01*
X226932Y645923D01*
X226958Y645925D01*
X226985Y645923D01*
X227159Y645945D01*
X227332Y645963D01*
X227358Y645970D01*
X227384Y645974D01*
X227550Y646029D01*
X227717Y646081D01*
X227741Y646094D01*
X227766Y646102D01*
X227918Y646189D01*
X228071Y646273D01*
X228092Y646290D01*
X228115Y646303D01*
X228368Y646518D01*
X230091Y648241D01*
X233079Y649479D01*
X249521Y649479D01*
X252509Y648241D01*
X254232Y646518D01*
X254244Y646508D01*
X254251Y646500D01*
X254259Y646494D01*
X254270Y646480D01*
X254408Y646373D01*
X254544Y646263D01*
X254567Y646250D01*
X254588Y646234D01*
X254745Y646156D01*
X254899Y646074D01*
X254925Y646066D01*
X254949Y646054D01*
X255118Y646009D01*
X255285Y645959D01*
X255312Y645957D01*
X255338Y645950D01*
X255668Y645923D01*
X260096Y645923D01*
X260114Y645925D01*
X260132Y645923D01*
X260314Y645944D01*
X260497Y645963D01*
X260514Y645968D01*
X260531Y645970D01*
X260706Y646027D01*
X260882Y646081D01*
X260897Y646089D01*
X260914Y646095D01*
X261074Y646185D01*
X261236Y646273D01*
X261249Y646284D01*
X261265Y646293D01*
X261404Y646413D01*
X261545Y646530D01*
X261556Y646544D01*
X261570Y646556D01*
X261682Y646701D01*
X261797Y646844D01*
X261805Y646860D01*
X261816Y646874D01*
X261898Y647039D01*
X261983Y647201D01*
X261988Y647218D01*
X261996Y647234D01*
X262043Y647413D01*
X262094Y647588D01*
X262096Y647606D01*
X262100Y647623D01*
X262127Y647954D01*
X262127Y736346D01*
X262125Y736364D01*
X262127Y736382D01*
X262106Y736564D01*
X262087Y736747D01*
X262082Y736764D01*
X262080Y736781D01*
X262023Y736956D01*
X261969Y737132D01*
X261961Y737147D01*
X261955Y737164D01*
X261865Y737324D01*
X261777Y737486D01*
X261766Y737499D01*
X261757Y737515D01*
X261637Y737654D01*
X261520Y737795D01*
X261506Y737806D01*
X261494Y737820D01*
X261349Y737932D01*
X261206Y738047D01*
X261190Y738055D01*
X261176Y738066D01*
X261011Y738148D01*
X260849Y738233D01*
X260832Y738238D01*
X260816Y738246D01*
X260637Y738293D01*
X260462Y738344D01*
X260444Y738346D01*
X260427Y738350D01*
X260096Y738377D01*
X227690Y738377D01*
X226010Y739073D01*
X201901Y763182D01*
X201891Y763191D01*
X201885Y763197D01*
X201876Y763204D01*
X201863Y763220D01*
X201725Y763327D01*
X201589Y763437D01*
X201566Y763450D01*
X201545Y763466D01*
X201388Y763544D01*
X201234Y763626D01*
X201208Y763634D01*
X201184Y763646D01*
X201015Y763691D01*
X200848Y763741D01*
X200821Y763743D01*
X200795Y763750D01*
X200465Y763777D01*
X198264Y763777D01*
X198238Y763775D01*
X198211Y763777D01*
X198037Y763755D01*
X197864Y763737D01*
X197838Y763730D01*
X197812Y763726D01*
X197646Y763670D01*
X197479Y763619D01*
X197455Y763606D01*
X197430Y763598D01*
X197278Y763511D01*
X197125Y763427D01*
X197104Y763410D01*
X197081Y763397D01*
X196828Y763182D01*
X193867Y760221D01*
X187133Y760221D01*
X182371Y764983D01*
X182371Y771717D01*
X187133Y776479D01*
X193867Y776479D01*
X196828Y773518D01*
X196849Y773501D01*
X196866Y773480D01*
X197004Y773373D01*
X197140Y773263D01*
X197163Y773250D01*
X197184Y773234D01*
X197341Y773156D01*
X197495Y773074D01*
X197521Y773066D01*
X197545Y773054D01*
X197714Y773009D01*
X197881Y772959D01*
X197908Y772957D01*
X197934Y772950D01*
X198264Y772923D01*
X204110Y772923D01*
X205790Y772227D01*
X229899Y748118D01*
X229920Y748101D01*
X229937Y748080D01*
X230075Y747973D01*
X230211Y747863D01*
X230234Y747850D01*
X230255Y747834D01*
X230412Y747756D01*
X230566Y747674D01*
X230592Y747666D01*
X230616Y747654D01*
X230785Y747609D01*
X230952Y747559D01*
X230979Y747557D01*
X231005Y747550D01*
X231335Y747523D01*
X340165Y747523D01*
X340191Y747525D01*
X340218Y747523D01*
X340392Y747545D01*
X340565Y747563D01*
X340591Y747570D01*
X340617Y747574D01*
X340783Y747630D01*
X340950Y747681D01*
X340974Y747694D01*
X340999Y747702D01*
X341151Y747789D01*
X341304Y747873D01*
X341325Y747890D01*
X341348Y747903D01*
X341601Y748118D01*
X346876Y753393D01*
X346893Y753414D01*
X346914Y753431D01*
X347021Y753569D01*
X347131Y753705D01*
X347144Y753728D01*
X347160Y753749D01*
X347238Y753906D01*
X347320Y754060D01*
X347328Y754086D01*
X347340Y754110D01*
X347385Y754279D01*
X347435Y754446D01*
X347437Y754473D01*
X347444Y754499D01*
X347471Y754829D01*
X347471Y759017D01*
X352233Y763779D01*
X358967Y763779D01*
X363729Y759017D01*
X363729Y752283D01*
X358967Y747521D01*
X354779Y747521D01*
X354753Y747519D01*
X354726Y747521D01*
X354552Y747499D01*
X354379Y747481D01*
X354353Y747474D01*
X354327Y747470D01*
X354161Y747415D01*
X353994Y747363D01*
X353970Y747350D01*
X353945Y747342D01*
X353794Y747255D01*
X353640Y747171D01*
X353619Y747154D01*
X353596Y747141D01*
X353343Y746926D01*
X347062Y740645D01*
X345490Y739073D01*
X343810Y738377D01*
X273304Y738377D01*
X273286Y738375D01*
X273268Y738377D01*
X273086Y738356D01*
X272903Y738337D01*
X272886Y738332D01*
X272869Y738330D01*
X272694Y738273D01*
X272518Y738219D01*
X272503Y738211D01*
X272486Y738205D01*
X272326Y738115D01*
X272164Y738027D01*
X272151Y738016D01*
X272135Y738007D01*
X271996Y737887D01*
X271855Y737770D01*
X271844Y737756D01*
X271830Y737744D01*
X271718Y737599D01*
X271603Y737456D01*
X271595Y737440D01*
X271584Y737426D01*
X271502Y737261D01*
X271417Y737099D01*
X271412Y737082D01*
X271404Y737066D01*
X271357Y736887D01*
X271306Y736712D01*
X271304Y736694D01*
X271300Y736677D01*
X271273Y736346D01*
X271273Y533654D01*
X271275Y533636D01*
X271273Y533618D01*
X271294Y533436D01*
X271313Y533253D01*
X271318Y533236D01*
X271320Y533219D01*
X271377Y533044D01*
X271431Y532868D01*
X271439Y532853D01*
X271445Y532836D01*
X271535Y532676D01*
X271623Y532514D01*
X271634Y532501D01*
X271643Y532485D01*
X271763Y532346D01*
X271880Y532205D01*
X271894Y532194D01*
X271906Y532180D01*
X272051Y532068D01*
X272194Y531953D01*
X272210Y531945D01*
X272224Y531934D01*
X272389Y531852D01*
X272551Y531767D01*
X272568Y531762D01*
X272584Y531754D01*
X272763Y531707D01*
X272938Y531656D01*
X272956Y531654D01*
X272973Y531650D01*
X273304Y531623D01*
X347836Y531623D01*
X347862Y531625D01*
X347889Y531623D01*
X348063Y531645D01*
X348236Y531663D01*
X348262Y531670D01*
X348288Y531674D01*
X348454Y531729D01*
X348621Y531781D01*
X348645Y531794D01*
X348670Y531802D01*
X348822Y531889D01*
X348975Y531973D01*
X348996Y531990D01*
X349019Y532003D01*
X349272Y532218D01*
X352233Y535179D01*
X358967Y535179D01*
X363729Y530417D01*
X363729Y523683D01*
X358967Y518921D01*
X352233Y518921D01*
X349272Y521882D01*
X349251Y521899D01*
X349234Y521920D01*
X349096Y522027D01*
X348960Y522137D01*
X348937Y522150D01*
X348916Y522166D01*
X348759Y522244D01*
X348605Y522326D01*
X348579Y522334D01*
X348555Y522346D01*
X348386Y522391D01*
X348219Y522441D01*
X348192Y522443D01*
X348166Y522450D01*
X347836Y522477D01*
X273304Y522477D01*
X273286Y522475D01*
X273268Y522477D01*
X273086Y522456D01*
X272903Y522437D01*
X272886Y522432D01*
X272869Y522430D01*
X272694Y522373D01*
X272518Y522319D01*
X272503Y522311D01*
X272486Y522305D01*
X272326Y522215D01*
X272164Y522127D01*
X272151Y522116D01*
X272135Y522107D01*
X271996Y521987D01*
X271855Y521870D01*
X271844Y521856D01*
X271830Y521844D01*
X271718Y521699D01*
X271603Y521556D01*
X271595Y521540D01*
X271584Y521526D01*
X271502Y521361D01*
X271417Y521199D01*
X271412Y521182D01*
X271404Y521166D01*
X271357Y520987D01*
X271306Y520812D01*
X271304Y520794D01*
X271300Y520777D01*
X271273Y520446D01*
X271273Y422490D01*
X271274Y422479D01*
X271273Y422469D01*
X271275Y422455D01*
X271273Y422437D01*
X271295Y422263D01*
X271313Y422089D01*
X271320Y422064D01*
X271324Y422037D01*
X271379Y421872D01*
X271431Y421705D01*
X271444Y421681D01*
X271452Y421656D01*
X271539Y421504D01*
X271623Y421350D01*
X271640Y421330D01*
X271653Y421307D01*
X271868Y421054D01*
X276226Y416696D01*
X276226Y408804D01*
X271868Y404446D01*
X271851Y404426D01*
X271830Y404408D01*
X271723Y404270D01*
X271613Y404135D01*
X271600Y404111D01*
X271584Y404090D01*
X271506Y403933D01*
X271424Y403779D01*
X271416Y403754D01*
X271404Y403729D01*
X271359Y403560D01*
X271309Y403393D01*
X271307Y403367D01*
X271300Y403341D01*
X271273Y403010D01*
X271273Y224985D01*
X271275Y224959D01*
X271273Y224932D01*
X271295Y224758D01*
X271313Y224585D01*
X271320Y224559D01*
X271324Y224533D01*
X271379Y224367D01*
X271431Y224200D01*
X271444Y224176D01*
X271452Y224151D01*
X271539Y223999D01*
X271623Y223846D01*
X271640Y223825D01*
X271653Y223802D01*
X271868Y223549D01*
X306099Y189318D01*
X306120Y189301D01*
X306137Y189280D01*
X306275Y189173D01*
X306411Y189063D01*
X306434Y189050D01*
X306455Y189034D01*
X306612Y188956D01*
X306766Y188874D01*
X306792Y188866D01*
X306816Y188854D01*
X306985Y188809D01*
X307152Y188759D01*
X307179Y188757D01*
X307205Y188750D01*
X307535Y188723D01*
X321717Y188723D01*
X321744Y188725D01*
X321771Y188723D01*
X321944Y188745D01*
X322118Y188763D01*
X322143Y188770D01*
X322170Y188774D01*
X322336Y188830D01*
X322503Y188881D01*
X322526Y188894D01*
X322552Y188902D01*
X322703Y188989D01*
X322857Y189073D01*
X322877Y189090D01*
X322901Y189103D01*
X323154Y189318D01*
X326623Y192787D01*
X333777Y192787D01*
X337246Y189318D01*
X337267Y189301D01*
X337285Y189280D01*
X337423Y189173D01*
X337558Y189063D01*
X337582Y189050D01*
X337603Y189034D01*
X337759Y188956D01*
X337914Y188874D01*
X337939Y188866D01*
X337963Y188854D01*
X338133Y188809D01*
X338300Y188759D01*
X338326Y188757D01*
X338352Y188750D01*
X338683Y188723D01*
X347117Y188723D01*
X347144Y188725D01*
X347170Y188723D01*
X347344Y188745D01*
X347518Y188763D01*
X347543Y188770D01*
X347570Y188774D01*
X347736Y188829D01*
X347903Y188881D01*
X347926Y188894D01*
X347952Y188902D01*
X348103Y188989D01*
X348257Y189073D01*
X348277Y189090D01*
X348300Y189103D01*
X348553Y189318D01*
X352023Y192787D01*
X359177Y192787D01*
X364237Y187727D01*
X364237Y180573D01*
X359177Y175513D01*
X352023Y175513D01*
X348553Y178982D01*
X348533Y178999D01*
X348515Y179020D01*
X348377Y179127D01*
X348242Y179237D01*
X348218Y179250D01*
X348197Y179266D01*
X348040Y179344D01*
X347886Y179426D01*
X347861Y179434D01*
X347837Y179446D01*
X347667Y179491D01*
X347500Y179541D01*
X347474Y179543D01*
X347448Y179550D01*
X347117Y179577D01*
X338683Y179577D01*
X338656Y179575D01*
X338629Y179577D01*
X338456Y179555D01*
X338282Y179537D01*
X338257Y179530D01*
X338230Y179526D01*
X338064Y179470D01*
X337897Y179419D01*
X337874Y179406D01*
X337848Y179398D01*
X337697Y179311D01*
X337543Y179227D01*
X337523Y179210D01*
X337499Y179197D01*
X337246Y178982D01*
X333777Y175513D01*
X326623Y175513D01*
G37*
%LPD*%
%LPC*%
G36*
X66665Y202945D02*
X66665Y202945D01*
X60504Y205498D01*
X55788Y210214D01*
X53235Y216375D01*
X53235Y253525D01*
X55788Y259686D01*
X60504Y264402D01*
X65189Y266343D01*
X65209Y266354D01*
X65230Y266361D01*
X65387Y266449D01*
X65544Y266534D01*
X65561Y266548D01*
X65581Y266559D01*
X65717Y266676D01*
X65855Y266790D01*
X65869Y266807D01*
X65886Y266822D01*
X65995Y266963D01*
X66108Y267103D01*
X66119Y267122D01*
X66132Y267140D01*
X66212Y267301D01*
X66295Y267459D01*
X66302Y267480D01*
X66312Y267500D01*
X66358Y267674D01*
X66408Y267846D01*
X66410Y267868D01*
X66416Y267889D01*
X66443Y268220D01*
X66443Y270585D01*
X66441Y270612D01*
X66443Y270639D01*
X66421Y270813D01*
X66403Y270986D01*
X66396Y271011D01*
X66392Y271038D01*
X66337Y271204D01*
X66285Y271371D01*
X66272Y271394D01*
X66264Y271420D01*
X66177Y271571D01*
X66093Y271725D01*
X66076Y271745D01*
X66063Y271769D01*
X65848Y272022D01*
X15493Y322377D01*
X15493Y890473D01*
X36627Y911607D01*
X45855Y911607D01*
X45882Y911609D01*
X45908Y911607D01*
X46082Y911629D01*
X46256Y911647D01*
X46281Y911654D01*
X46308Y911658D01*
X46474Y911713D01*
X46641Y911765D01*
X46664Y911778D01*
X46690Y911786D01*
X46841Y911873D01*
X46995Y911957D01*
X47015Y911974D01*
X47038Y911987D01*
X47291Y912202D01*
X53047Y917957D01*
X61253Y917957D01*
X67057Y912153D01*
X67057Y903947D01*
X61253Y898143D01*
X53047Y898143D01*
X47291Y903898D01*
X47271Y903915D01*
X47253Y903936D01*
X47115Y904042D01*
X46980Y904153D01*
X46956Y904166D01*
X46935Y904182D01*
X46778Y904260D01*
X46624Y904342D01*
X46599Y904350D01*
X46575Y904362D01*
X46405Y904407D01*
X46238Y904457D01*
X46212Y904459D01*
X46186Y904466D01*
X45855Y904493D01*
X40415Y904493D01*
X40388Y904491D01*
X40361Y904493D01*
X40187Y904471D01*
X40014Y904453D01*
X39989Y904446D01*
X39962Y904442D01*
X39796Y904387D01*
X39629Y904335D01*
X39606Y904322D01*
X39580Y904314D01*
X39429Y904227D01*
X39275Y904143D01*
X39255Y904126D01*
X39231Y904113D01*
X38978Y903898D01*
X23202Y888122D01*
X23185Y888101D01*
X23164Y888083D01*
X23057Y887946D01*
X22947Y887810D01*
X22934Y887787D01*
X22918Y887765D01*
X22840Y887608D01*
X22758Y887454D01*
X22750Y887429D01*
X22738Y887405D01*
X22693Y887235D01*
X22643Y887069D01*
X22641Y887042D01*
X22634Y887016D01*
X22607Y886685D01*
X22607Y326165D01*
X22609Y326138D01*
X22607Y326111D01*
X22629Y325937D01*
X22647Y325764D01*
X22654Y325739D01*
X22658Y325712D01*
X22713Y325546D01*
X22765Y325379D01*
X22778Y325356D01*
X22786Y325330D01*
X22873Y325179D01*
X22957Y325025D01*
X22974Y325005D01*
X22987Y324981D01*
X23202Y324728D01*
X73557Y274373D01*
X73557Y268220D01*
X73559Y268198D01*
X73557Y268176D01*
X73579Y267998D01*
X73597Y267819D01*
X73603Y267798D01*
X73606Y267776D01*
X73662Y267606D01*
X73715Y267434D01*
X73725Y267415D01*
X73732Y267394D01*
X73821Y267238D01*
X73907Y267080D01*
X73921Y267063D01*
X73932Y267044D01*
X74050Y266908D01*
X74164Y266771D01*
X74182Y266757D01*
X74196Y266740D01*
X74338Y266631D01*
X74478Y266519D01*
X74498Y266509D01*
X74516Y266495D01*
X74811Y266343D01*
X79496Y264402D01*
X84212Y259686D01*
X86765Y253525D01*
X86765Y216375D01*
X84212Y210214D01*
X79496Y205498D01*
X73335Y202945D01*
X66665Y202945D01*
G37*
%LPD*%
%LPC*%
G36*
X326623Y277113D02*
X326623Y277113D01*
X321563Y282173D01*
X321563Y289327D01*
X325032Y292796D01*
X325049Y292817D01*
X325070Y292835D01*
X325177Y292973D01*
X325287Y293108D01*
X325300Y293132D01*
X325316Y293153D01*
X325394Y293309D01*
X325476Y293464D01*
X325484Y293489D01*
X325496Y293513D01*
X325541Y293683D01*
X325591Y293850D01*
X325593Y293876D01*
X325600Y293902D01*
X325627Y294233D01*
X325627Y364910D01*
X325625Y364937D01*
X325627Y364963D01*
X325605Y365137D01*
X325587Y365311D01*
X325580Y365336D01*
X325576Y365363D01*
X325520Y365529D01*
X325469Y365695D01*
X325456Y365719D01*
X325448Y365744D01*
X325361Y365896D01*
X325277Y366050D01*
X325260Y366070D01*
X325247Y366093D01*
X325032Y366346D01*
X322124Y369254D01*
X320674Y372755D01*
X320674Y376868D01*
X320672Y376894D01*
X320674Y376921D01*
X320652Y377095D01*
X320634Y377268D01*
X320627Y377294D01*
X320623Y377320D01*
X320568Y377486D01*
X320516Y377653D01*
X320503Y377677D01*
X320495Y377702D01*
X320408Y377854D01*
X320324Y378007D01*
X320307Y378028D01*
X320294Y378051D01*
X320079Y378304D01*
X288223Y410160D01*
X287527Y411840D01*
X287527Y498418D01*
X287524Y498449D01*
X287526Y498481D01*
X287504Y498650D01*
X287487Y498819D01*
X287478Y498849D01*
X287474Y498880D01*
X287373Y499196D01*
X286793Y500594D01*
X286793Y502706D01*
X287601Y504656D01*
X289094Y506149D01*
X291044Y506957D01*
X293156Y506957D01*
X294554Y506377D01*
X294584Y506368D01*
X294612Y506354D01*
X294777Y506310D01*
X294940Y506261D01*
X294971Y506258D01*
X295001Y506250D01*
X295332Y506223D01*
X347836Y506223D01*
X347862Y506225D01*
X347889Y506223D01*
X348063Y506245D01*
X348236Y506263D01*
X348262Y506270D01*
X348288Y506274D01*
X348454Y506330D01*
X348621Y506381D01*
X348645Y506394D01*
X348670Y506402D01*
X348822Y506489D01*
X348975Y506573D01*
X348996Y506590D01*
X349019Y506603D01*
X349272Y506818D01*
X352233Y509779D01*
X358967Y509779D01*
X363729Y505017D01*
X363729Y498283D01*
X358967Y493521D01*
X352233Y493521D01*
X349272Y496482D01*
X349251Y496499D01*
X349234Y496520D01*
X349096Y496627D01*
X348960Y496737D01*
X348937Y496750D01*
X348916Y496766D01*
X348759Y496844D01*
X348605Y496926D01*
X348579Y496934D01*
X348555Y496946D01*
X348386Y496991D01*
X348219Y497041D01*
X348192Y497043D01*
X348166Y497050D01*
X347836Y497077D01*
X298704Y497077D01*
X298686Y497075D01*
X298668Y497077D01*
X298486Y497056D01*
X298303Y497037D01*
X298286Y497032D01*
X298269Y497030D01*
X298094Y496973D01*
X297918Y496919D01*
X297903Y496911D01*
X297886Y496905D01*
X297726Y496815D01*
X297564Y496727D01*
X297551Y496716D01*
X297535Y496707D01*
X297396Y496587D01*
X297255Y496470D01*
X297244Y496456D01*
X297230Y496444D01*
X297118Y496299D01*
X297003Y496156D01*
X296995Y496140D01*
X296984Y496126D01*
X296902Y495961D01*
X296817Y495799D01*
X296812Y495782D01*
X296804Y495766D01*
X296757Y495587D01*
X296706Y495412D01*
X296704Y495394D01*
X296700Y495377D01*
X296673Y495046D01*
X296673Y415485D01*
X296675Y415459D01*
X296673Y415432D01*
X296695Y415258D01*
X296713Y415085D01*
X296720Y415059D01*
X296724Y415033D01*
X296779Y414867D01*
X296831Y414700D01*
X296844Y414676D01*
X296852Y414651D01*
X296939Y414499D01*
X297023Y414346D01*
X297040Y414325D01*
X297053Y414302D01*
X297268Y414049D01*
X326546Y384771D01*
X326567Y384754D01*
X326584Y384733D01*
X326722Y384626D01*
X326858Y384516D01*
X326881Y384503D01*
X326902Y384487D01*
X327059Y384409D01*
X327213Y384327D01*
X327239Y384319D01*
X327263Y384307D01*
X327432Y384262D01*
X327599Y384212D01*
X327626Y384210D01*
X327652Y384203D01*
X327982Y384176D01*
X332095Y384176D01*
X335596Y382726D01*
X338276Y380046D01*
X339726Y376545D01*
X339726Y372755D01*
X338276Y369254D01*
X335368Y366346D01*
X335351Y366326D01*
X335330Y366308D01*
X335223Y366170D01*
X335113Y366035D01*
X335100Y366011D01*
X335084Y365990D01*
X335006Y365833D01*
X334924Y365679D01*
X334916Y365653D01*
X334904Y365629D01*
X334859Y365460D01*
X334809Y365293D01*
X334807Y365267D01*
X334800Y365241D01*
X334773Y364910D01*
X334773Y294233D01*
X334775Y294206D01*
X334773Y294179D01*
X334795Y294006D01*
X334813Y293832D01*
X334820Y293807D01*
X334824Y293780D01*
X334879Y293614D01*
X334931Y293447D01*
X334944Y293424D01*
X334952Y293398D01*
X335039Y293247D01*
X335123Y293093D01*
X335140Y293073D01*
X335153Y293049D01*
X335368Y292796D01*
X337246Y290918D01*
X337267Y290901D01*
X337285Y290880D01*
X337423Y290773D01*
X337558Y290663D01*
X337582Y290650D01*
X337603Y290634D01*
X337760Y290556D01*
X337914Y290474D01*
X337939Y290466D01*
X337963Y290454D01*
X338133Y290409D01*
X338300Y290359D01*
X338326Y290357D01*
X338352Y290350D01*
X338683Y290323D01*
X347117Y290323D01*
X347144Y290325D01*
X347171Y290323D01*
X347344Y290345D01*
X347518Y290363D01*
X347543Y290370D01*
X347570Y290374D01*
X347736Y290430D01*
X347903Y290481D01*
X347926Y290494D01*
X347952Y290502D01*
X348103Y290589D01*
X348257Y290673D01*
X348277Y290690D01*
X348301Y290703D01*
X348554Y290918D01*
X352023Y294387D01*
X359177Y294387D01*
X364237Y289327D01*
X364237Y282173D01*
X359177Y277113D01*
X352023Y277113D01*
X348554Y280582D01*
X348533Y280599D01*
X348515Y280620D01*
X348377Y280727D01*
X348242Y280837D01*
X348218Y280850D01*
X348197Y280866D01*
X348041Y280944D01*
X347886Y281026D01*
X347861Y281034D01*
X347837Y281046D01*
X347667Y281091D01*
X347500Y281141D01*
X347474Y281143D01*
X347448Y281150D01*
X347117Y281177D01*
X338683Y281177D01*
X338656Y281175D01*
X338629Y281177D01*
X338456Y281155D01*
X338282Y281137D01*
X338257Y281130D01*
X338230Y281126D01*
X338064Y281070D01*
X337897Y281019D01*
X337874Y281006D01*
X337848Y280998D01*
X337697Y280911D01*
X337543Y280827D01*
X337523Y280810D01*
X337499Y280797D01*
X337246Y280582D01*
X333777Y277113D01*
X326623Y277113D01*
G37*
%LPD*%
%LPC*%
G36*
X87005Y593724D02*
X87005Y593724D01*
X83504Y595174D01*
X80824Y597854D01*
X80582Y598439D01*
X80572Y598459D01*
X80565Y598480D01*
X80476Y598636D01*
X80392Y598794D01*
X80378Y598811D01*
X80367Y598831D01*
X80250Y598966D01*
X80135Y599105D01*
X80118Y599119D01*
X80104Y599136D01*
X79962Y599245D01*
X79823Y599358D01*
X79803Y599369D01*
X79785Y599382D01*
X79625Y599462D01*
X79466Y599545D01*
X79445Y599552D01*
X79425Y599562D01*
X79251Y599608D01*
X79080Y599658D01*
X79058Y599660D01*
X79036Y599666D01*
X78705Y599693D01*
X62027Y599693D01*
X28193Y633527D01*
X28193Y699973D01*
X30872Y702652D01*
X46648Y718428D01*
X46665Y718449D01*
X46686Y718466D01*
X46793Y718604D01*
X46903Y718740D01*
X46916Y718763D01*
X46932Y718785D01*
X47010Y718941D01*
X47092Y719095D01*
X47100Y719121D01*
X47112Y719145D01*
X47157Y719314D01*
X47207Y719481D01*
X47209Y719508D01*
X47216Y719534D01*
X47243Y719865D01*
X47243Y721253D01*
X52998Y727009D01*
X53015Y727029D01*
X53036Y727047D01*
X53143Y727185D01*
X53253Y727320D01*
X53266Y727344D01*
X53282Y727365D01*
X53360Y727522D01*
X53442Y727676D01*
X53450Y727701D01*
X53462Y727725D01*
X53507Y727895D01*
X53557Y728062D01*
X53559Y728088D01*
X53566Y728114D01*
X53593Y728445D01*
X53593Y871112D01*
X53591Y871130D01*
X53593Y871148D01*
X53572Y871330D01*
X53553Y871513D01*
X53548Y871530D01*
X53546Y871547D01*
X53489Y871722D01*
X53435Y871898D01*
X53427Y871913D01*
X53421Y871930D01*
X53331Y872090D01*
X53243Y872252D01*
X53232Y872265D01*
X53223Y872281D01*
X53103Y872420D01*
X52986Y872561D01*
X52972Y872572D01*
X52960Y872586D01*
X52815Y872698D01*
X52672Y872813D01*
X52656Y872821D01*
X52642Y872832D01*
X52477Y872914D01*
X52315Y872999D01*
X52298Y873004D01*
X52282Y873012D01*
X52103Y873059D01*
X51928Y873110D01*
X51910Y873112D01*
X51893Y873116D01*
X51562Y873143D01*
X48136Y873143D01*
X47243Y874036D01*
X47243Y892064D01*
X48136Y892957D01*
X66164Y892957D01*
X67057Y892064D01*
X67057Y874036D01*
X66164Y873143D01*
X62738Y873143D01*
X62720Y873141D01*
X62702Y873143D01*
X62520Y873122D01*
X62337Y873103D01*
X62320Y873098D01*
X62303Y873096D01*
X62128Y873039D01*
X61952Y872985D01*
X61937Y872977D01*
X61920Y872971D01*
X61760Y872881D01*
X61598Y872793D01*
X61585Y872782D01*
X61569Y872773D01*
X61430Y872653D01*
X61289Y872536D01*
X61278Y872522D01*
X61264Y872510D01*
X61152Y872365D01*
X61037Y872222D01*
X61029Y872206D01*
X61018Y872192D01*
X60936Y872027D01*
X60851Y871865D01*
X60846Y871848D01*
X60838Y871832D01*
X60791Y871653D01*
X60740Y871478D01*
X60738Y871460D01*
X60734Y871443D01*
X60707Y871112D01*
X60707Y728445D01*
X60709Y728418D01*
X60707Y728392D01*
X60729Y728218D01*
X60747Y728044D01*
X60754Y728019D01*
X60758Y727992D01*
X60813Y727826D01*
X60865Y727659D01*
X60878Y727636D01*
X60886Y727610D01*
X60973Y727459D01*
X61057Y727305D01*
X61074Y727285D01*
X61087Y727262D01*
X61302Y727009D01*
X67057Y721253D01*
X67057Y713047D01*
X61253Y707243D01*
X53047Y707243D01*
X50721Y709569D01*
X50707Y709580D01*
X50696Y709594D01*
X50552Y709707D01*
X50410Y709824D01*
X50394Y709832D01*
X50380Y709843D01*
X50216Y709926D01*
X50054Y710012D01*
X50037Y710017D01*
X50021Y710025D01*
X49844Y710075D01*
X49668Y710127D01*
X49650Y710129D01*
X49633Y710133D01*
X49450Y710147D01*
X49267Y710163D01*
X49249Y710162D01*
X49232Y710163D01*
X49049Y710140D01*
X48867Y710120D01*
X48850Y710115D01*
X48832Y710112D01*
X48658Y710054D01*
X48483Y709999D01*
X48467Y709990D01*
X48450Y709984D01*
X48291Y709892D01*
X48131Y709804D01*
X48117Y709792D01*
X48102Y709783D01*
X47849Y709569D01*
X35902Y697622D01*
X35885Y697601D01*
X35864Y697583D01*
X35757Y697446D01*
X35647Y697310D01*
X35634Y697287D01*
X35618Y697265D01*
X35540Y697108D01*
X35458Y696954D01*
X35450Y696929D01*
X35438Y696905D01*
X35393Y696735D01*
X35343Y696569D01*
X35341Y696542D01*
X35334Y696516D01*
X35307Y696185D01*
X35307Y637315D01*
X35309Y637288D01*
X35307Y637261D01*
X35329Y637087D01*
X35347Y636914D01*
X35354Y636889D01*
X35358Y636862D01*
X35413Y636696D01*
X35465Y636529D01*
X35478Y636506D01*
X35486Y636480D01*
X35573Y636329D01*
X35657Y636175D01*
X35674Y636155D01*
X35687Y636131D01*
X35902Y635878D01*
X64378Y607402D01*
X64399Y607385D01*
X64417Y607364D01*
X64554Y607257D01*
X64690Y607147D01*
X64713Y607134D01*
X64735Y607118D01*
X64892Y607040D01*
X65046Y606958D01*
X65071Y606950D01*
X65095Y606938D01*
X65265Y606893D01*
X65431Y606843D01*
X65458Y606841D01*
X65484Y606834D01*
X65815Y606807D01*
X78705Y606807D01*
X78728Y606809D01*
X78750Y606807D01*
X78927Y606829D01*
X79106Y606847D01*
X79127Y606853D01*
X79150Y606856D01*
X79319Y606912D01*
X79491Y606965D01*
X79511Y606975D01*
X79532Y606982D01*
X79687Y607071D01*
X79845Y607157D01*
X79862Y607171D01*
X79881Y607182D01*
X80017Y607300D01*
X80154Y607414D01*
X80168Y607432D01*
X80185Y607446D01*
X80294Y607588D01*
X80407Y607728D01*
X80417Y607748D01*
X80430Y607766D01*
X80582Y608061D01*
X80824Y608646D01*
X83504Y611326D01*
X87005Y612776D01*
X90795Y612776D01*
X94296Y611326D01*
X96976Y608646D01*
X98426Y605145D01*
X98426Y601355D01*
X96976Y597854D01*
X94296Y595174D01*
X93881Y595003D01*
X90795Y593724D01*
X87005Y593724D01*
G37*
%LPD*%
%LPC*%
G36*
X377633Y557021D02*
X377633Y557021D01*
X372871Y561783D01*
X372871Y568517D01*
X377633Y573279D01*
X384367Y573279D01*
X388344Y569302D01*
X388365Y569285D01*
X388382Y569264D01*
X388520Y569157D01*
X388656Y569047D01*
X388679Y569034D01*
X388700Y569018D01*
X388857Y568940D01*
X389011Y568858D01*
X389037Y568850D01*
X389061Y568838D01*
X389230Y568793D01*
X389397Y568743D01*
X389424Y568741D01*
X389450Y568734D01*
X389780Y568707D01*
X404085Y568707D01*
X404112Y568709D01*
X404139Y568707D01*
X404313Y568729D01*
X404486Y568747D01*
X404511Y568754D01*
X404538Y568758D01*
X404704Y568813D01*
X404871Y568865D01*
X404894Y568878D01*
X404920Y568886D01*
X405071Y568973D01*
X405225Y569057D01*
X405245Y569074D01*
X405269Y569087D01*
X405522Y569302D01*
X433998Y597778D01*
X434015Y597799D01*
X434036Y597817D01*
X434143Y597954D01*
X434253Y598090D01*
X434266Y598113D01*
X434282Y598135D01*
X434360Y598291D01*
X434442Y598446D01*
X434450Y598471D01*
X434462Y598495D01*
X434507Y598665D01*
X434557Y598831D01*
X434559Y598853D01*
X434560Y598858D01*
X434561Y598863D01*
X434566Y598884D01*
X434593Y599215D01*
X434593Y731723D01*
X446698Y743828D01*
X446715Y743849D01*
X446736Y743867D01*
X446843Y744004D01*
X446953Y744140D01*
X446966Y744163D01*
X446982Y744185D01*
X447060Y744342D01*
X447142Y744496D01*
X447150Y744521D01*
X447162Y744545D01*
X447207Y744715D01*
X447257Y744881D01*
X447259Y744908D01*
X447266Y744934D01*
X447293Y745265D01*
X447293Y810485D01*
X447292Y810498D01*
X447293Y810509D01*
X447291Y810522D01*
X447293Y810539D01*
X447271Y810713D01*
X447253Y810886D01*
X447246Y810911D01*
X447242Y810938D01*
X447187Y811104D01*
X447135Y811271D01*
X447122Y811294D01*
X447114Y811320D01*
X447027Y811471D01*
X446943Y811625D01*
X446926Y811645D01*
X446913Y811669D01*
X446698Y811922D01*
X433421Y825199D01*
X433407Y825210D01*
X433396Y825224D01*
X433252Y825338D01*
X433110Y825454D01*
X433094Y825462D01*
X433080Y825473D01*
X432916Y825557D01*
X432754Y825643D01*
X432737Y825648D01*
X432721Y825656D01*
X432544Y825705D01*
X432368Y825757D01*
X432350Y825759D01*
X432333Y825764D01*
X432150Y825777D01*
X431967Y825794D01*
X431949Y825792D01*
X431932Y825793D01*
X431750Y825770D01*
X431567Y825750D01*
X431550Y825745D01*
X431532Y825743D01*
X431359Y825684D01*
X431183Y825629D01*
X431167Y825620D01*
X431150Y825614D01*
X430991Y825522D01*
X430831Y825434D01*
X430817Y825422D01*
X430802Y825413D01*
X430549Y825199D01*
X430309Y824959D01*
X427321Y823721D01*
X410879Y823721D01*
X407891Y824959D01*
X405605Y827245D01*
X404367Y830233D01*
X404367Y833467D01*
X405605Y836455D01*
X407891Y838741D01*
X408682Y839069D01*
X410879Y839979D01*
X427321Y839979D01*
X430309Y838741D01*
X432595Y836455D01*
X432702Y836197D01*
X432717Y836169D01*
X432727Y836139D01*
X432812Y835992D01*
X432892Y835842D01*
X432912Y835818D01*
X432928Y835791D01*
X433142Y835538D01*
X454407Y814273D01*
X454407Y741477D01*
X442302Y729372D01*
X442285Y729351D01*
X442264Y729333D01*
X442157Y729196D01*
X442047Y729060D01*
X442034Y729037D01*
X442018Y729015D01*
X441940Y728858D01*
X441858Y728704D01*
X441850Y728679D01*
X441838Y728655D01*
X441793Y728485D01*
X441743Y728319D01*
X441741Y728292D01*
X441734Y728266D01*
X441707Y727935D01*
X441707Y595427D01*
X407873Y561593D01*
X389780Y561593D01*
X389754Y561591D01*
X389727Y561593D01*
X389553Y561571D01*
X389380Y561553D01*
X389354Y561546D01*
X389328Y561542D01*
X389162Y561486D01*
X388995Y561435D01*
X388971Y561422D01*
X388946Y561414D01*
X388794Y561327D01*
X388641Y561243D01*
X388620Y561226D01*
X388597Y561213D01*
X388344Y560998D01*
X384367Y557021D01*
X377633Y557021D01*
G37*
%LPD*%
%LPC*%
G36*
X98233Y684021D02*
X98233Y684021D01*
X93471Y688783D01*
X93471Y695517D01*
X98233Y700279D01*
X104967Y700279D01*
X108944Y696302D01*
X108965Y696285D01*
X108982Y696264D01*
X109120Y696157D01*
X109256Y696047D01*
X109279Y696034D01*
X109300Y696018D01*
X109457Y695940D01*
X109611Y695858D01*
X109637Y695850D01*
X109661Y695838D01*
X109830Y695793D01*
X109997Y695743D01*
X110024Y695741D01*
X110050Y695734D01*
X110380Y695707D01*
X124685Y695707D01*
X124712Y695709D01*
X124739Y695707D01*
X124913Y695729D01*
X125086Y695747D01*
X125111Y695754D01*
X125138Y695758D01*
X125304Y695813D01*
X125471Y695865D01*
X125494Y695878D01*
X125520Y695886D01*
X125671Y695973D01*
X125825Y696057D01*
X125845Y696074D01*
X125869Y696087D01*
X126122Y696302D01*
X148248Y718428D01*
X148265Y718449D01*
X148286Y718467D01*
X148393Y718604D01*
X148503Y718740D01*
X148516Y718763D01*
X148532Y718785D01*
X148610Y718942D01*
X148692Y719096D01*
X148700Y719121D01*
X148712Y719145D01*
X148757Y719315D01*
X148807Y719481D01*
X148809Y719508D01*
X148816Y719534D01*
X148843Y719865D01*
X148843Y864362D01*
X148841Y864380D01*
X148843Y864398D01*
X148822Y864580D01*
X148803Y864763D01*
X148798Y864780D01*
X148796Y864797D01*
X148739Y864972D01*
X148685Y865148D01*
X148677Y865163D01*
X148671Y865180D01*
X148581Y865340D01*
X148493Y865502D01*
X148482Y865515D01*
X148473Y865531D01*
X148353Y865670D01*
X148236Y865811D01*
X148222Y865822D01*
X148210Y865836D01*
X148065Y865948D01*
X147922Y866063D01*
X147906Y866071D01*
X147892Y866082D01*
X147727Y866164D01*
X147565Y866249D01*
X147548Y866254D01*
X147532Y866262D01*
X147353Y866309D01*
X147178Y866360D01*
X147160Y866362D01*
X147143Y866366D01*
X146812Y866393D01*
X142286Y866393D01*
X142264Y866391D01*
X142242Y866393D01*
X142065Y866371D01*
X141886Y866353D01*
X141865Y866347D01*
X141842Y866344D01*
X141673Y866288D01*
X141501Y866235D01*
X141481Y866225D01*
X141460Y866218D01*
X141305Y866129D01*
X141147Y866043D01*
X141130Y866029D01*
X141110Y866018D01*
X140975Y865900D01*
X140838Y865786D01*
X140824Y865768D01*
X140807Y865754D01*
X140698Y865612D01*
X140585Y865472D01*
X140575Y865452D01*
X140561Y865434D01*
X140537Y865388D01*
X138209Y863059D01*
X135221Y861821D01*
X118779Y861821D01*
X115791Y863059D01*
X113505Y865345D01*
X112267Y868333D01*
X112267Y871567D01*
X113505Y874555D01*
X115791Y876841D01*
X117774Y877662D01*
X117774Y877663D01*
X118779Y878079D01*
X135221Y878079D01*
X138209Y876841D01*
X140549Y874501D01*
X140600Y874406D01*
X140614Y874389D01*
X140625Y874369D01*
X140742Y874234D01*
X140856Y874095D01*
X140874Y874081D01*
X140888Y874064D01*
X141030Y873955D01*
X141169Y873842D01*
X141189Y873831D01*
X141206Y873818D01*
X141367Y873738D01*
X141526Y873655D01*
X141547Y873648D01*
X141567Y873638D01*
X141741Y873592D01*
X141912Y873542D01*
X141934Y873540D01*
X141956Y873534D01*
X142286Y873507D01*
X162514Y873507D01*
X162536Y873509D01*
X162558Y873507D01*
X162735Y873529D01*
X162914Y873547D01*
X162935Y873553D01*
X162958Y873556D01*
X163127Y873612D01*
X163299Y873665D01*
X163319Y873675D01*
X163340Y873682D01*
X163495Y873771D01*
X163653Y873857D01*
X163670Y873871D01*
X163690Y873882D01*
X163825Y874000D01*
X163962Y874114D01*
X163976Y874132D01*
X163993Y874146D01*
X164102Y874288D01*
X164215Y874428D01*
X164225Y874448D01*
X164239Y874466D01*
X164263Y874512D01*
X166591Y876841D01*
X168574Y877662D01*
X168574Y877663D01*
X169579Y878079D01*
X186021Y878079D01*
X189009Y876841D01*
X191295Y874555D01*
X192533Y871567D01*
X192533Y868333D01*
X191295Y865345D01*
X189009Y863059D01*
X186021Y861821D01*
X169579Y861821D01*
X166591Y863059D01*
X164251Y865399D01*
X164200Y865494D01*
X164186Y865511D01*
X164175Y865531D01*
X164058Y865666D01*
X163944Y865805D01*
X163926Y865819D01*
X163912Y865836D01*
X163771Y865945D01*
X163631Y866058D01*
X163611Y866069D01*
X163594Y866082D01*
X163433Y866162D01*
X163274Y866245D01*
X163253Y866252D01*
X163233Y866262D01*
X163059Y866308D01*
X162888Y866358D01*
X162866Y866360D01*
X162844Y866366D01*
X162514Y866393D01*
X157988Y866393D01*
X157970Y866391D01*
X157952Y866393D01*
X157770Y866372D01*
X157587Y866353D01*
X157570Y866348D01*
X157553Y866346D01*
X157378Y866289D01*
X157202Y866235D01*
X157187Y866227D01*
X157170Y866221D01*
X157010Y866131D01*
X156848Y866043D01*
X156835Y866032D01*
X156819Y866023D01*
X156680Y865903D01*
X156539Y865786D01*
X156528Y865772D01*
X156514Y865760D01*
X156402Y865615D01*
X156287Y865472D01*
X156279Y865456D01*
X156268Y865442D01*
X156186Y865277D01*
X156101Y865115D01*
X156096Y865098D01*
X156088Y865082D01*
X156041Y864903D01*
X155990Y864728D01*
X155988Y864710D01*
X155984Y864693D01*
X155957Y864362D01*
X155957Y716077D01*
X128473Y688593D01*
X110380Y688593D01*
X110354Y688591D01*
X110327Y688593D01*
X110153Y688571D01*
X109980Y688553D01*
X109954Y688546D01*
X109928Y688542D01*
X109762Y688487D01*
X109595Y688435D01*
X109571Y688422D01*
X109546Y688414D01*
X109394Y688327D01*
X109241Y688243D01*
X109220Y688226D01*
X109197Y688213D01*
X108944Y687998D01*
X104967Y684021D01*
X98233Y684021D01*
G37*
%LPD*%
%LPC*%
G36*
X233079Y607821D02*
X233079Y607821D01*
X230091Y609059D01*
X227751Y611399D01*
X227700Y611494D01*
X227686Y611511D01*
X227675Y611531D01*
X227558Y611667D01*
X227444Y611804D01*
X227426Y611819D01*
X227412Y611836D01*
X227271Y611945D01*
X227131Y612058D01*
X227111Y612069D01*
X227094Y612082D01*
X226933Y612162D01*
X226775Y612245D01*
X226753Y612252D01*
X226733Y612262D01*
X226559Y612308D01*
X226388Y612358D01*
X226366Y612360D01*
X226344Y612366D01*
X226014Y612393D01*
X150927Y612393D01*
X75322Y687998D01*
X75301Y688015D01*
X75283Y688036D01*
X75146Y688143D01*
X75010Y688253D01*
X74987Y688266D01*
X74965Y688282D01*
X74808Y688360D01*
X74654Y688442D01*
X74629Y688450D01*
X74605Y688462D01*
X74435Y688507D01*
X74269Y688557D01*
X74242Y688559D01*
X74216Y688566D01*
X73885Y688593D01*
X68445Y688593D01*
X68418Y688591D01*
X68392Y688593D01*
X68218Y688571D01*
X68044Y688553D01*
X68019Y688546D01*
X67992Y688542D01*
X67826Y688487D01*
X67659Y688435D01*
X67636Y688422D01*
X67610Y688414D01*
X67459Y688327D01*
X67305Y688243D01*
X67285Y688226D01*
X67262Y688213D01*
X67009Y687998D01*
X61253Y682243D01*
X53047Y682243D01*
X47243Y688047D01*
X47243Y696253D01*
X53047Y702057D01*
X61253Y702057D01*
X67009Y696302D01*
X67029Y696285D01*
X67047Y696264D01*
X67185Y696157D01*
X67320Y696047D01*
X67344Y696034D01*
X67365Y696018D01*
X67522Y695940D01*
X67676Y695858D01*
X67701Y695850D01*
X67725Y695838D01*
X67895Y695793D01*
X68062Y695743D01*
X68088Y695741D01*
X68114Y695734D01*
X68445Y695707D01*
X77673Y695707D01*
X153278Y620102D01*
X153286Y620096D01*
X153288Y620093D01*
X153299Y620084D01*
X153317Y620064D01*
X153454Y619957D01*
X153590Y619847D01*
X153613Y619834D01*
X153635Y619818D01*
X153792Y619740D01*
X153946Y619658D01*
X153971Y619650D01*
X153995Y619638D01*
X154165Y619593D01*
X154331Y619543D01*
X154358Y619541D01*
X154384Y619534D01*
X154715Y619507D01*
X226014Y619507D01*
X226036Y619509D01*
X226058Y619507D01*
X226236Y619529D01*
X226414Y619547D01*
X226436Y619553D01*
X226458Y619556D01*
X226628Y619612D01*
X226799Y619665D01*
X226819Y619675D01*
X226840Y619683D01*
X226996Y619771D01*
X227153Y619857D01*
X227170Y619871D01*
X227190Y619882D01*
X227325Y620000D01*
X227462Y620114D01*
X227476Y620132D01*
X227493Y620147D01*
X227602Y620288D01*
X227715Y620428D01*
X227725Y620448D01*
X227739Y620466D01*
X227763Y620513D01*
X230091Y622841D01*
X233079Y624079D01*
X249521Y624079D01*
X252509Y622841D01*
X254795Y620555D01*
X256033Y617567D01*
X256033Y614333D01*
X254795Y611345D01*
X252509Y609059D01*
X249521Y607821D01*
X233079Y607821D01*
G37*
%LPD*%
%LPC*%
G36*
X124665Y202945D02*
X124665Y202945D01*
X118504Y205498D01*
X113788Y210214D01*
X111235Y216375D01*
X111235Y253525D01*
X113788Y259686D01*
X118504Y264402D01*
X124665Y266955D01*
X131335Y266955D01*
X137496Y264402D01*
X142212Y259686D01*
X144765Y253525D01*
X144765Y216375D01*
X142212Y210214D01*
X137496Y205498D01*
X131335Y202945D01*
X124665Y202945D01*
G37*
%LPD*%
%LPC*%
G36*
X48136Y441343D02*
X48136Y441343D01*
X47243Y442236D01*
X47243Y460264D01*
X48136Y461157D01*
X66164Y461157D01*
X67057Y460264D01*
X67057Y456438D01*
X67059Y456420D01*
X67057Y456402D01*
X67078Y456220D01*
X67097Y456037D01*
X67102Y456020D01*
X67104Y456003D01*
X67161Y455828D01*
X67215Y455652D01*
X67223Y455637D01*
X67229Y455620D01*
X67319Y455460D01*
X67407Y455298D01*
X67418Y455285D01*
X67427Y455269D01*
X67547Y455130D01*
X67664Y454989D01*
X67678Y454978D01*
X67690Y454964D01*
X67835Y454852D01*
X67978Y454737D01*
X67994Y454729D01*
X68008Y454718D01*
X68173Y454636D01*
X68335Y454551D01*
X68352Y454546D01*
X68368Y454538D01*
X68547Y454491D01*
X68722Y454440D01*
X68740Y454438D01*
X68757Y454434D01*
X69088Y454407D01*
X80235Y454407D01*
X80262Y454409D01*
X80289Y454407D01*
X80463Y454429D01*
X80636Y454447D01*
X80661Y454454D01*
X80688Y454458D01*
X80854Y454513D01*
X81021Y454565D01*
X81044Y454578D01*
X81070Y454586D01*
X81221Y454673D01*
X81375Y454757D01*
X81395Y454774D01*
X81419Y454787D01*
X81672Y455002D01*
X84748Y458078D01*
X84765Y458099D01*
X84786Y458117D01*
X84893Y458254D01*
X85003Y458390D01*
X85016Y458413D01*
X85032Y458435D01*
X85110Y458591D01*
X85192Y458746D01*
X85200Y458771D01*
X85212Y458795D01*
X85257Y458965D01*
X85307Y459131D01*
X85309Y459158D01*
X85316Y459184D01*
X85343Y459515D01*
X85343Y567094D01*
X85341Y567121D01*
X85343Y567147D01*
X85321Y567321D01*
X85303Y567495D01*
X85296Y567520D01*
X85292Y567547D01*
X85236Y567713D01*
X85185Y567880D01*
X85172Y567903D01*
X85164Y567928D01*
X85077Y568080D01*
X84993Y568234D01*
X84976Y568254D01*
X84963Y568277D01*
X84748Y568530D01*
X79374Y573904D01*
X79374Y581796D01*
X84954Y587376D01*
X92846Y587376D01*
X98426Y581796D01*
X98426Y573904D01*
X93052Y568530D01*
X93035Y568510D01*
X93014Y568492D01*
X92907Y568354D01*
X92797Y568219D01*
X92784Y568195D01*
X92768Y568174D01*
X92690Y568017D01*
X92608Y567863D01*
X92600Y567838D01*
X92588Y567813D01*
X92543Y567644D01*
X92493Y567477D01*
X92491Y567451D01*
X92484Y567425D01*
X92457Y567094D01*
X92457Y455727D01*
X84023Y447293D01*
X69088Y447293D01*
X69070Y447291D01*
X69052Y447293D01*
X68870Y447272D01*
X68687Y447253D01*
X68670Y447248D01*
X68653Y447246D01*
X68478Y447189D01*
X68302Y447135D01*
X68287Y447127D01*
X68270Y447121D01*
X68110Y447031D01*
X67948Y446943D01*
X67935Y446932D01*
X67919Y446923D01*
X67780Y446803D01*
X67639Y446686D01*
X67628Y446672D01*
X67614Y446660D01*
X67502Y446515D01*
X67387Y446372D01*
X67379Y446356D01*
X67368Y446342D01*
X67286Y446177D01*
X67201Y446015D01*
X67196Y445998D01*
X67188Y445982D01*
X67141Y445803D01*
X67090Y445628D01*
X67088Y445610D01*
X67084Y445593D01*
X67057Y445262D01*
X67057Y442236D01*
X66164Y441343D01*
X48136Y441343D01*
G37*
%LPD*%
%LPC*%
G36*
X237933Y753871D02*
X237933Y753871D01*
X233171Y758633D01*
X233171Y765367D01*
X237148Y769344D01*
X237165Y769365D01*
X237186Y769382D01*
X237293Y769520D01*
X237403Y769656D01*
X237416Y769679D01*
X237432Y769700D01*
X237510Y769857D01*
X237592Y770011D01*
X237600Y770037D01*
X237612Y770061D01*
X237657Y770230D01*
X237707Y770397D01*
X237709Y770424D01*
X237716Y770450D01*
X237743Y770780D01*
X237743Y816835D01*
X237741Y816862D01*
X237743Y816889D01*
X237721Y817063D01*
X237703Y817236D01*
X237696Y817261D01*
X237692Y817288D01*
X237637Y817454D01*
X237585Y817621D01*
X237572Y817644D01*
X237564Y817670D01*
X237477Y817821D01*
X237393Y817975D01*
X237376Y817995D01*
X237363Y818019D01*
X237148Y818272D01*
X215022Y840398D01*
X215001Y840415D01*
X214983Y840436D01*
X214846Y840543D01*
X214710Y840653D01*
X214687Y840666D01*
X214665Y840682D01*
X214508Y840760D01*
X214354Y840842D01*
X214329Y840850D01*
X214305Y840862D01*
X214135Y840907D01*
X213969Y840957D01*
X213942Y840959D01*
X213916Y840966D01*
X213585Y840993D01*
X193086Y840993D01*
X193064Y840991D01*
X193042Y840993D01*
X192865Y840971D01*
X192686Y840953D01*
X192665Y840947D01*
X192642Y840944D01*
X192473Y840888D01*
X192301Y840835D01*
X192281Y840825D01*
X192260Y840818D01*
X192105Y840729D01*
X191947Y840643D01*
X191930Y840629D01*
X191910Y840618D01*
X191775Y840500D01*
X191638Y840386D01*
X191624Y840368D01*
X191607Y840354D01*
X191498Y840212D01*
X191385Y840072D01*
X191375Y840052D01*
X191361Y840034D01*
X191337Y839988D01*
X189009Y837659D01*
X186746Y836721D01*
X186021Y836421D01*
X169579Y836421D01*
X166591Y837659D01*
X164305Y839945D01*
X163067Y842933D01*
X163067Y846167D01*
X164305Y849155D01*
X166591Y851441D01*
X169579Y852679D01*
X186021Y852679D01*
X189009Y851441D01*
X191349Y849101D01*
X191400Y849006D01*
X191414Y848989D01*
X191425Y848969D01*
X191542Y848834D01*
X191656Y848695D01*
X191674Y848681D01*
X191688Y848664D01*
X191830Y848555D01*
X191969Y848442D01*
X191989Y848431D01*
X192006Y848418D01*
X192167Y848338D01*
X192326Y848255D01*
X192347Y848248D01*
X192367Y848238D01*
X192541Y848192D01*
X192712Y848142D01*
X192734Y848140D01*
X192756Y848134D01*
X193086Y848107D01*
X217373Y848107D01*
X244857Y820623D01*
X244857Y770780D01*
X244859Y770754D01*
X244857Y770727D01*
X244879Y770553D01*
X244897Y770380D01*
X244904Y770354D01*
X244908Y770328D01*
X244963Y770162D01*
X245015Y769995D01*
X245028Y769971D01*
X245036Y769946D01*
X245123Y769794D01*
X245207Y769641D01*
X245224Y769620D01*
X245237Y769597D01*
X245452Y769344D01*
X249429Y765367D01*
X249429Y758633D01*
X244667Y753871D01*
X237933Y753871D01*
G37*
%LPD*%
%LPC*%
G36*
X405344Y686843D02*
X405344Y686843D01*
X403394Y687651D01*
X401901Y689144D01*
X401093Y691094D01*
X401093Y693206D01*
X401901Y695156D01*
X402248Y695503D01*
X402265Y695524D01*
X402286Y695541D01*
X402393Y695679D01*
X402503Y695815D01*
X402516Y695838D01*
X402532Y695859D01*
X402610Y696016D01*
X402692Y696170D01*
X402700Y696196D01*
X402712Y696220D01*
X402757Y696389D01*
X402807Y696556D01*
X402809Y696583D01*
X402816Y696609D01*
X402843Y696940D01*
X402843Y753645D01*
X402843Y753649D01*
X402843Y753654D01*
X402823Y753844D01*
X402803Y754046D01*
X402802Y754050D01*
X402802Y754054D01*
X402743Y754242D01*
X402685Y754430D01*
X402683Y754434D01*
X402682Y754439D01*
X402586Y754613D01*
X402493Y754784D01*
X402491Y754788D01*
X402488Y754792D01*
X402360Y754945D01*
X402236Y755094D01*
X402232Y755096D01*
X402229Y755100D01*
X402074Y755223D01*
X401922Y755346D01*
X401918Y755348D01*
X401914Y755351D01*
X401736Y755443D01*
X401565Y755532D01*
X401560Y755533D01*
X401556Y755535D01*
X401363Y755590D01*
X401178Y755643D01*
X401173Y755643D01*
X401169Y755645D01*
X401081Y755651D01*
X401239Y755669D01*
X401243Y755671D01*
X401247Y755671D01*
X401433Y755732D01*
X401622Y755792D01*
X401626Y755795D01*
X401630Y755796D01*
X401802Y755893D01*
X401974Y755989D01*
X401977Y755992D01*
X401981Y755994D01*
X402129Y756122D01*
X402279Y756251D01*
X402282Y756254D01*
X402286Y756257D01*
X402406Y756412D01*
X402528Y756568D01*
X402530Y756572D01*
X402532Y756575D01*
X402620Y756751D01*
X402708Y756927D01*
X402710Y756932D01*
X402712Y756936D01*
X402763Y757127D01*
X402790Y757224D01*
X402810Y757295D01*
X402811Y757300D01*
X402815Y757316D01*
X402815Y757320D01*
X402816Y757324D01*
X402843Y757655D01*
X402843Y782523D01*
X414948Y794628D01*
X414965Y794649D01*
X414986Y794667D01*
X415093Y794804D01*
X415203Y794940D01*
X415216Y794963D01*
X415232Y794985D01*
X415310Y795142D01*
X415392Y795296D01*
X415400Y795321D01*
X415412Y795345D01*
X415457Y795515D01*
X415507Y795681D01*
X415509Y795708D01*
X415516Y795734D01*
X415543Y796065D01*
X415543Y796290D01*
X415541Y796308D01*
X415543Y796326D01*
X415522Y796508D01*
X415503Y796691D01*
X415498Y796708D01*
X415496Y796725D01*
X415439Y796900D01*
X415385Y797076D01*
X415377Y797091D01*
X415371Y797108D01*
X415281Y797268D01*
X415193Y797430D01*
X415182Y797443D01*
X415173Y797459D01*
X415053Y797598D01*
X414936Y797739D01*
X414922Y797750D01*
X414910Y797764D01*
X414765Y797876D01*
X414622Y797991D01*
X414606Y797999D01*
X414592Y798010D01*
X414427Y798092D01*
X414265Y798177D01*
X414248Y798182D01*
X414232Y798190D01*
X414053Y798237D01*
X413878Y798288D01*
X413860Y798290D01*
X413843Y798294D01*
X413512Y798321D01*
X410879Y798321D01*
X407891Y799559D01*
X405605Y801845D01*
X404367Y804833D01*
X404367Y808067D01*
X405605Y811055D01*
X407891Y813341D01*
X410879Y814579D01*
X427321Y814579D01*
X430309Y813341D01*
X432595Y811055D01*
X433833Y808067D01*
X433833Y804833D01*
X432595Y801845D01*
X430309Y799559D01*
X427321Y798321D01*
X424688Y798321D01*
X424670Y798319D01*
X424652Y798321D01*
X424470Y798300D01*
X424287Y798281D01*
X424270Y798276D01*
X424253Y798274D01*
X424078Y798217D01*
X423902Y798163D01*
X423887Y798155D01*
X423870Y798149D01*
X423710Y798059D01*
X423548Y797971D01*
X423535Y797960D01*
X423519Y797951D01*
X423380Y797831D01*
X423239Y797714D01*
X423228Y797700D01*
X423214Y797688D01*
X423102Y797543D01*
X422987Y797400D01*
X422979Y797384D01*
X422968Y797370D01*
X422886Y797205D01*
X422801Y797043D01*
X422796Y797026D01*
X422788Y797010D01*
X422741Y796831D01*
X422690Y796656D01*
X422688Y796638D01*
X422684Y796621D01*
X422657Y796290D01*
X422657Y792277D01*
X410552Y780172D01*
X410535Y780151D01*
X410514Y780133D01*
X410407Y779996D01*
X410297Y779860D01*
X410284Y779837D01*
X410268Y779815D01*
X410190Y779658D01*
X410108Y779504D01*
X410100Y779479D01*
X410088Y779455D01*
X410043Y779285D01*
X409993Y779119D01*
X409991Y779092D01*
X409984Y779066D01*
X409957Y778735D01*
X409957Y696940D01*
X409959Y696913D01*
X409957Y696886D01*
X409979Y696712D01*
X409997Y696539D01*
X410004Y696513D01*
X410008Y696487D01*
X410063Y696321D01*
X410115Y696154D01*
X410128Y696130D01*
X410136Y696105D01*
X410223Y695953D01*
X410307Y695800D01*
X410324Y695779D01*
X410337Y695756D01*
X410552Y695503D01*
X410899Y695156D01*
X411707Y693206D01*
X411707Y691094D01*
X410899Y689144D01*
X409406Y687651D01*
X407456Y686843D01*
X405344Y686843D01*
G37*
%LPD*%
%LPC*%
G36*
X392644Y750343D02*
X392644Y750343D01*
X390694Y751151D01*
X389201Y752644D01*
X388393Y754594D01*
X388393Y756706D01*
X389201Y758656D01*
X389548Y759003D01*
X389565Y759024D01*
X389586Y759041D01*
X389693Y759179D01*
X389803Y759315D01*
X389816Y759338D01*
X389832Y759359D01*
X389910Y759516D01*
X389992Y759670D01*
X390000Y759696D01*
X390012Y759720D01*
X390057Y759889D01*
X390107Y760056D01*
X390109Y760083D01*
X390116Y760109D01*
X390143Y760440D01*
X390143Y842235D01*
X390141Y842262D01*
X390143Y842289D01*
X390121Y842463D01*
X390103Y842636D01*
X390096Y842661D01*
X390092Y842688D01*
X390037Y842854D01*
X389985Y843021D01*
X389972Y843045D01*
X389964Y843070D01*
X389877Y843221D01*
X389793Y843375D01*
X389776Y843395D01*
X389763Y843419D01*
X389548Y843672D01*
X382621Y850599D01*
X382607Y850610D01*
X382596Y850624D01*
X382452Y850738D01*
X382310Y850854D01*
X382294Y850862D01*
X382280Y850873D01*
X382116Y850957D01*
X381954Y851043D01*
X381937Y851048D01*
X381921Y851056D01*
X381744Y851105D01*
X381568Y851157D01*
X381550Y851159D01*
X381533Y851164D01*
X381350Y851177D01*
X381167Y851194D01*
X381149Y851192D01*
X381132Y851193D01*
X380950Y851170D01*
X380767Y851150D01*
X380750Y851145D01*
X380732Y851143D01*
X380559Y851084D01*
X380383Y851029D01*
X380367Y851020D01*
X380350Y851014D01*
X380191Y850922D01*
X380031Y850834D01*
X380017Y850822D01*
X380002Y850813D01*
X379749Y850599D01*
X379509Y850359D01*
X376521Y849121D01*
X360079Y849121D01*
X357091Y850359D01*
X354805Y852645D01*
X353567Y855633D01*
X353567Y858867D01*
X354805Y861855D01*
X357091Y864141D01*
X360079Y865379D01*
X376521Y865379D01*
X379509Y864141D01*
X381795Y861855D01*
X381902Y861597D01*
X381917Y861569D01*
X381927Y861539D01*
X382012Y861392D01*
X382092Y861242D01*
X382112Y861218D01*
X382128Y861191D01*
X382342Y860938D01*
X397257Y846023D01*
X397257Y760440D01*
X397259Y760413D01*
X397257Y760386D01*
X397279Y760212D01*
X397297Y760039D01*
X397304Y760013D01*
X397308Y759987D01*
X397363Y759821D01*
X397415Y759654D01*
X397428Y759630D01*
X397436Y759605D01*
X397523Y759453D01*
X397607Y759300D01*
X397624Y759279D01*
X397637Y759256D01*
X397852Y759003D01*
X398199Y758656D01*
X398935Y756878D01*
X398938Y756874D01*
X398939Y756870D01*
X398946Y756856D01*
X398951Y756843D01*
X399023Y756715D01*
X399032Y756698D01*
X399126Y756523D01*
X399128Y756519D01*
X399131Y756516D01*
X399145Y756499D01*
X399148Y756492D01*
X399201Y756432D01*
X399256Y756365D01*
X399382Y756213D01*
X399385Y756210D01*
X399388Y756206D01*
X399411Y756188D01*
X399412Y756187D01*
X399424Y756177D01*
X399541Y756083D01*
X399695Y755959D01*
X399699Y755957D01*
X399702Y755954D01*
X399875Y755864D01*
X400051Y755772D01*
X400055Y755770D01*
X400059Y755768D01*
X400247Y755714D01*
X400438Y755659D01*
X400442Y755658D01*
X400446Y755657D01*
X400546Y755649D01*
X400377Y755629D01*
X400372Y755628D01*
X400368Y755627D01*
X400183Y755566D01*
X399994Y755504D01*
X399990Y755502D01*
X399986Y755500D01*
X399816Y755404D01*
X399643Y755306D01*
X399640Y755303D01*
X399636Y755301D01*
X399489Y755173D01*
X399339Y755043D01*
X399336Y755039D01*
X399332Y755037D01*
X399212Y754880D01*
X399092Y754725D01*
X399090Y754721D01*
X399087Y754717D01*
X398935Y754422D01*
X398199Y752644D01*
X396706Y751151D01*
X394756Y750343D01*
X392644Y750343D01*
G37*
%LPD*%
%LPC*%
G36*
X360079Y798321D02*
X360079Y798321D01*
X357091Y799559D01*
X354805Y801845D01*
X353567Y804833D01*
X353567Y808067D01*
X354805Y811055D01*
X357091Y813341D01*
X360079Y814579D01*
X376521Y814579D01*
X379509Y813341D01*
X381795Y811055D01*
X383033Y808067D01*
X383033Y804833D01*
X381795Y801845D01*
X379509Y799559D01*
X376521Y798321D01*
X360079Y798321D01*
G37*
%LPD*%
%LPC*%
G36*
X169579Y811021D02*
X169579Y811021D01*
X166591Y812259D01*
X164305Y814545D01*
X163067Y817533D01*
X163067Y820767D01*
X164305Y823755D01*
X166591Y826041D01*
X169579Y827279D01*
X186021Y827279D01*
X189009Y826041D01*
X191295Y823755D01*
X192533Y820767D01*
X192533Y817533D01*
X191295Y814545D01*
X189009Y812259D01*
X186021Y811021D01*
X169579Y811021D01*
G37*
%LPD*%
%LPC*%
G36*
X118779Y811021D02*
X118779Y811021D01*
X115791Y812259D01*
X113505Y814545D01*
X112267Y817533D01*
X112267Y820767D01*
X113505Y823755D01*
X115791Y826041D01*
X118779Y827279D01*
X135221Y827279D01*
X138209Y826041D01*
X140495Y823755D01*
X141733Y820767D01*
X141733Y817533D01*
X140495Y814545D01*
X138209Y812259D01*
X135221Y811021D01*
X118779Y811021D01*
G37*
%LPD*%
%LPC*%
G36*
X360079Y468121D02*
X360079Y468121D01*
X357091Y469359D01*
X354805Y471645D01*
X353567Y474633D01*
X353567Y477867D01*
X354805Y480855D01*
X357091Y483141D01*
X360079Y484379D01*
X376521Y484379D01*
X379509Y483141D01*
X381795Y480855D01*
X383033Y477867D01*
X383033Y474633D01*
X381795Y471645D01*
X379509Y469359D01*
X376521Y468121D01*
X360079Y468121D01*
G37*
%LPD*%
%LPC*%
G36*
X410879Y442721D02*
X410879Y442721D01*
X407891Y443959D01*
X405605Y446245D01*
X404367Y449233D01*
X404367Y452467D01*
X405605Y455455D01*
X407891Y457741D01*
X410879Y458979D01*
X427321Y458979D01*
X430309Y457741D01*
X432595Y455455D01*
X433833Y452467D01*
X433833Y449233D01*
X432595Y446245D01*
X430309Y443959D01*
X427321Y442721D01*
X410879Y442721D01*
G37*
%LPD*%
%LPC*%
G36*
X410879Y468121D02*
X410879Y468121D01*
X407891Y469359D01*
X405605Y471645D01*
X404367Y474633D01*
X404367Y477867D01*
X405605Y480855D01*
X407891Y483141D01*
X410879Y484379D01*
X427321Y484379D01*
X430309Y483141D01*
X432595Y480855D01*
X433833Y477867D01*
X433833Y474633D01*
X432595Y471645D01*
X430309Y469359D01*
X427321Y468121D01*
X410879Y468121D01*
G37*
%LPD*%
%LPC*%
G36*
X360079Y442721D02*
X360079Y442721D01*
X357091Y443959D01*
X354805Y446245D01*
X353567Y449233D01*
X353567Y452467D01*
X354805Y455455D01*
X357091Y457741D01*
X360079Y458979D01*
X376521Y458979D01*
X379509Y457741D01*
X381795Y455455D01*
X383033Y452467D01*
X383033Y449233D01*
X381795Y446245D01*
X379509Y443959D01*
X376521Y442721D01*
X360079Y442721D01*
G37*
%LPD*%
%LPC*%
G36*
X309279Y684021D02*
X309279Y684021D01*
X306291Y685259D01*
X304005Y687545D01*
X302767Y690533D01*
X302767Y693767D01*
X304005Y696755D01*
X306291Y699041D01*
X309279Y700279D01*
X325721Y700279D01*
X328709Y699041D01*
X330995Y696755D01*
X332233Y693767D01*
X332233Y690533D01*
X330995Y687545D01*
X328709Y685259D01*
X325721Y684021D01*
X309279Y684021D01*
G37*
%LPD*%
%LPC*%
G36*
X309279Y709421D02*
X309279Y709421D01*
X306291Y710659D01*
X304005Y712945D01*
X302767Y715933D01*
X302767Y719167D01*
X304005Y722155D01*
X306291Y724441D01*
X309279Y725679D01*
X325721Y725679D01*
X328709Y724441D01*
X330995Y722155D01*
X332233Y719167D01*
X332233Y715933D01*
X330995Y712945D01*
X328709Y710659D01*
X325721Y709421D01*
X309279Y709421D01*
G37*
%LPD*%
%LPC*%
G36*
X233079Y684021D02*
X233079Y684021D01*
X230091Y685259D01*
X227805Y687545D01*
X226567Y690533D01*
X226567Y693767D01*
X227805Y696755D01*
X230091Y699041D01*
X233079Y700279D01*
X249521Y700279D01*
X252509Y699041D01*
X254795Y696755D01*
X256033Y693767D01*
X256033Y690533D01*
X254795Y687545D01*
X252509Y685259D01*
X249521Y684021D01*
X233079Y684021D01*
G37*
%LPD*%
%LPC*%
G36*
X410879Y849121D02*
X410879Y849121D01*
X407891Y850359D01*
X405605Y852645D01*
X404367Y855633D01*
X404367Y858867D01*
X405605Y861855D01*
X407891Y864141D01*
X410879Y865379D01*
X427321Y865379D01*
X430309Y864141D01*
X432595Y861855D01*
X433833Y858867D01*
X433833Y855633D01*
X432595Y852645D01*
X430309Y850359D01*
X427321Y849121D01*
X410879Y849121D01*
G37*
%LPD*%
%LPC*%
G36*
X233079Y582421D02*
X233079Y582421D01*
X230091Y583659D01*
X227805Y585945D01*
X226567Y588933D01*
X226567Y592167D01*
X227805Y595155D01*
X230091Y597441D01*
X233079Y598679D01*
X249521Y598679D01*
X252509Y597441D01*
X254795Y595155D01*
X256033Y592167D01*
X256033Y588933D01*
X254795Y585945D01*
X252509Y583659D01*
X249521Y582421D01*
X233079Y582421D01*
G37*
%LPD*%
%LPC*%
G36*
X309279Y582421D02*
X309279Y582421D01*
X306291Y583659D01*
X304005Y585945D01*
X302767Y588933D01*
X302767Y592167D01*
X304005Y595155D01*
X306291Y597441D01*
X309279Y598679D01*
X325721Y598679D01*
X328709Y597441D01*
X330995Y595155D01*
X332233Y592167D01*
X332233Y588933D01*
X330995Y585945D01*
X328709Y583659D01*
X325721Y582421D01*
X309279Y582421D01*
G37*
%LPD*%
%LPC*%
G36*
X309279Y633221D02*
X309279Y633221D01*
X306291Y634459D01*
X304005Y636745D01*
X302767Y639733D01*
X302767Y642967D01*
X304005Y645955D01*
X306291Y648241D01*
X309279Y649479D01*
X325721Y649479D01*
X328709Y648241D01*
X330995Y645955D01*
X332233Y642967D01*
X332233Y639733D01*
X330995Y636745D01*
X328709Y634459D01*
X325721Y633221D01*
X309279Y633221D01*
G37*
%LPD*%
%LPC*%
G36*
X233079Y709421D02*
X233079Y709421D01*
X230091Y710659D01*
X227805Y712945D01*
X226567Y715933D01*
X226567Y719167D01*
X227805Y722155D01*
X230091Y724441D01*
X233079Y725679D01*
X249521Y725679D01*
X252509Y724441D01*
X254795Y722155D01*
X256033Y719167D01*
X256033Y715933D01*
X254795Y712945D01*
X252509Y710659D01*
X249521Y709421D01*
X233079Y709421D01*
G37*
%LPD*%
%LPC*%
G36*
X360079Y823721D02*
X360079Y823721D01*
X357091Y824959D01*
X354805Y827245D01*
X353567Y830233D01*
X353567Y833467D01*
X354805Y836455D01*
X357091Y838741D01*
X357882Y839069D01*
X360079Y839979D01*
X376521Y839979D01*
X379509Y838741D01*
X381795Y836455D01*
X383033Y833467D01*
X383033Y830233D01*
X381795Y827245D01*
X379509Y824959D01*
X376521Y823721D01*
X360079Y823721D01*
G37*
%LPD*%
%LPC*%
G36*
X118779Y836421D02*
X118779Y836421D01*
X115791Y837659D01*
X113505Y839945D01*
X112267Y842933D01*
X112267Y846167D01*
X113505Y849155D01*
X115791Y851441D01*
X118779Y852679D01*
X135221Y852679D01*
X138209Y851441D01*
X140495Y849155D01*
X141733Y846167D01*
X141733Y842933D01*
X140495Y839945D01*
X138209Y837659D01*
X135946Y836721D01*
X135221Y836421D01*
X118779Y836421D01*
G37*
%LPD*%
%LPC*%
G36*
X309279Y557021D02*
X309279Y557021D01*
X306291Y558259D01*
X304005Y560545D01*
X302767Y563533D01*
X302767Y566767D01*
X304005Y569755D01*
X306291Y572041D01*
X308546Y572975D01*
X309279Y573279D01*
X325721Y573279D01*
X328709Y572041D01*
X330995Y569755D01*
X332233Y566767D01*
X332233Y563533D01*
X330995Y560545D01*
X328709Y558259D01*
X325721Y557021D01*
X309279Y557021D01*
G37*
%LPD*%
%LPC*%
G36*
X233079Y557021D02*
X233079Y557021D01*
X230091Y558259D01*
X227805Y560545D01*
X226567Y563533D01*
X226567Y566767D01*
X227805Y569755D01*
X230091Y572041D01*
X232346Y572975D01*
X233079Y573279D01*
X249521Y573279D01*
X252509Y572041D01*
X254795Y569755D01*
X256033Y566767D01*
X256033Y563533D01*
X254795Y560545D01*
X252509Y558259D01*
X249521Y557021D01*
X233079Y557021D01*
G37*
%LPD*%
%LPC*%
G36*
X48136Y657243D02*
X48136Y657243D01*
X47243Y658136D01*
X47243Y676164D01*
X48136Y677057D01*
X66164Y677057D01*
X67057Y676164D01*
X67057Y658136D01*
X66164Y657243D01*
X48136Y657243D01*
G37*
%LPD*%
%LPC*%
G36*
X21063Y48513D02*
X21063Y48513D01*
X21063Y77009D01*
X22728Y76563D01*
X24881Y75671D01*
X26900Y74506D01*
X28749Y73087D01*
X30397Y71439D01*
X31816Y69590D01*
X32981Y67571D01*
X33873Y65418D01*
X34476Y63166D01*
X34781Y60855D01*
X34781Y48513D01*
X21063Y48513D01*
G37*
%LPD*%
%LPC*%
G36*
X21063Y239013D02*
X21063Y239013D01*
X21063Y267509D01*
X22728Y267063D01*
X24881Y266171D01*
X26900Y265006D01*
X28749Y263587D01*
X30397Y261939D01*
X31816Y260090D01*
X32981Y258071D01*
X33873Y255918D01*
X34476Y253666D01*
X34781Y251355D01*
X34781Y239013D01*
X21063Y239013D01*
G37*
%LPD*%
%LPC*%
G36*
X21063Y230887D02*
X21063Y230887D01*
X34781Y230887D01*
X34781Y218545D01*
X34476Y216234D01*
X33873Y213982D01*
X32981Y211829D01*
X31816Y209810D01*
X30397Y207961D01*
X28749Y206313D01*
X26900Y204894D01*
X24881Y203729D01*
X22728Y202837D01*
X21063Y202391D01*
X21063Y230887D01*
G37*
%LPD*%
%LPC*%
G36*
X53047Y466343D02*
X53047Y466343D01*
X47243Y472147D01*
X47243Y480353D01*
X53047Y486157D01*
X61253Y486157D01*
X67057Y480353D01*
X67057Y472147D01*
X61253Y466343D01*
X53047Y466343D01*
G37*
%LPD*%
%LPC*%
G36*
X188605Y555624D02*
X188605Y555624D01*
X185104Y557074D01*
X182424Y559754D01*
X180974Y563255D01*
X180974Y567045D01*
X182424Y570546D01*
X185104Y573226D01*
X188605Y574676D01*
X192395Y574676D01*
X195896Y573226D01*
X198576Y570546D01*
X200026Y567045D01*
X200026Y563255D01*
X198576Y559754D01*
X195896Y557074D01*
X192395Y555624D01*
X188605Y555624D01*
G37*
%LPD*%
%LPC*%
G36*
X199833Y709421D02*
X199833Y709421D01*
X195071Y714183D01*
X195071Y720917D01*
X199833Y725679D01*
X206567Y725679D01*
X211329Y720917D01*
X211329Y714183D01*
X206567Y709421D01*
X199833Y709421D01*
G37*
%LPD*%
%LPC*%
G36*
X377633Y709421D02*
X377633Y709421D01*
X372871Y714183D01*
X372871Y720917D01*
X377633Y725679D01*
X384367Y725679D01*
X389129Y720917D01*
X389129Y714183D01*
X384367Y709421D01*
X377633Y709421D01*
G37*
%LPD*%
%LPC*%
G36*
X199833Y684021D02*
X199833Y684021D01*
X195071Y688783D01*
X195071Y695517D01*
X199833Y700279D01*
X206567Y700279D01*
X211329Y695517D01*
X211329Y688783D01*
X206567Y684021D01*
X199833Y684021D01*
G37*
%LPD*%
%LPC*%
G36*
X174433Y684021D02*
X174433Y684021D01*
X169671Y688783D01*
X169671Y695517D01*
X174433Y700279D01*
X181167Y700279D01*
X185929Y695517D01*
X185929Y688783D01*
X181167Y684021D01*
X174433Y684021D01*
G37*
%LPD*%
%LPC*%
G36*
X110933Y734821D02*
X110933Y734821D01*
X106171Y739583D01*
X106171Y746317D01*
X110933Y751079D01*
X117667Y751079D01*
X122429Y746317D01*
X122429Y739583D01*
X117667Y734821D01*
X110933Y734821D01*
G37*
%LPD*%
%LPC*%
G36*
X352233Y709421D02*
X352233Y709421D01*
X347471Y714183D01*
X347471Y720917D01*
X352233Y725679D01*
X358967Y725679D01*
X363729Y720917D01*
X363729Y714183D01*
X358967Y709421D01*
X352233Y709421D01*
G37*
%LPD*%
%LPC*%
G36*
X174433Y709421D02*
X174433Y709421D01*
X169671Y714183D01*
X169671Y720917D01*
X174433Y725679D01*
X181167Y725679D01*
X185929Y720917D01*
X185929Y714183D01*
X181167Y709421D01*
X174433Y709421D01*
G37*
%LPD*%
%LPC*%
G36*
X187133Y785621D02*
X187133Y785621D01*
X182371Y790383D01*
X182371Y797117D01*
X187133Y801879D01*
X193867Y801879D01*
X198629Y797117D01*
X198629Y790383D01*
X193867Y785621D01*
X187133Y785621D01*
G37*
%LPD*%
%LPC*%
G36*
X377633Y684021D02*
X377633Y684021D01*
X372871Y688783D01*
X372871Y695517D01*
X377633Y700279D01*
X384367Y700279D01*
X389129Y695517D01*
X389129Y688783D01*
X384367Y684021D01*
X377633Y684021D01*
G37*
%LPD*%
%LPC*%
G36*
X110933Y785621D02*
X110933Y785621D01*
X106171Y790383D01*
X106171Y797117D01*
X110933Y801879D01*
X117667Y801879D01*
X122429Y797117D01*
X122429Y790383D01*
X117667Y785621D01*
X110933Y785621D01*
G37*
%LPD*%
%LPC*%
G36*
X428433Y493521D02*
X428433Y493521D01*
X423671Y498283D01*
X423671Y505017D01*
X428433Y509779D01*
X435167Y509779D01*
X439929Y505017D01*
X439929Y498283D01*
X435167Y493521D01*
X428433Y493521D01*
G37*
%LPD*%
%LPC*%
G36*
X428433Y518921D02*
X428433Y518921D01*
X423671Y523683D01*
X423671Y530417D01*
X428433Y535179D01*
X435167Y535179D01*
X439929Y530417D01*
X439929Y523683D01*
X435167Y518921D01*
X428433Y518921D01*
G37*
%LPD*%
%LPC*%
G36*
X428433Y772921D02*
X428433Y772921D01*
X423671Y777683D01*
X423671Y784417D01*
X428433Y789179D01*
X435167Y789179D01*
X439929Y784417D01*
X439929Y777683D01*
X435167Y772921D01*
X428433Y772921D01*
G37*
%LPD*%
%LPC*%
G36*
X352233Y772921D02*
X352233Y772921D01*
X347471Y777683D01*
X347471Y784417D01*
X352233Y789179D01*
X358967Y789179D01*
X363729Y784417D01*
X363729Y777683D01*
X358967Y772921D01*
X352233Y772921D01*
G37*
%LPD*%
%LPC*%
G36*
X352233Y557021D02*
X352233Y557021D01*
X347471Y561783D01*
X347471Y568517D01*
X352233Y573279D01*
X358967Y573279D01*
X363729Y568517D01*
X363729Y561783D01*
X358967Y557021D01*
X352233Y557021D01*
G37*
%LPD*%
%LPC*%
G36*
X352233Y684021D02*
X352233Y684021D01*
X347471Y688783D01*
X347471Y695517D01*
X352233Y700279D01*
X358967Y700279D01*
X363729Y695517D01*
X363729Y688783D01*
X358967Y684021D01*
X352233Y684021D01*
G37*
%LPD*%
%LPC*%
G36*
X110933Y760221D02*
X110933Y760221D01*
X106171Y764983D01*
X106171Y771717D01*
X110933Y776479D01*
X117667Y776479D01*
X122429Y771717D01*
X122429Y764983D01*
X117667Y760221D01*
X110933Y760221D01*
G37*
%LPD*%
%LPC*%
G36*
X187133Y734821D02*
X187133Y734821D01*
X182371Y739583D01*
X182371Y746317D01*
X187133Y751079D01*
X193867Y751079D01*
X198629Y746317D01*
X198629Y739583D01*
X193867Y734821D01*
X187133Y734821D01*
G37*
%LPD*%
%LPC*%
G36*
X352233Y633221D02*
X352233Y633221D01*
X347471Y637983D01*
X347471Y644717D01*
X352233Y649479D01*
X358967Y649479D01*
X363729Y644717D01*
X363729Y637983D01*
X358967Y633221D01*
X352233Y633221D01*
G37*
%LPD*%
%LPC*%
G36*
X314133Y753871D02*
X314133Y753871D01*
X309371Y758633D01*
X309371Y765367D01*
X314133Y770129D01*
X320867Y770129D01*
X325629Y765367D01*
X325629Y758633D01*
X320867Y753871D01*
X314133Y753871D01*
G37*
%LPD*%
%LPC*%
G36*
X428433Y747521D02*
X428433Y747521D01*
X423671Y752283D01*
X423671Y759017D01*
X428433Y763779D01*
X435167Y763779D01*
X439929Y759017D01*
X439929Y752283D01*
X435167Y747521D01*
X428433Y747521D01*
G37*
%LPD*%
%LPC*%
G36*
X377633Y582421D02*
X377633Y582421D01*
X372871Y587183D01*
X372871Y593917D01*
X377633Y598679D01*
X384367Y598679D01*
X389129Y593917D01*
X389129Y587183D01*
X384367Y582421D01*
X377633Y582421D01*
G37*
%LPD*%
%LPC*%
G36*
X352233Y582421D02*
X352233Y582421D01*
X347471Y587183D01*
X347471Y593917D01*
X352233Y598679D01*
X358967Y598679D01*
X363729Y593917D01*
X363729Y587183D01*
X358967Y582421D01*
X352233Y582421D01*
G37*
%LPD*%
%LPC*%
G36*
X98233Y709421D02*
X98233Y709421D01*
X93471Y714183D01*
X93471Y720917D01*
X98233Y725679D01*
X104967Y725679D01*
X109729Y720917D01*
X109729Y714183D01*
X104967Y709421D01*
X98233Y709421D01*
G37*
%LPD*%
%LPC*%
G36*
X319531Y617981D02*
X319531Y617981D01*
X319531Y625095D01*
X324824Y625095D01*
X326245Y624870D01*
X327614Y624425D01*
X328897Y623771D01*
X330061Y622925D01*
X331079Y621907D01*
X331925Y620743D01*
X332579Y619460D01*
X333024Y618091D01*
X333041Y617981D01*
X319531Y617981D01*
G37*
%LPD*%
%LPC*%
G36*
X243331Y668781D02*
X243331Y668781D01*
X243331Y675895D01*
X248624Y675895D01*
X250045Y675670D01*
X251414Y675225D01*
X252697Y674571D01*
X253861Y673725D01*
X254879Y672707D01*
X255725Y671543D01*
X256379Y670260D01*
X256824Y668891D01*
X256841Y668781D01*
X243331Y668781D01*
G37*
%LPD*%
%LPC*%
G36*
X319531Y668781D02*
X319531Y668781D01*
X319531Y675895D01*
X324824Y675895D01*
X326245Y675670D01*
X327614Y675225D01*
X328897Y674571D01*
X330061Y673725D01*
X331079Y672707D01*
X331925Y671543D01*
X332579Y670260D01*
X333024Y668891D01*
X333041Y668781D01*
X319531Y668781D01*
G37*
%LPD*%
%LPC*%
G36*
X225759Y668781D02*
X225759Y668781D01*
X225776Y668891D01*
X226221Y670260D01*
X226875Y671543D01*
X227721Y672707D01*
X228739Y673725D01*
X229903Y674571D01*
X231186Y675225D01*
X232555Y675670D01*
X233976Y675895D01*
X239269Y675895D01*
X239269Y668781D01*
X225759Y668781D01*
G37*
%LPD*%
%LPC*%
G36*
X301959Y617981D02*
X301959Y617981D01*
X301976Y618091D01*
X302421Y619460D01*
X303075Y620743D01*
X303921Y621907D01*
X304939Y622925D01*
X306103Y623771D01*
X307386Y624425D01*
X308755Y624870D01*
X310176Y625095D01*
X315469Y625095D01*
X315469Y617981D01*
X301959Y617981D01*
G37*
%LPD*%
%LPC*%
G36*
X301959Y668781D02*
X301959Y668781D01*
X301976Y668891D01*
X302421Y670260D01*
X303075Y671543D01*
X303921Y672707D01*
X304939Y673725D01*
X306103Y674571D01*
X307386Y675225D01*
X308755Y675670D01*
X310176Y675895D01*
X315469Y675895D01*
X315469Y668781D01*
X301959Y668781D01*
G37*
%LPD*%
%LPC*%
G36*
X243331Y657605D02*
X243331Y657605D01*
X243331Y664719D01*
X256841Y664719D01*
X256824Y664609D01*
X256379Y663240D01*
X255725Y661957D01*
X254879Y660793D01*
X253861Y659775D01*
X252697Y658929D01*
X251414Y658275D01*
X250045Y657830D01*
X248624Y657605D01*
X243331Y657605D01*
G37*
%LPD*%
%LPC*%
G36*
X319531Y606805D02*
X319531Y606805D01*
X319531Y613919D01*
X333041Y613919D01*
X333024Y613809D01*
X332579Y612440D01*
X331925Y611157D01*
X331079Y609993D01*
X330061Y608975D01*
X328897Y608129D01*
X327614Y607475D01*
X326245Y607030D01*
X324824Y606805D01*
X319531Y606805D01*
G37*
%LPD*%
%LPC*%
G36*
X319531Y657605D02*
X319531Y657605D01*
X319531Y664719D01*
X333041Y664719D01*
X333024Y664609D01*
X332579Y663240D01*
X331925Y661957D01*
X331079Y660793D01*
X330061Y659775D01*
X328897Y658929D01*
X327614Y658275D01*
X326245Y657830D01*
X324824Y657605D01*
X319531Y657605D01*
G37*
%LPD*%
%LPC*%
G36*
X310176Y657605D02*
X310176Y657605D01*
X308755Y657830D01*
X307386Y658275D01*
X306103Y658929D01*
X304939Y659775D01*
X303921Y660793D01*
X303075Y661957D01*
X302421Y663240D01*
X301976Y664609D01*
X301959Y664719D01*
X315469Y664719D01*
X315469Y657605D01*
X310176Y657605D01*
G37*
%LPD*%
%LPC*%
G36*
X233976Y657605D02*
X233976Y657605D01*
X232555Y657830D01*
X231186Y658275D01*
X229903Y658929D01*
X228739Y659775D01*
X227721Y660793D01*
X226875Y661957D01*
X226221Y663240D01*
X225776Y664609D01*
X225759Y664719D01*
X239269Y664719D01*
X239269Y657605D01*
X233976Y657605D01*
G37*
%LPD*%
%LPC*%
G36*
X310176Y606805D02*
X310176Y606805D01*
X308755Y607030D01*
X307386Y607475D01*
X306103Y608129D01*
X304939Y608975D01*
X303921Y609993D01*
X303075Y611157D01*
X302421Y612440D01*
X301976Y613809D01*
X301959Y613919D01*
X315469Y613919D01*
X315469Y606805D01*
X310176Y606805D01*
G37*
%LPD*%
%LPC*%
G36*
X357631Y376681D02*
X357631Y376681D01*
X357631Y385192D01*
X359967Y385192D01*
X366142Y379017D01*
X366142Y376681D01*
X357631Y376681D01*
G37*
%LPD*%
%LPC*%
G36*
X357631Y364108D02*
X357631Y364108D01*
X357631Y372619D01*
X366142Y372619D01*
X366142Y370283D01*
X359967Y364108D01*
X357631Y364108D01*
G37*
%LPD*%
%LPC*%
G36*
X345058Y376681D02*
X345058Y376681D01*
X345058Y379017D01*
X351233Y385192D01*
X353569Y385192D01*
X353569Y376681D01*
X345058Y376681D01*
G37*
%LPD*%
%LPC*%
G36*
X351233Y364108D02*
X351233Y364108D01*
X345058Y370283D01*
X345058Y372619D01*
X353569Y372619D01*
X353569Y364108D01*
X351233Y364108D01*
G37*
%LPD*%
%LPC*%
G36*
X243331Y414781D02*
X243331Y414781D01*
X243331Y423101D01*
X243769Y423032D01*
X245347Y422519D01*
X246825Y421766D01*
X248167Y420791D01*
X249341Y419617D01*
X250316Y418275D01*
X251069Y416797D01*
X251582Y415219D01*
X251651Y414781D01*
X243331Y414781D01*
G37*
%LPD*%
%LPC*%
G36*
X243331Y410719D02*
X243331Y410719D01*
X251651Y410719D01*
X251582Y410281D01*
X251069Y408703D01*
X250316Y407225D01*
X249341Y405883D01*
X248167Y404709D01*
X246825Y403734D01*
X245347Y402981D01*
X243769Y402468D01*
X243331Y402399D01*
X243331Y410719D01*
G37*
%LPD*%
%LPC*%
G36*
X230949Y414781D02*
X230949Y414781D01*
X231018Y415219D01*
X231531Y416797D01*
X232284Y418275D01*
X233259Y419617D01*
X234433Y420791D01*
X235775Y421766D01*
X237253Y422519D01*
X238831Y423032D01*
X239269Y423101D01*
X239269Y414781D01*
X230949Y414781D01*
G37*
%LPD*%
%LPC*%
G36*
X238831Y402468D02*
X238831Y402468D01*
X237253Y402981D01*
X235775Y403734D01*
X234433Y404709D01*
X233259Y405883D01*
X232284Y407225D01*
X231531Y408703D01*
X231018Y410281D01*
X230949Y410719D01*
X239269Y410719D01*
X239269Y402399D01*
X238831Y402468D01*
G37*
%LPD*%
%LPC*%
G36*
X59899Y503999D02*
X59899Y503999D01*
X59899Y512173D01*
X61674Y512173D01*
X68073Y505774D01*
X68073Y503999D01*
X59899Y503999D01*
G37*
%LPD*%
%LPC*%
G36*
X59899Y935799D02*
X59899Y935799D01*
X59899Y943973D01*
X61674Y943973D01*
X68073Y937574D01*
X68073Y935799D01*
X59899Y935799D01*
G37*
%LPD*%
%LPC*%
G36*
X59899Y922127D02*
X59899Y922127D01*
X59899Y930301D01*
X68073Y930301D01*
X68073Y928526D01*
X61674Y922127D01*
X59899Y922127D01*
G37*
%LPD*%
%LPC*%
G36*
X46227Y935799D02*
X46227Y935799D01*
X46227Y937574D01*
X52626Y943973D01*
X54401Y943973D01*
X54401Y935799D01*
X46227Y935799D01*
G37*
%LPD*%
%LPC*%
G36*
X46227Y503999D02*
X46227Y503999D01*
X46227Y505774D01*
X52626Y512173D01*
X54401Y512173D01*
X54401Y503999D01*
X46227Y503999D01*
G37*
%LPD*%
%LPC*%
G36*
X59899Y490327D02*
X59899Y490327D01*
X59899Y498501D01*
X68073Y498501D01*
X68073Y496726D01*
X61674Y490327D01*
X59899Y490327D01*
G37*
%LPD*%
%LPC*%
G36*
X52626Y490327D02*
X52626Y490327D01*
X46227Y496726D01*
X46227Y498501D01*
X54401Y498501D01*
X54401Y490327D01*
X52626Y490327D01*
G37*
%LPD*%
%LPC*%
G36*
X52626Y922127D02*
X52626Y922127D01*
X46227Y928526D01*
X46227Y930301D01*
X54401Y930301D01*
X54401Y922127D01*
X52626Y922127D01*
G37*
%LPD*%
%LPC*%
G36*
X332485Y237235D02*
X332485Y237235D01*
X332485Y244603D01*
X334198Y244603D01*
X339853Y238948D01*
X339853Y237235D01*
X332485Y237235D01*
G37*
%LPD*%
%LPC*%
G36*
X357885Y211835D02*
X357885Y211835D01*
X357885Y219203D01*
X359598Y219203D01*
X365253Y213548D01*
X365253Y211835D01*
X357885Y211835D01*
G37*
%LPD*%
%LPC*%
G36*
X357885Y237235D02*
X357885Y237235D01*
X357885Y244603D01*
X359598Y244603D01*
X365253Y238948D01*
X365253Y237235D01*
X357885Y237235D01*
G37*
%LPD*%
%LPC*%
G36*
X332485Y211835D02*
X332485Y211835D01*
X332485Y219203D01*
X334198Y219203D01*
X339853Y213548D01*
X339853Y211835D01*
X332485Y211835D01*
G37*
%LPD*%
%LPC*%
G36*
X357885Y262635D02*
X357885Y262635D01*
X357885Y270003D01*
X359598Y270003D01*
X365253Y264348D01*
X365253Y262635D01*
X357885Y262635D01*
G37*
%LPD*%
%LPC*%
G36*
X332485Y262635D02*
X332485Y262635D01*
X332485Y270003D01*
X334198Y270003D01*
X339853Y264348D01*
X339853Y262635D01*
X332485Y262635D01*
G37*
%LPD*%
%LPC*%
G36*
X345947Y262635D02*
X345947Y262635D01*
X345947Y264348D01*
X351602Y270003D01*
X353315Y270003D01*
X353315Y262635D01*
X345947Y262635D01*
G37*
%LPD*%
%LPC*%
G36*
X320547Y262635D02*
X320547Y262635D01*
X320547Y264348D01*
X326202Y270003D01*
X327915Y270003D01*
X327915Y262635D01*
X320547Y262635D01*
G37*
%LPD*%
%LPC*%
G36*
X345947Y211835D02*
X345947Y211835D01*
X345947Y213548D01*
X351602Y219203D01*
X353315Y219203D01*
X353315Y211835D01*
X345947Y211835D01*
G37*
%LPD*%
%LPC*%
G36*
X320547Y211835D02*
X320547Y211835D01*
X320547Y213548D01*
X326202Y219203D01*
X327915Y219203D01*
X327915Y211835D01*
X320547Y211835D01*
G37*
%LPD*%
%LPC*%
G36*
X357885Y250697D02*
X357885Y250697D01*
X357885Y258065D01*
X365253Y258065D01*
X365253Y256352D01*
X359598Y250697D01*
X357885Y250697D01*
G37*
%LPD*%
%LPC*%
G36*
X357885Y199897D02*
X357885Y199897D01*
X357885Y207265D01*
X365253Y207265D01*
X365253Y205552D01*
X359598Y199897D01*
X357885Y199897D01*
G37*
%LPD*%
%LPC*%
G36*
X332485Y250697D02*
X332485Y250697D01*
X332485Y258065D01*
X339853Y258065D01*
X339853Y256352D01*
X334198Y250697D01*
X332485Y250697D01*
G37*
%LPD*%
%LPC*%
G36*
X332485Y225297D02*
X332485Y225297D01*
X332485Y232665D01*
X339853Y232665D01*
X339853Y230952D01*
X334198Y225297D01*
X332485Y225297D01*
G37*
%LPD*%
%LPC*%
G36*
X345947Y237235D02*
X345947Y237235D01*
X345947Y238948D01*
X351602Y244603D01*
X353315Y244603D01*
X353315Y237235D01*
X345947Y237235D01*
G37*
%LPD*%
%LPC*%
G36*
X357885Y225297D02*
X357885Y225297D01*
X357885Y232665D01*
X365253Y232665D01*
X365253Y230952D01*
X359598Y225297D01*
X357885Y225297D01*
G37*
%LPD*%
%LPC*%
G36*
X332485Y199897D02*
X332485Y199897D01*
X332485Y207265D01*
X339853Y207265D01*
X339853Y205552D01*
X334198Y199897D01*
X332485Y199897D01*
G37*
%LPD*%
%LPC*%
G36*
X320547Y237235D02*
X320547Y237235D01*
X320547Y238948D01*
X326202Y244603D01*
X327915Y244603D01*
X327915Y237235D01*
X320547Y237235D01*
G37*
%LPD*%
%LPC*%
G36*
X326202Y250697D02*
X326202Y250697D01*
X320547Y256352D01*
X320547Y258065D01*
X327915Y258065D01*
X327915Y250697D01*
X326202Y250697D01*
G37*
%LPD*%
%LPC*%
G36*
X351602Y225297D02*
X351602Y225297D01*
X345947Y230952D01*
X345947Y232665D01*
X353315Y232665D01*
X353315Y225297D01*
X351602Y225297D01*
G37*
%LPD*%
%LPC*%
G36*
X326202Y225297D02*
X326202Y225297D01*
X320547Y230952D01*
X320547Y232665D01*
X327915Y232665D01*
X327915Y225297D01*
X326202Y225297D01*
G37*
%LPD*%
%LPC*%
G36*
X351602Y199897D02*
X351602Y199897D01*
X345947Y205552D01*
X345947Y207265D01*
X353315Y207265D01*
X353315Y199897D01*
X351602Y199897D01*
G37*
%LPD*%
%LPC*%
G36*
X326202Y199897D02*
X326202Y199897D01*
X320547Y205552D01*
X320547Y207265D01*
X327915Y207265D01*
X327915Y199897D01*
X326202Y199897D01*
G37*
%LPD*%
%LPC*%
G36*
X351602Y250697D02*
X351602Y250697D01*
X345947Y256352D01*
X345947Y258065D01*
X353315Y258065D01*
X353315Y250697D01*
X351602Y250697D01*
G37*
%LPD*%
%LPC*%
G36*
X179831Y643381D02*
X179831Y643381D01*
X179831Y650495D01*
X181588Y650495D01*
X186945Y645138D01*
X186945Y643381D01*
X179831Y643381D01*
G37*
%LPD*%
%LPC*%
G36*
X383031Y643381D02*
X383031Y643381D01*
X383031Y650495D01*
X384788Y650495D01*
X390145Y645138D01*
X390145Y643381D01*
X383031Y643381D01*
G37*
%LPD*%
%LPC*%
G36*
X168655Y643381D02*
X168655Y643381D01*
X168655Y645138D01*
X174012Y650495D01*
X175769Y650495D01*
X175769Y643381D01*
X168655Y643381D01*
G37*
%LPD*%
%LPC*%
G36*
X371855Y643381D02*
X371855Y643381D01*
X371855Y645138D01*
X377212Y650495D01*
X378969Y650495D01*
X378969Y643381D01*
X371855Y643381D01*
G37*
%LPD*%
%LPC*%
G36*
X179831Y632205D02*
X179831Y632205D01*
X179831Y639319D01*
X186945Y639319D01*
X186945Y637562D01*
X181588Y632205D01*
X179831Y632205D01*
G37*
%LPD*%
%LPC*%
G36*
X383031Y632205D02*
X383031Y632205D01*
X383031Y639319D01*
X390145Y639319D01*
X390145Y637562D01*
X384788Y632205D01*
X383031Y632205D01*
G37*
%LPD*%
%LPC*%
G36*
X174012Y632205D02*
X174012Y632205D01*
X168655Y637562D01*
X168655Y639319D01*
X175769Y639319D01*
X175769Y632205D01*
X174012Y632205D01*
G37*
%LPD*%
%LPC*%
G36*
X377212Y632205D02*
X377212Y632205D01*
X371855Y637562D01*
X371855Y639319D01*
X378969Y639319D01*
X378969Y632205D01*
X377212Y632205D01*
G37*
%LPD*%
D10*
X355600Y590550D03*
X355600Y565150D03*
D11*
X355600Y692150D03*
X355600Y717550D03*
X203200Y692150D03*
X203200Y717550D03*
D12*
X88900Y577850D03*
D13*
X88900Y603250D03*
D14*
X165100Y565150D03*
D13*
X190500Y565150D03*
D15*
X310896Y565150D02*
X324104Y565150D01*
X324104Y590550D02*
X310896Y590550D01*
X310896Y717550D02*
X324104Y717550D01*
X247904Y717550D02*
X234696Y717550D01*
X310896Y615950D02*
X324104Y615950D01*
X324104Y641350D02*
X310896Y641350D01*
X310896Y692150D02*
X324104Y692150D01*
X324104Y666750D02*
X310896Y666750D01*
X247904Y692150D02*
X234696Y692150D01*
X234696Y666750D02*
X247904Y666750D01*
X247904Y641350D02*
X234696Y641350D01*
X234696Y615950D02*
X247904Y615950D01*
X247904Y590550D02*
X234696Y590550D01*
X234696Y565150D02*
X247904Y565150D01*
D16*
X431800Y501650D03*
X355600Y501650D03*
X190500Y768350D03*
X114300Y768350D03*
X177800Y692150D03*
X101600Y692150D03*
X177800Y717550D03*
X101600Y717550D03*
D17*
X241300Y762000D03*
X317500Y762000D03*
D18*
X57150Y451250D03*
D19*
X57150Y476250D03*
X57150Y501250D03*
D18*
X57150Y883050D03*
D19*
X57150Y908050D03*
X57150Y933050D03*
D18*
X57150Y667150D03*
D19*
X57150Y692150D03*
X57150Y717150D03*
D17*
X114300Y742950D03*
X190500Y742950D03*
X355600Y527050D03*
X431800Y527050D03*
X381000Y590550D03*
X457200Y590550D03*
X381000Y565150D03*
X457200Y565150D03*
D16*
X431800Y781050D03*
X355600Y781050D03*
D17*
X355600Y755650D03*
X431800Y755650D03*
X381000Y692150D03*
X457200Y692150D03*
X381000Y717550D03*
X457200Y717550D03*
X114300Y793750D03*
X190500Y793750D03*
D15*
X361696Y425450D02*
X374904Y425450D01*
X374904Y476250D02*
X361696Y476250D01*
X361696Y450850D02*
X374904Y450850D01*
X412496Y425450D02*
X425704Y425450D01*
X425704Y476250D02*
X412496Y476250D01*
X412496Y450850D02*
X425704Y450850D01*
X374904Y806450D02*
X361696Y806450D01*
X361696Y857250D02*
X374904Y857250D01*
X374904Y831850D02*
X361696Y831850D01*
X412496Y806450D02*
X425704Y806450D01*
X425704Y857250D02*
X412496Y857250D01*
X412496Y831850D02*
X425704Y831850D01*
X184404Y869950D02*
X171196Y869950D01*
X171196Y819150D02*
X184404Y819150D01*
X184404Y844550D02*
X171196Y844550D01*
X133604Y869950D02*
X120396Y869950D01*
X120396Y819150D02*
X133604Y819150D01*
X133604Y844550D02*
X120396Y844550D01*
D20*
X266700Y412750D03*
D13*
X241300Y412750D03*
D20*
X355600Y374650D03*
D13*
X330200Y374650D03*
D21*
X330200Y285750D03*
X355600Y285750D03*
X330200Y260350D03*
X355600Y260350D03*
X330200Y234950D03*
X355600Y234950D03*
X330200Y209550D03*
X355600Y209550D03*
X330200Y184150D03*
X355600Y184150D03*
D22*
X70000Y59690D02*
X70000Y29210D01*
X17000Y29210D02*
X17000Y59690D01*
X128000Y59690D02*
X128000Y29210D01*
X70000Y219710D02*
X70000Y250190D01*
X17000Y250190D02*
X17000Y219710D01*
X128000Y219710D02*
X128000Y250190D01*
D17*
X177800Y641350D03*
X203200Y641350D03*
D16*
X381000Y641350D03*
X355600Y641350D03*
D23*
X368300Y425450D02*
X419100Y425450D01*
X450850Y590550D02*
X457200Y590550D01*
X450850Y590550D02*
X438150Y577850D01*
X438150Y552450D01*
X450850Y539750D01*
X450850Y444500D01*
X431800Y425450D01*
X419100Y425450D01*
D24*
X241300Y641350D02*
X203200Y641350D01*
X330200Y184150D02*
X355600Y184150D01*
X330200Y184150D02*
X304800Y184150D01*
X266700Y222250D01*
X266700Y412750D01*
X266700Y641350D02*
X241300Y641350D01*
X266700Y527050D02*
X266700Y412750D01*
X266700Y527050D02*
X266700Y641350D01*
X266700Y742950D01*
X342900Y742950D02*
X355600Y755650D01*
X203200Y768350D02*
X190500Y768350D01*
X203200Y768350D02*
X228600Y742950D01*
X266700Y742950D01*
X266700Y527050D02*
X355600Y527050D01*
X342900Y742950D02*
X266700Y742950D01*
X330200Y285750D02*
X355600Y285750D01*
X330200Y285750D02*
X330200Y374650D01*
X292100Y412750D01*
X292100Y501650D01*
X355600Y501650D01*
D25*
X292100Y501650D03*
D23*
X419100Y831850D02*
X431800Y831850D01*
X450850Y812800D01*
X450850Y742950D01*
X438150Y730250D01*
X438150Y596900D01*
X406400Y565150D01*
X381000Y565150D01*
X419100Y793750D02*
X419100Y806450D01*
X419100Y793750D02*
X406400Y781050D01*
X406400Y692150D01*
D25*
X406400Y692150D03*
D23*
X381000Y857250D02*
X368300Y857250D01*
X381000Y857250D02*
X393700Y844550D01*
X393700Y755650D01*
D25*
X393700Y755650D03*
D23*
X177800Y869950D02*
X152400Y869950D01*
X127000Y869950D01*
X152400Y869950D02*
X152400Y717550D01*
X127000Y692150D01*
X101600Y692150D01*
X177800Y844550D02*
X215900Y844550D01*
X241300Y819150D01*
X241300Y762000D01*
X70000Y272900D02*
X70000Y234950D01*
X70000Y272900D02*
X19050Y323850D01*
X19050Y889000D02*
X38100Y908050D01*
X57150Y908050D01*
X19050Y889000D02*
X19050Y323850D01*
X57150Y717150D02*
X57150Y883050D01*
X57150Y717150D02*
X50400Y717150D01*
X31750Y698500D01*
X31750Y635000D01*
X63500Y603250D01*
X88900Y603250D01*
X152400Y615950D02*
X241300Y615950D01*
X76200Y692150D02*
X57150Y692150D01*
X76200Y692150D02*
X152400Y615950D01*
X76200Y57150D02*
X70000Y44450D01*
X76200Y57150D02*
X76200Y82550D01*
X88900Y95250D01*
X139700Y95250D01*
X165100Y120650D01*
X165100Y565150D01*
X88900Y577850D02*
X88900Y457200D01*
X82550Y450850D01*
X57550Y450850D01*
X57150Y451250D01*
M02*
