G04 EAGLE Gerber RS-274X export*
G75*
%MOMM*%
%FSLAX34Y34*%
%LPD*%
%INTop Copper*%
%IPPOS*%
%AMOC8*
5,1,8,0,0,1.08239X$1,22.5*%
G01*
%ADD10P,1.429621X8X292.500000*%
%ADD11P,1.429621X8X112.500000*%
%ADD12P,1.732040X8X292.500000*%
%ADD13C,1.600200*%
%ADD14P,1.732040X8X202.500000*%
%ADD15C,1.320800*%
%ADD16P,1.429621X8X202.500000*%
%ADD17P,1.429621X8X22.500000*%
%ADD18R,1.676400X1.676400*%
%ADD19P,1.814519X8X22.500000*%
%ADD20P,1.732040X8X22.500000*%
%ADD21P,1.539592X8X292.500000*%
%ADD22C,3.048000*%
%ADD23C,0.406400*%
%ADD24C,0.609600*%
%ADD25C,0.756400*%

G36*
X61973Y10161D02*
X61973Y10161D01*
X61978Y10161D01*
X62172Y10181D01*
X62370Y10201D01*
X62374Y10202D01*
X62378Y10202D01*
X62566Y10261D01*
X62754Y10319D01*
X62758Y10321D01*
X62763Y10322D01*
X62937Y10418D01*
X63109Y10511D01*
X63112Y10513D01*
X63116Y10516D01*
X63269Y10644D01*
X63418Y10768D01*
X63421Y10772D01*
X63424Y10775D01*
X63549Y10931D01*
X63670Y11082D01*
X63672Y11086D01*
X63675Y11089D01*
X63767Y11270D01*
X63856Y11439D01*
X63857Y11444D01*
X63859Y11448D01*
X63913Y11638D01*
X63967Y11826D01*
X63967Y11831D01*
X63969Y11835D01*
X63984Y12028D01*
X64000Y12228D01*
X63999Y12232D01*
X64000Y12236D01*
X63976Y12430D01*
X63953Y12627D01*
X63952Y12632D01*
X63951Y12636D01*
X63890Y12821D01*
X63828Y13010D01*
X63826Y13014D01*
X63825Y13018D01*
X63728Y13187D01*
X63630Y13361D01*
X63627Y13364D01*
X63625Y13368D01*
X63497Y13515D01*
X63367Y13665D01*
X63363Y13668D01*
X63361Y13672D01*
X63204Y13792D01*
X63049Y13912D01*
X63045Y13914D01*
X63041Y13917D01*
X62746Y14069D01*
X60504Y14998D01*
X55788Y19714D01*
X53235Y25875D01*
X53235Y63025D01*
X55788Y69186D01*
X60504Y73902D01*
X66665Y76455D01*
X73335Y76455D01*
X79496Y73902D01*
X84212Y69186D01*
X86765Y63025D01*
X86765Y25875D01*
X84212Y19714D01*
X79496Y14998D01*
X77254Y14069D01*
X77250Y14067D01*
X77246Y14065D01*
X77073Y13972D01*
X76899Y13878D01*
X76895Y13876D01*
X76891Y13873D01*
X76743Y13749D01*
X76588Y13622D01*
X76586Y13619D01*
X76582Y13616D01*
X76459Y13463D01*
X76335Y13309D01*
X76333Y13305D01*
X76330Y13302D01*
X76240Y13128D01*
X76148Y12953D01*
X76146Y12949D01*
X76144Y12945D01*
X76090Y12757D01*
X76035Y12566D01*
X76034Y12562D01*
X76033Y12558D01*
X76017Y12360D01*
X76000Y12165D01*
X76000Y12161D01*
X76000Y12156D01*
X76023Y11962D01*
X76045Y11765D01*
X76047Y11761D01*
X76047Y11757D01*
X76108Y11571D01*
X76168Y11382D01*
X76170Y11378D01*
X76172Y11374D01*
X76269Y11202D01*
X76365Y11030D01*
X76368Y11027D01*
X76370Y11023D01*
X76498Y10875D01*
X76626Y10725D01*
X76630Y10722D01*
X76633Y10718D01*
X76788Y10598D01*
X76943Y10476D01*
X76947Y10474D01*
X76951Y10472D01*
X77129Y10383D01*
X77303Y10296D01*
X77307Y10294D01*
X77312Y10292D01*
X77503Y10241D01*
X77692Y10189D01*
X77696Y10189D01*
X77700Y10188D01*
X78031Y10161D01*
X119969Y10161D01*
X119973Y10161D01*
X119978Y10161D01*
X120172Y10181D01*
X120370Y10201D01*
X120374Y10202D01*
X120378Y10202D01*
X120566Y10261D01*
X120754Y10319D01*
X120758Y10321D01*
X120763Y10322D01*
X120937Y10418D01*
X121109Y10511D01*
X121112Y10513D01*
X121116Y10516D01*
X121269Y10644D01*
X121418Y10768D01*
X121421Y10772D01*
X121424Y10775D01*
X121549Y10931D01*
X121670Y11082D01*
X121672Y11086D01*
X121675Y11089D01*
X121767Y11270D01*
X121856Y11439D01*
X121857Y11444D01*
X121859Y11448D01*
X121913Y11638D01*
X121967Y11826D01*
X121967Y11831D01*
X121969Y11835D01*
X121984Y12028D01*
X122000Y12228D01*
X121999Y12232D01*
X122000Y12236D01*
X121976Y12430D01*
X121953Y12627D01*
X121952Y12632D01*
X121951Y12636D01*
X121890Y12821D01*
X121828Y13010D01*
X121826Y13014D01*
X121825Y13018D01*
X121728Y13187D01*
X121630Y13361D01*
X121627Y13364D01*
X121625Y13368D01*
X121497Y13515D01*
X121367Y13665D01*
X121363Y13668D01*
X121361Y13672D01*
X121204Y13792D01*
X121049Y13912D01*
X121045Y13914D01*
X121041Y13917D01*
X120746Y14069D01*
X118504Y14998D01*
X113788Y19714D01*
X111235Y25875D01*
X111235Y63025D01*
X113788Y69186D01*
X118504Y73902D01*
X124665Y76455D01*
X131335Y76455D01*
X137496Y73902D01*
X142212Y69186D01*
X144765Y63025D01*
X144765Y25875D01*
X142212Y19714D01*
X137496Y14998D01*
X135254Y14069D01*
X135250Y14067D01*
X135246Y14065D01*
X135073Y13972D01*
X134899Y13878D01*
X134895Y13876D01*
X134891Y13873D01*
X134743Y13749D01*
X134588Y13622D01*
X134586Y13619D01*
X134582Y13616D01*
X134459Y13463D01*
X134335Y13309D01*
X134333Y13305D01*
X134330Y13302D01*
X134240Y13128D01*
X134148Y12953D01*
X134146Y12949D01*
X134144Y12945D01*
X134090Y12757D01*
X134035Y12566D01*
X134034Y12562D01*
X134033Y12558D01*
X134017Y12360D01*
X134000Y12165D01*
X134000Y12161D01*
X134000Y12156D01*
X134023Y11962D01*
X134045Y11765D01*
X134047Y11761D01*
X134047Y11757D01*
X134108Y11571D01*
X134168Y11382D01*
X134170Y11378D01*
X134172Y11374D01*
X134269Y11202D01*
X134365Y11030D01*
X134368Y11027D01*
X134370Y11023D01*
X134498Y10875D01*
X134626Y10725D01*
X134630Y10722D01*
X134633Y10718D01*
X134788Y10598D01*
X134943Y10476D01*
X134947Y10474D01*
X134951Y10472D01*
X135129Y10383D01*
X135303Y10296D01*
X135307Y10294D01*
X135312Y10292D01*
X135503Y10241D01*
X135692Y10189D01*
X135696Y10189D01*
X135700Y10188D01*
X136031Y10161D01*
X464058Y10161D01*
X464076Y10163D01*
X464094Y10161D01*
X464276Y10182D01*
X464459Y10201D01*
X464476Y10206D01*
X464493Y10208D01*
X464668Y10265D01*
X464844Y10319D01*
X464859Y10327D01*
X464876Y10333D01*
X465036Y10423D01*
X465198Y10511D01*
X465211Y10522D01*
X465227Y10531D01*
X465366Y10651D01*
X465507Y10768D01*
X465518Y10782D01*
X465532Y10794D01*
X465644Y10939D01*
X465759Y11082D01*
X465767Y11098D01*
X465778Y11112D01*
X465860Y11277D01*
X465945Y11439D01*
X465950Y11456D01*
X465958Y11472D01*
X466005Y11651D01*
X466056Y11826D01*
X466058Y11844D01*
X466062Y11861D01*
X466089Y12192D01*
X466089Y557640D01*
X466088Y557648D01*
X466089Y557657D01*
X466068Y557849D01*
X466049Y558040D01*
X466047Y558049D01*
X466046Y558058D01*
X465988Y558240D01*
X465931Y558425D01*
X465927Y558433D01*
X465924Y558442D01*
X465831Y558610D01*
X465739Y558779D01*
X465734Y558786D01*
X465729Y558794D01*
X465605Y558941D01*
X465482Y559088D01*
X465475Y559094D01*
X465469Y559101D01*
X465318Y559220D01*
X465168Y559341D01*
X465160Y559345D01*
X465153Y559350D01*
X464980Y559438D01*
X464811Y559526D01*
X464802Y559529D01*
X464794Y559533D01*
X464608Y559585D01*
X464424Y559638D01*
X464415Y559638D01*
X464406Y559641D01*
X464213Y559655D01*
X464022Y559671D01*
X464014Y559670D01*
X464005Y559670D01*
X463812Y559646D01*
X463623Y559624D01*
X463614Y559621D01*
X463605Y559620D01*
X463422Y559558D01*
X463240Y559499D01*
X463232Y559494D01*
X463224Y559492D01*
X463058Y559396D01*
X462889Y559301D01*
X462882Y559295D01*
X462875Y559291D01*
X462622Y559076D01*
X460567Y557021D01*
X453833Y557021D01*
X449856Y560998D01*
X449835Y561015D01*
X449818Y561036D01*
X449680Y561143D01*
X449544Y561253D01*
X449521Y561266D01*
X449500Y561282D01*
X449343Y561360D01*
X449189Y561442D01*
X449163Y561450D01*
X449139Y561462D01*
X448970Y561507D01*
X448803Y561557D01*
X448776Y561559D01*
X448750Y561566D01*
X448420Y561593D01*
X430327Y561593D01*
X405522Y586398D01*
X405501Y586415D01*
X405483Y586436D01*
X405346Y586543D01*
X405210Y586653D01*
X405187Y586666D01*
X405165Y586682D01*
X405008Y586760D01*
X404854Y586842D01*
X404829Y586850D01*
X404805Y586862D01*
X404635Y586907D01*
X404469Y586957D01*
X404442Y586959D01*
X404416Y586966D01*
X404085Y586993D01*
X389780Y586993D01*
X389754Y586991D01*
X389727Y586993D01*
X389553Y586971D01*
X389380Y586953D01*
X389354Y586946D01*
X389328Y586942D01*
X389162Y586887D01*
X388995Y586835D01*
X388971Y586822D01*
X388946Y586814D01*
X388794Y586727D01*
X388641Y586643D01*
X388620Y586626D01*
X388597Y586613D01*
X388344Y586398D01*
X384367Y582421D01*
X377633Y582421D01*
X373656Y586398D01*
X373635Y586415D01*
X373618Y586436D01*
X373480Y586543D01*
X373344Y586653D01*
X373321Y586666D01*
X373300Y586682D01*
X373143Y586760D01*
X372989Y586842D01*
X372963Y586850D01*
X372939Y586862D01*
X372770Y586907D01*
X372603Y586957D01*
X372576Y586959D01*
X372550Y586966D01*
X372220Y586993D01*
X364380Y586993D01*
X364354Y586991D01*
X364327Y586993D01*
X364153Y586971D01*
X363980Y586953D01*
X363954Y586946D01*
X363928Y586942D01*
X363762Y586886D01*
X363595Y586835D01*
X363571Y586822D01*
X363546Y586814D01*
X363394Y586727D01*
X363241Y586643D01*
X363220Y586626D01*
X363197Y586613D01*
X362944Y586398D01*
X358967Y582421D01*
X352233Y582421D01*
X348256Y586398D01*
X348235Y586415D01*
X348218Y586436D01*
X348080Y586543D01*
X347944Y586653D01*
X347921Y586666D01*
X347900Y586682D01*
X347743Y586760D01*
X347589Y586842D01*
X347563Y586850D01*
X347539Y586862D01*
X347370Y586907D01*
X347203Y586957D01*
X347176Y586959D01*
X347150Y586966D01*
X346820Y586993D01*
X332786Y586993D01*
X332764Y586991D01*
X332742Y586993D01*
X332565Y586971D01*
X332386Y586953D01*
X332365Y586947D01*
X332342Y586944D01*
X332173Y586888D01*
X332001Y586835D01*
X331981Y586825D01*
X331960Y586818D01*
X331805Y586729D01*
X331647Y586643D01*
X331630Y586629D01*
X331610Y586618D01*
X331475Y586500D01*
X331338Y586386D01*
X331324Y586368D01*
X331307Y586354D01*
X331198Y586212D01*
X331085Y586072D01*
X331075Y586052D01*
X331061Y586034D01*
X331037Y585988D01*
X328709Y583659D01*
X325721Y582421D01*
X309279Y582421D01*
X306291Y583659D01*
X304005Y585945D01*
X302767Y588933D01*
X302767Y592167D01*
X304005Y595155D01*
X306291Y597441D01*
X309279Y598679D01*
X325721Y598679D01*
X328709Y597441D01*
X331049Y595101D01*
X331100Y595006D01*
X331114Y594989D01*
X331125Y594969D01*
X331242Y594834D01*
X331356Y594695D01*
X331374Y594681D01*
X331388Y594664D01*
X331530Y594555D01*
X331669Y594442D01*
X331689Y594431D01*
X331706Y594418D01*
X331867Y594338D01*
X332026Y594255D01*
X332047Y594248D01*
X332067Y594238D01*
X332241Y594192D01*
X332412Y594142D01*
X332434Y594140D01*
X332456Y594134D01*
X332786Y594107D01*
X346820Y594107D01*
X346846Y594109D01*
X346873Y594107D01*
X347047Y594129D01*
X347220Y594147D01*
X347246Y594154D01*
X347272Y594158D01*
X347438Y594214D01*
X347605Y594265D01*
X347629Y594278D01*
X347654Y594286D01*
X347806Y594373D01*
X347959Y594457D01*
X347980Y594474D01*
X348003Y594487D01*
X348256Y594702D01*
X352233Y598679D01*
X358967Y598679D01*
X362944Y594702D01*
X362965Y594685D01*
X362982Y594664D01*
X363120Y594557D01*
X363256Y594447D01*
X363279Y594434D01*
X363300Y594418D01*
X363457Y594340D01*
X363611Y594258D01*
X363637Y594250D01*
X363661Y594238D01*
X363830Y594193D01*
X363997Y594143D01*
X364024Y594141D01*
X364050Y594134D01*
X364380Y594107D01*
X372220Y594107D01*
X372246Y594109D01*
X372273Y594107D01*
X372447Y594129D01*
X372620Y594147D01*
X372646Y594154D01*
X372672Y594158D01*
X372838Y594213D01*
X373005Y594265D01*
X373029Y594278D01*
X373054Y594286D01*
X373206Y594373D01*
X373359Y594457D01*
X373380Y594474D01*
X373403Y594487D01*
X373656Y594702D01*
X377633Y598679D01*
X384367Y598679D01*
X388344Y594702D01*
X388365Y594685D01*
X388382Y594664D01*
X388520Y594557D01*
X388656Y594447D01*
X388679Y594434D01*
X388700Y594418D01*
X388857Y594340D01*
X389011Y594258D01*
X389037Y594250D01*
X389061Y594238D01*
X389230Y594193D01*
X389397Y594143D01*
X389424Y594141D01*
X389450Y594134D01*
X389780Y594107D01*
X407873Y594107D01*
X432678Y569302D01*
X432699Y569285D01*
X432717Y569264D01*
X432854Y569157D01*
X432990Y569047D01*
X433013Y569034D01*
X433035Y569018D01*
X433192Y568940D01*
X433346Y568858D01*
X433371Y568850D01*
X433395Y568838D01*
X433565Y568793D01*
X433731Y568743D01*
X433758Y568741D01*
X433784Y568734D01*
X434115Y568707D01*
X448420Y568707D01*
X448446Y568709D01*
X448473Y568707D01*
X448647Y568729D01*
X448820Y568747D01*
X448846Y568754D01*
X448872Y568758D01*
X449038Y568814D01*
X449205Y568865D01*
X449229Y568878D01*
X449254Y568886D01*
X449406Y568973D01*
X449559Y569057D01*
X449580Y569074D01*
X449603Y569087D01*
X449856Y569302D01*
X453833Y573279D01*
X460567Y573279D01*
X462622Y571224D01*
X462629Y571218D01*
X462634Y571212D01*
X462784Y571091D01*
X462933Y570969D01*
X462941Y570965D01*
X462948Y570959D01*
X463118Y570871D01*
X463289Y570780D01*
X463298Y570778D01*
X463305Y570774D01*
X463490Y570721D01*
X463675Y570666D01*
X463684Y570665D01*
X463692Y570662D01*
X463883Y570647D01*
X464076Y570629D01*
X464085Y570630D01*
X464094Y570629D01*
X464283Y570652D01*
X464476Y570673D01*
X464485Y570675D01*
X464493Y570676D01*
X464675Y570736D01*
X464860Y570794D01*
X464868Y570798D01*
X464876Y570801D01*
X465045Y570896D01*
X465212Y570989D01*
X465219Y570995D01*
X465227Y570999D01*
X465373Y571125D01*
X465519Y571249D01*
X465525Y571256D01*
X465532Y571262D01*
X465649Y571414D01*
X465769Y571565D01*
X465773Y571573D01*
X465778Y571580D01*
X465864Y571752D01*
X465951Y571924D01*
X465954Y571933D01*
X465958Y571941D01*
X466008Y572127D01*
X466059Y572312D01*
X466060Y572321D01*
X466062Y572330D01*
X466089Y572660D01*
X466089Y583040D01*
X466088Y583048D01*
X466089Y583057D01*
X466068Y583249D01*
X466049Y583440D01*
X466047Y583449D01*
X466046Y583458D01*
X465988Y583640D01*
X465931Y583825D01*
X465927Y583833D01*
X465924Y583842D01*
X465831Y584010D01*
X465739Y584179D01*
X465734Y584186D01*
X465729Y584194D01*
X465605Y584341D01*
X465482Y584488D01*
X465475Y584494D01*
X465469Y584501D01*
X465318Y584620D01*
X465168Y584741D01*
X465160Y584745D01*
X465153Y584750D01*
X464980Y584838D01*
X464811Y584926D01*
X464802Y584929D01*
X464794Y584933D01*
X464608Y584985D01*
X464424Y585038D01*
X464415Y585038D01*
X464406Y585041D01*
X464213Y585055D01*
X464022Y585071D01*
X464014Y585070D01*
X464005Y585070D01*
X463812Y585046D01*
X463623Y585024D01*
X463614Y585021D01*
X463605Y585020D01*
X463422Y584958D01*
X463240Y584899D01*
X463232Y584894D01*
X463224Y584892D01*
X463058Y584796D01*
X462889Y584701D01*
X462882Y584695D01*
X462875Y584691D01*
X462622Y584476D01*
X460567Y582421D01*
X453833Y582421D01*
X449071Y587183D01*
X449071Y593917D01*
X453833Y598679D01*
X460567Y598679D01*
X462622Y596624D01*
X462629Y596618D01*
X462634Y596612D01*
X462784Y596491D01*
X462933Y596369D01*
X462941Y596365D01*
X462948Y596359D01*
X463118Y596271D01*
X463289Y596180D01*
X463298Y596178D01*
X463305Y596174D01*
X463490Y596121D01*
X463675Y596066D01*
X463684Y596065D01*
X463692Y596062D01*
X463883Y596047D01*
X464076Y596029D01*
X464085Y596030D01*
X464094Y596029D01*
X464283Y596052D01*
X464476Y596073D01*
X464485Y596075D01*
X464493Y596076D01*
X464675Y596136D01*
X464860Y596194D01*
X464868Y596198D01*
X464876Y596201D01*
X465045Y596296D01*
X465212Y596389D01*
X465219Y596395D01*
X465227Y596399D01*
X465373Y596525D01*
X465519Y596649D01*
X465525Y596656D01*
X465532Y596662D01*
X465649Y596814D01*
X465769Y596965D01*
X465773Y596973D01*
X465778Y596980D01*
X465864Y597152D01*
X465951Y597324D01*
X465954Y597333D01*
X465958Y597341D01*
X466008Y597527D01*
X466059Y597712D01*
X466060Y597721D01*
X466062Y597730D01*
X466089Y598060D01*
X466089Y684640D01*
X466088Y684648D01*
X466089Y684657D01*
X466068Y684849D01*
X466049Y685040D01*
X466047Y685049D01*
X466046Y685058D01*
X465988Y685240D01*
X465931Y685425D01*
X465927Y685433D01*
X465924Y685442D01*
X465831Y685610D01*
X465739Y685779D01*
X465734Y685786D01*
X465729Y685794D01*
X465605Y685941D01*
X465482Y686088D01*
X465475Y686094D01*
X465469Y686101D01*
X465318Y686220D01*
X465168Y686341D01*
X465160Y686345D01*
X465153Y686350D01*
X464980Y686438D01*
X464811Y686526D01*
X464802Y686529D01*
X464794Y686533D01*
X464608Y686585D01*
X464424Y686638D01*
X464415Y686638D01*
X464406Y686641D01*
X464213Y686655D01*
X464022Y686671D01*
X464014Y686670D01*
X464005Y686670D01*
X463812Y686646D01*
X463623Y686624D01*
X463614Y686621D01*
X463605Y686620D01*
X463422Y686558D01*
X463240Y686499D01*
X463232Y686494D01*
X463224Y686492D01*
X463058Y686396D01*
X462889Y686301D01*
X462882Y686295D01*
X462875Y686291D01*
X462622Y686076D01*
X460567Y684021D01*
X453833Y684021D01*
X449856Y687998D01*
X449835Y688015D01*
X449818Y688036D01*
X449680Y688143D01*
X449544Y688253D01*
X449521Y688266D01*
X449500Y688282D01*
X449343Y688360D01*
X449189Y688442D01*
X449163Y688450D01*
X449139Y688462D01*
X448970Y688507D01*
X448803Y688557D01*
X448776Y688559D01*
X448750Y688566D01*
X448420Y688593D01*
X411190Y688593D01*
X411163Y688591D01*
X411136Y688593D01*
X410962Y688571D01*
X410789Y688553D01*
X410763Y688546D01*
X410737Y688542D01*
X410571Y688487D01*
X410404Y688435D01*
X410380Y688422D01*
X410355Y688414D01*
X410203Y688327D01*
X410050Y688243D01*
X410029Y688226D01*
X410006Y688213D01*
X409753Y687998D01*
X409406Y687651D01*
X407456Y686843D01*
X405344Y686843D01*
X403394Y687651D01*
X401901Y689144D01*
X401093Y691094D01*
X401093Y693206D01*
X401901Y695156D01*
X403394Y696649D01*
X403955Y696881D01*
X405344Y697457D01*
X407456Y697457D01*
X409406Y696649D01*
X409753Y696302D01*
X409774Y696285D01*
X409791Y696264D01*
X409929Y696157D01*
X410065Y696047D01*
X410088Y696034D01*
X410109Y696018D01*
X410266Y695940D01*
X410420Y695858D01*
X410446Y695850D01*
X410470Y695838D01*
X410639Y695793D01*
X410806Y695743D01*
X410833Y695741D01*
X410859Y695734D01*
X411190Y695707D01*
X448420Y695707D01*
X448446Y695709D01*
X448473Y695707D01*
X448647Y695729D01*
X448820Y695747D01*
X448846Y695754D01*
X448872Y695758D01*
X449038Y695814D01*
X449205Y695865D01*
X449229Y695878D01*
X449254Y695886D01*
X449406Y695973D01*
X449559Y696057D01*
X449580Y696074D01*
X449603Y696087D01*
X449856Y696302D01*
X453833Y700279D01*
X460567Y700279D01*
X462622Y698224D01*
X462629Y698218D01*
X462634Y698212D01*
X462784Y698091D01*
X462933Y697969D01*
X462941Y697965D01*
X462948Y697959D01*
X463118Y697871D01*
X463289Y697780D01*
X463298Y697778D01*
X463305Y697774D01*
X463490Y697721D01*
X463675Y697666D01*
X463684Y697665D01*
X463692Y697662D01*
X463883Y697647D01*
X464076Y697629D01*
X464085Y697630D01*
X464094Y697629D01*
X464283Y697652D01*
X464476Y697673D01*
X464485Y697675D01*
X464493Y697676D01*
X464675Y697736D01*
X464860Y697794D01*
X464868Y697798D01*
X464876Y697801D01*
X465045Y697896D01*
X465212Y697989D01*
X465219Y697995D01*
X465227Y697999D01*
X465373Y698125D01*
X465519Y698249D01*
X465525Y698256D01*
X465532Y698262D01*
X465649Y698414D01*
X465769Y698565D01*
X465773Y698573D01*
X465778Y698580D01*
X465864Y698752D01*
X465951Y698924D01*
X465954Y698933D01*
X465958Y698941D01*
X466007Y699126D01*
X466059Y699312D01*
X466060Y699321D01*
X466062Y699330D01*
X466089Y699660D01*
X466089Y710040D01*
X466088Y710048D01*
X466089Y710057D01*
X466068Y710249D01*
X466049Y710440D01*
X466047Y710449D01*
X466046Y710458D01*
X465988Y710640D01*
X465931Y710825D01*
X465927Y710833D01*
X465924Y710842D01*
X465831Y711010D01*
X465739Y711179D01*
X465734Y711186D01*
X465729Y711194D01*
X465605Y711341D01*
X465482Y711488D01*
X465475Y711494D01*
X465469Y711501D01*
X465318Y711620D01*
X465168Y711741D01*
X465160Y711745D01*
X465153Y711750D01*
X464980Y711838D01*
X464811Y711926D01*
X464802Y711929D01*
X464794Y711933D01*
X464608Y711985D01*
X464424Y712038D01*
X464415Y712038D01*
X464406Y712041D01*
X464213Y712055D01*
X464022Y712071D01*
X464014Y712070D01*
X464005Y712070D01*
X463812Y712046D01*
X463623Y712024D01*
X463614Y712021D01*
X463605Y712020D01*
X463422Y711958D01*
X463240Y711899D01*
X463232Y711894D01*
X463224Y711892D01*
X463058Y711796D01*
X462889Y711701D01*
X462882Y711695D01*
X462875Y711691D01*
X462622Y711476D01*
X460567Y709421D01*
X453833Y709421D01*
X449856Y713398D01*
X449835Y713415D01*
X449818Y713436D01*
X449680Y713543D01*
X449544Y713653D01*
X449521Y713666D01*
X449500Y713682D01*
X449343Y713760D01*
X449189Y713842D01*
X449163Y713850D01*
X449139Y713862D01*
X448970Y713907D01*
X448803Y713957D01*
X448776Y713959D01*
X448750Y713966D01*
X448420Y713993D01*
X408715Y713993D01*
X408688Y713991D01*
X408661Y713993D01*
X408487Y713971D01*
X408314Y713953D01*
X408289Y713946D01*
X408262Y713942D01*
X408096Y713887D01*
X407929Y713835D01*
X407906Y713822D01*
X407880Y713814D01*
X407729Y713727D01*
X407575Y713643D01*
X407555Y713626D01*
X407531Y713613D01*
X407278Y713398D01*
X389724Y695844D01*
X389707Y695823D01*
X389686Y695805D01*
X389579Y695668D01*
X389469Y695532D01*
X389456Y695509D01*
X389440Y695487D01*
X389362Y695330D01*
X389280Y695176D01*
X389272Y695151D01*
X389260Y695127D01*
X389215Y694957D01*
X389165Y694791D01*
X389163Y694764D01*
X389156Y694738D01*
X389129Y694407D01*
X389129Y688783D01*
X384367Y684021D01*
X377633Y684021D01*
X373656Y687998D01*
X373635Y688015D01*
X373618Y688036D01*
X373480Y688143D01*
X373344Y688253D01*
X373321Y688266D01*
X373300Y688282D01*
X373143Y688360D01*
X372989Y688442D01*
X372963Y688450D01*
X372939Y688462D01*
X372770Y688507D01*
X372603Y688557D01*
X372576Y688559D01*
X372550Y688566D01*
X372220Y688593D01*
X364380Y688593D01*
X364354Y688591D01*
X364327Y688593D01*
X364153Y688571D01*
X363980Y688553D01*
X363954Y688546D01*
X363928Y688542D01*
X363762Y688486D01*
X363595Y688435D01*
X363571Y688422D01*
X363546Y688414D01*
X363394Y688327D01*
X363241Y688243D01*
X363220Y688226D01*
X363197Y688213D01*
X362944Y687998D01*
X358967Y684021D01*
X352233Y684021D01*
X348256Y687998D01*
X348235Y688015D01*
X348218Y688036D01*
X348080Y688143D01*
X347944Y688253D01*
X347921Y688266D01*
X347900Y688282D01*
X347743Y688360D01*
X347589Y688442D01*
X347563Y688450D01*
X347539Y688462D01*
X347370Y688507D01*
X347203Y688557D01*
X347176Y688559D01*
X347150Y688566D01*
X346820Y688593D01*
X332786Y688593D01*
X332764Y688591D01*
X332742Y688593D01*
X332565Y688571D01*
X332386Y688553D01*
X332365Y688547D01*
X332342Y688544D01*
X332173Y688488D01*
X332001Y688435D01*
X331981Y688425D01*
X331960Y688418D01*
X331805Y688329D01*
X331647Y688243D01*
X331630Y688229D01*
X331610Y688218D01*
X331475Y688100D01*
X331338Y687986D01*
X331324Y687968D01*
X331307Y687954D01*
X331198Y687812D01*
X331085Y687672D01*
X331075Y687652D01*
X331061Y687634D01*
X331037Y687588D01*
X328709Y685259D01*
X325721Y684021D01*
X309279Y684021D01*
X306291Y685259D01*
X304005Y687545D01*
X302767Y690533D01*
X302767Y693767D01*
X304005Y696755D01*
X306291Y699041D01*
X309279Y700279D01*
X325721Y700279D01*
X328709Y699041D01*
X331049Y696701D01*
X331100Y696606D01*
X331114Y696589D01*
X331125Y696569D01*
X331242Y696434D01*
X331356Y696295D01*
X331374Y696281D01*
X331388Y696264D01*
X331530Y696155D01*
X331669Y696042D01*
X331689Y696031D01*
X331706Y696018D01*
X331867Y695938D01*
X332026Y695855D01*
X332047Y695848D01*
X332067Y695838D01*
X332241Y695792D01*
X332412Y695742D01*
X332434Y695740D01*
X332456Y695734D01*
X332786Y695707D01*
X346820Y695707D01*
X346846Y695709D01*
X346873Y695707D01*
X347047Y695729D01*
X347220Y695747D01*
X347246Y695754D01*
X347272Y695758D01*
X347438Y695814D01*
X347605Y695865D01*
X347629Y695878D01*
X347654Y695886D01*
X347806Y695973D01*
X347959Y696057D01*
X347980Y696074D01*
X348003Y696087D01*
X348256Y696302D01*
X352233Y700279D01*
X358967Y700279D01*
X362944Y696302D01*
X362965Y696285D01*
X362982Y696264D01*
X363120Y696157D01*
X363256Y696047D01*
X363279Y696034D01*
X363300Y696018D01*
X363457Y695940D01*
X363611Y695858D01*
X363637Y695850D01*
X363661Y695838D01*
X363830Y695793D01*
X363997Y695743D01*
X364024Y695741D01*
X364050Y695734D01*
X364380Y695707D01*
X372220Y695707D01*
X372246Y695709D01*
X372273Y695707D01*
X372447Y695729D01*
X372620Y695747D01*
X372646Y695754D01*
X372672Y695758D01*
X372838Y695814D01*
X373005Y695865D01*
X373029Y695878D01*
X373054Y695886D01*
X373206Y695973D01*
X373359Y696057D01*
X373380Y696074D01*
X373403Y696087D01*
X373656Y696302D01*
X377633Y700279D01*
X383257Y700279D01*
X383284Y700281D01*
X383311Y700279D01*
X383485Y700301D01*
X383658Y700319D01*
X383683Y700326D01*
X383710Y700330D01*
X383876Y700385D01*
X384043Y700437D01*
X384066Y700450D01*
X384092Y700458D01*
X384243Y700545D01*
X384397Y700629D01*
X384417Y700646D01*
X384441Y700659D01*
X384694Y700874D01*
X404927Y721107D01*
X448420Y721107D01*
X448446Y721109D01*
X448473Y721107D01*
X448647Y721129D01*
X448820Y721147D01*
X448846Y721154D01*
X448872Y721158D01*
X449038Y721214D01*
X449205Y721265D01*
X449229Y721278D01*
X449254Y721286D01*
X449406Y721373D01*
X449559Y721457D01*
X449580Y721474D01*
X449603Y721487D01*
X449856Y721702D01*
X453833Y725679D01*
X460567Y725679D01*
X462622Y723624D01*
X462629Y723618D01*
X462634Y723612D01*
X462784Y723491D01*
X462933Y723369D01*
X462941Y723365D01*
X462948Y723359D01*
X463118Y723271D01*
X463289Y723180D01*
X463298Y723178D01*
X463305Y723174D01*
X463490Y723121D01*
X463675Y723066D01*
X463684Y723065D01*
X463692Y723062D01*
X463883Y723047D01*
X464076Y723029D01*
X464085Y723030D01*
X464094Y723029D01*
X464283Y723052D01*
X464476Y723073D01*
X464485Y723075D01*
X464493Y723076D01*
X464675Y723136D01*
X464860Y723194D01*
X464868Y723198D01*
X464876Y723201D01*
X465045Y723296D01*
X465212Y723389D01*
X465219Y723395D01*
X465227Y723399D01*
X465373Y723525D01*
X465519Y723649D01*
X465525Y723656D01*
X465532Y723662D01*
X465649Y723814D01*
X465769Y723965D01*
X465773Y723973D01*
X465778Y723980D01*
X465864Y724152D01*
X465951Y724324D01*
X465954Y724333D01*
X465958Y724341D01*
X466008Y724527D01*
X466059Y724712D01*
X466060Y724721D01*
X466062Y724730D01*
X466089Y725060D01*
X466089Y946655D01*
X466087Y946673D01*
X466089Y946691D01*
X466068Y946874D01*
X466049Y947056D01*
X466044Y947073D01*
X466042Y947091D01*
X465985Y947266D01*
X465931Y947441D01*
X465923Y947457D01*
X465917Y947474D01*
X465827Y947634D01*
X465739Y947795D01*
X465728Y947809D01*
X465719Y947825D01*
X465599Y947964D01*
X465482Y948104D01*
X465468Y948116D01*
X465456Y948129D01*
X465311Y948242D01*
X465168Y948357D01*
X465152Y948365D01*
X465138Y948376D01*
X464973Y948458D01*
X464811Y948542D01*
X464793Y948547D01*
X464777Y948555D01*
X464599Y948603D01*
X464424Y948654D01*
X464406Y948655D01*
X464388Y948660D01*
X464058Y948687D01*
X12192Y948592D01*
X12174Y948590D01*
X12156Y948592D01*
X11974Y948570D01*
X11791Y948552D01*
X11774Y948547D01*
X11757Y948545D01*
X11581Y948487D01*
X11406Y948434D01*
X11391Y948425D01*
X11374Y948420D01*
X11213Y948329D01*
X11052Y948242D01*
X11039Y948231D01*
X11023Y948222D01*
X10884Y948102D01*
X10743Y947984D01*
X10732Y947970D01*
X10718Y947959D01*
X10606Y947814D01*
X10491Y947670D01*
X10482Y947655D01*
X10472Y947641D01*
X10390Y947476D01*
X10305Y947313D01*
X10300Y947296D01*
X10292Y947280D01*
X10245Y947102D01*
X10194Y946926D01*
X10192Y946908D01*
X10188Y946891D01*
X10161Y946561D01*
X10161Y269413D01*
X10169Y269331D01*
X10167Y269249D01*
X10189Y269131D01*
X10201Y269012D01*
X10225Y268933D01*
X10239Y268853D01*
X10284Y268741D01*
X10319Y268627D01*
X10358Y268555D01*
X10388Y268478D01*
X10454Y268378D01*
X10511Y268273D01*
X10563Y268210D01*
X10608Y268141D01*
X10692Y268055D01*
X10768Y267964D01*
X10832Y267912D01*
X10890Y267854D01*
X10989Y267786D01*
X11082Y267711D01*
X11155Y267674D01*
X11223Y267627D01*
X11333Y267581D01*
X11439Y267526D01*
X11518Y267503D01*
X11594Y267471D01*
X11711Y267448D01*
X11826Y267414D01*
X11908Y267408D01*
X11989Y267391D01*
X12108Y267391D01*
X12228Y267382D01*
X12309Y267391D01*
X12391Y267391D01*
X12541Y267418D01*
X12627Y267429D01*
X12666Y267441D01*
X12718Y267451D01*
X12937Y267509D01*
X12937Y236982D01*
X12939Y236964D01*
X12937Y236947D01*
X12958Y236764D01*
X12977Y236582D01*
X12982Y236564D01*
X12984Y236547D01*
X13041Y236372D01*
X13095Y236197D01*
X13103Y236181D01*
X13109Y236164D01*
X13199Y236004D01*
X13287Y235843D01*
X13298Y235829D01*
X13307Y235813D01*
X13427Y235674D01*
X13544Y235533D01*
X13558Y235522D01*
X13570Y235509D01*
X13715Y235396D01*
X13858Y235281D01*
X13874Y235273D01*
X13888Y235262D01*
X14053Y235180D01*
X14215Y235095D01*
X14232Y235091D01*
X14249Y235083D01*
X14427Y235035D01*
X14602Y234984D01*
X14620Y234983D01*
X14637Y234978D01*
X14968Y234951D01*
X17001Y234951D01*
X17001Y234949D01*
X14968Y234949D01*
X14950Y234947D01*
X14932Y234949D01*
X14750Y234927D01*
X14567Y234909D01*
X14550Y234904D01*
X14533Y234902D01*
X14358Y234845D01*
X14182Y234791D01*
X14167Y234783D01*
X14150Y234777D01*
X13990Y234687D01*
X13828Y234599D01*
X13815Y234588D01*
X13799Y234579D01*
X13660Y234459D01*
X13519Y234342D01*
X13508Y234328D01*
X13495Y234316D01*
X13382Y234171D01*
X13267Y234028D01*
X13259Y234012D01*
X13248Y233998D01*
X13166Y233833D01*
X13081Y233670D01*
X13076Y233653D01*
X13068Y233637D01*
X13021Y233459D01*
X12970Y233284D01*
X12968Y233266D01*
X12964Y233249D01*
X12937Y232918D01*
X12937Y202391D01*
X12718Y202449D01*
X12637Y202463D01*
X12558Y202486D01*
X12438Y202495D01*
X12320Y202515D01*
X12238Y202512D01*
X12156Y202518D01*
X12038Y202504D01*
X11918Y202500D01*
X11838Y202481D01*
X11757Y202471D01*
X11643Y202434D01*
X11526Y202407D01*
X11452Y202372D01*
X11374Y202347D01*
X11270Y202288D01*
X11161Y202238D01*
X11095Y202189D01*
X11023Y202149D01*
X10933Y202071D01*
X10836Y202000D01*
X10781Y201939D01*
X10718Y201886D01*
X10645Y201791D01*
X10564Y201703D01*
X10522Y201632D01*
X10472Y201567D01*
X10418Y201460D01*
X10357Y201358D01*
X10329Y201280D01*
X10292Y201207D01*
X10261Y201091D01*
X10221Y200979D01*
X10209Y200898D01*
X10188Y200818D01*
X10175Y200666D01*
X10163Y200580D01*
X10165Y200540D01*
X10161Y200487D01*
X10161Y78913D01*
X10169Y78831D01*
X10167Y78749D01*
X10189Y78631D01*
X10201Y78512D01*
X10225Y78433D01*
X10239Y78353D01*
X10284Y78241D01*
X10319Y78127D01*
X10358Y78055D01*
X10388Y77978D01*
X10454Y77878D01*
X10511Y77773D01*
X10563Y77710D01*
X10608Y77641D01*
X10692Y77555D01*
X10768Y77464D01*
X10832Y77412D01*
X10890Y77354D01*
X10989Y77286D01*
X11082Y77211D01*
X11155Y77174D01*
X11223Y77127D01*
X11333Y77081D01*
X11439Y77026D01*
X11518Y77003D01*
X11594Y76971D01*
X11711Y76948D01*
X11826Y76914D01*
X11908Y76908D01*
X11989Y76891D01*
X12108Y76891D01*
X12228Y76882D01*
X12309Y76891D01*
X12391Y76891D01*
X12541Y76918D01*
X12627Y76929D01*
X12666Y76941D01*
X12718Y76951D01*
X12937Y77009D01*
X12937Y46482D01*
X12939Y46464D01*
X12937Y46447D01*
X12958Y46264D01*
X12977Y46082D01*
X12982Y46064D01*
X12984Y46047D01*
X13041Y45872D01*
X13095Y45697D01*
X13103Y45681D01*
X13109Y45664D01*
X13199Y45504D01*
X13287Y45343D01*
X13298Y45329D01*
X13307Y45313D01*
X13427Y45174D01*
X13544Y45033D01*
X13558Y45022D01*
X13570Y45009D01*
X13715Y44896D01*
X13858Y44781D01*
X13874Y44773D01*
X13888Y44762D01*
X14053Y44680D01*
X14215Y44595D01*
X14232Y44591D01*
X14249Y44583D01*
X14427Y44535D01*
X14602Y44484D01*
X14620Y44483D01*
X14637Y44478D01*
X14968Y44451D01*
X17001Y44451D01*
X17001Y42418D01*
X17003Y42400D01*
X17001Y42382D01*
X17023Y42200D01*
X17041Y42017D01*
X17046Y42000D01*
X17048Y41983D01*
X17105Y41808D01*
X17159Y41632D01*
X17167Y41617D01*
X17173Y41600D01*
X17263Y41440D01*
X17351Y41278D01*
X17362Y41265D01*
X17371Y41249D01*
X17491Y41110D01*
X17608Y40969D01*
X17622Y40958D01*
X17634Y40945D01*
X17779Y40832D01*
X17922Y40717D01*
X17938Y40709D01*
X17952Y40698D01*
X18117Y40616D01*
X18280Y40531D01*
X18297Y40526D01*
X18313Y40518D01*
X18491Y40471D01*
X18666Y40420D01*
X18684Y40418D01*
X18701Y40414D01*
X19032Y40387D01*
X34781Y40387D01*
X34781Y28045D01*
X34476Y25734D01*
X33873Y23482D01*
X32981Y21329D01*
X31816Y19310D01*
X30397Y17461D01*
X28749Y15813D01*
X26900Y14394D01*
X26132Y13951D01*
X26073Y13908D01*
X26008Y13873D01*
X25910Y13791D01*
X25805Y13716D01*
X25755Y13663D01*
X25699Y13616D01*
X25618Y13515D01*
X25531Y13422D01*
X25493Y13359D01*
X25447Y13302D01*
X25388Y13188D01*
X25320Y13078D01*
X25295Y13010D01*
X25261Y12945D01*
X25226Y12821D01*
X25181Y12701D01*
X25170Y12628D01*
X25150Y12558D01*
X25139Y12429D01*
X25120Y12303D01*
X25123Y12230D01*
X25117Y12156D01*
X25132Y12029D01*
X25138Y11901D01*
X25155Y11829D01*
X25164Y11757D01*
X25204Y11634D01*
X25235Y11510D01*
X25266Y11444D01*
X25289Y11374D01*
X25352Y11262D01*
X25407Y11146D01*
X25451Y11087D01*
X25487Y11023D01*
X25571Y10926D01*
X25647Y10823D01*
X25702Y10774D01*
X25750Y10718D01*
X25851Y10640D01*
X25947Y10554D01*
X26010Y10517D01*
X26068Y10472D01*
X26183Y10415D01*
X26293Y10349D01*
X26363Y10325D01*
X26428Y10292D01*
X26552Y10259D01*
X26674Y10217D01*
X26746Y10207D01*
X26817Y10188D01*
X26986Y10174D01*
X27073Y10162D01*
X27106Y10164D01*
X27148Y10161D01*
X61969Y10161D01*
X61973Y10161D01*
G37*
%LPC*%
G36*
X291044Y496343D02*
X291044Y496343D01*
X289094Y497151D01*
X287601Y498644D01*
X286793Y500594D01*
X286793Y502706D01*
X287373Y504104D01*
X287382Y504134D01*
X287396Y504162D01*
X287440Y504327D01*
X287489Y504490D01*
X287492Y504521D01*
X287500Y504551D01*
X287527Y504882D01*
X287527Y787146D01*
X287525Y787164D01*
X287527Y787182D01*
X287506Y787364D01*
X287487Y787547D01*
X287482Y787564D01*
X287480Y787581D01*
X287423Y787756D01*
X287369Y787932D01*
X287361Y787947D01*
X287355Y787964D01*
X287265Y788124D01*
X287177Y788286D01*
X287166Y788299D01*
X287157Y788315D01*
X287037Y788454D01*
X286920Y788595D01*
X286906Y788606D01*
X286894Y788620D01*
X286749Y788732D01*
X286606Y788847D01*
X286590Y788855D01*
X286576Y788866D01*
X286411Y788948D01*
X286249Y789033D01*
X286232Y789038D01*
X286216Y789046D01*
X286037Y789093D01*
X285862Y789144D01*
X285844Y789146D01*
X285827Y789150D01*
X285496Y789177D01*
X198264Y789177D01*
X198238Y789175D01*
X198211Y789177D01*
X198037Y789155D01*
X197864Y789137D01*
X197838Y789130D01*
X197812Y789126D01*
X197646Y789071D01*
X197479Y789019D01*
X197455Y789006D01*
X197430Y788998D01*
X197278Y788911D01*
X197125Y788827D01*
X197104Y788810D01*
X197081Y788797D01*
X196828Y788582D01*
X193867Y785621D01*
X187133Y785621D01*
X182371Y790383D01*
X182371Y797117D01*
X187133Y801879D01*
X193867Y801879D01*
X196828Y798918D01*
X196849Y798901D01*
X196866Y798880D01*
X197004Y798773D01*
X197140Y798663D01*
X197163Y798650D01*
X197184Y798634D01*
X197341Y798556D01*
X197495Y798474D01*
X197521Y798466D01*
X197545Y798454D01*
X197714Y798409D01*
X197881Y798359D01*
X197908Y798357D01*
X197934Y798350D01*
X198264Y798323D01*
X343810Y798323D01*
X345490Y797627D01*
X353343Y789774D01*
X353364Y789757D01*
X353381Y789736D01*
X353519Y789629D01*
X353655Y789519D01*
X353678Y789506D01*
X353699Y789490D01*
X353856Y789412D01*
X354010Y789330D01*
X354036Y789322D01*
X354060Y789310D01*
X354229Y789265D01*
X354396Y789215D01*
X354423Y789213D01*
X354449Y789206D01*
X354779Y789179D01*
X358967Y789179D01*
X363729Y784417D01*
X363729Y777683D01*
X358967Y772921D01*
X352233Y772921D01*
X347471Y777683D01*
X347471Y781871D01*
X347469Y781897D01*
X347471Y781924D01*
X347449Y782098D01*
X347431Y782271D01*
X347424Y782297D01*
X347420Y782323D01*
X347365Y782489D01*
X347313Y782656D01*
X347300Y782680D01*
X347292Y782705D01*
X347205Y782857D01*
X347121Y783010D01*
X347104Y783031D01*
X347091Y783054D01*
X346876Y783307D01*
X341601Y788582D01*
X341580Y788599D01*
X341563Y788620D01*
X341425Y788727D01*
X341289Y788837D01*
X341266Y788850D01*
X341245Y788866D01*
X341088Y788944D01*
X340934Y789026D01*
X340908Y789034D01*
X340884Y789046D01*
X340715Y789091D01*
X340548Y789141D01*
X340521Y789143D01*
X340495Y789150D01*
X340165Y789177D01*
X298704Y789177D01*
X298686Y789175D01*
X298668Y789177D01*
X298486Y789156D01*
X298303Y789137D01*
X298286Y789132D01*
X298269Y789130D01*
X298094Y789073D01*
X297918Y789019D01*
X297903Y789011D01*
X297886Y789005D01*
X297726Y788915D01*
X297564Y788827D01*
X297551Y788816D01*
X297535Y788807D01*
X297396Y788687D01*
X297255Y788570D01*
X297244Y788556D01*
X297230Y788544D01*
X297118Y788399D01*
X297003Y788256D01*
X296995Y788240D01*
X296984Y788226D01*
X296902Y788061D01*
X296817Y787899D01*
X296812Y787882D01*
X296804Y787866D01*
X296757Y787687D01*
X296706Y787512D01*
X296704Y787494D01*
X296700Y787477D01*
X296673Y787146D01*
X296673Y647954D01*
X296674Y647945D01*
X296673Y647938D01*
X296674Y647930D01*
X296673Y647918D01*
X296694Y647736D01*
X296713Y647553D01*
X296718Y647536D01*
X296720Y647519D01*
X296777Y647344D01*
X296831Y647168D01*
X296839Y647153D01*
X296845Y647136D01*
X296935Y646976D01*
X297023Y646814D01*
X297034Y646801D01*
X297043Y646785D01*
X297163Y646646D01*
X297280Y646505D01*
X297294Y646494D01*
X297306Y646480D01*
X297451Y646368D01*
X297594Y646253D01*
X297610Y646245D01*
X297624Y646234D01*
X297789Y646152D01*
X297951Y646067D01*
X297968Y646062D01*
X297984Y646054D01*
X298163Y646007D01*
X298338Y645956D01*
X298356Y645954D01*
X298373Y645950D01*
X298704Y645923D01*
X303132Y645923D01*
X303158Y645925D01*
X303185Y645923D01*
X303359Y645945D01*
X303532Y645963D01*
X303558Y645970D01*
X303584Y645974D01*
X303750Y646029D01*
X303917Y646081D01*
X303941Y646094D01*
X303966Y646102D01*
X304118Y646189D01*
X304271Y646273D01*
X304292Y646290D01*
X304315Y646303D01*
X304568Y646518D01*
X306291Y648241D01*
X309279Y649479D01*
X325721Y649479D01*
X328709Y648241D01*
X330432Y646518D01*
X330444Y646508D01*
X330451Y646500D01*
X330459Y646494D01*
X330470Y646480D01*
X330608Y646373D01*
X330744Y646263D01*
X330767Y646250D01*
X330788Y646234D01*
X330945Y646156D01*
X331099Y646074D01*
X331125Y646066D01*
X331149Y646054D01*
X331318Y646009D01*
X331485Y645959D01*
X331512Y645957D01*
X331538Y645950D01*
X331868Y645923D01*
X347836Y645923D01*
X347862Y645925D01*
X347889Y645923D01*
X348063Y645945D01*
X348236Y645963D01*
X348262Y645970D01*
X348288Y645974D01*
X348454Y646029D01*
X348621Y646081D01*
X348645Y646094D01*
X348670Y646102D01*
X348822Y646189D01*
X348975Y646273D01*
X348996Y646290D01*
X349019Y646303D01*
X349272Y646518D01*
X352233Y649479D01*
X358967Y649479D01*
X363729Y644717D01*
X363729Y637983D01*
X358967Y633221D01*
X352233Y633221D01*
X349272Y636182D01*
X349251Y636199D01*
X349234Y636220D01*
X349096Y636327D01*
X348960Y636437D01*
X348937Y636450D01*
X348916Y636466D01*
X348759Y636544D01*
X348605Y636626D01*
X348579Y636634D01*
X348555Y636646D01*
X348386Y636691D01*
X348219Y636741D01*
X348192Y636743D01*
X348166Y636750D01*
X347836Y636777D01*
X331868Y636777D01*
X331842Y636775D01*
X331815Y636777D01*
X331641Y636755D01*
X331468Y636737D01*
X331442Y636730D01*
X331416Y636726D01*
X331250Y636671D01*
X331083Y636619D01*
X331059Y636606D01*
X331034Y636598D01*
X330882Y636511D01*
X330729Y636427D01*
X330708Y636410D01*
X330685Y636397D01*
X330432Y636182D01*
X328709Y634459D01*
X325721Y633221D01*
X309279Y633221D01*
X306291Y634459D01*
X304568Y636182D01*
X304547Y636199D01*
X304530Y636220D01*
X304392Y636327D01*
X304256Y636437D01*
X304233Y636450D01*
X304212Y636466D01*
X304055Y636544D01*
X303901Y636626D01*
X303875Y636634D01*
X303851Y636646D01*
X303682Y636691D01*
X303515Y636741D01*
X303488Y636743D01*
X303462Y636750D01*
X303132Y636777D01*
X298704Y636777D01*
X298686Y636775D01*
X298668Y636777D01*
X298486Y636756D01*
X298303Y636737D01*
X298286Y636732D01*
X298269Y636730D01*
X298094Y636673D01*
X297918Y636619D01*
X297903Y636611D01*
X297886Y636605D01*
X297726Y636515D01*
X297564Y636427D01*
X297551Y636416D01*
X297535Y636407D01*
X297396Y636287D01*
X297255Y636170D01*
X297244Y636156D01*
X297230Y636144D01*
X297118Y635999D01*
X297003Y635856D01*
X296995Y635840D01*
X296984Y635826D01*
X296902Y635661D01*
X296817Y635499D01*
X296812Y635482D01*
X296804Y635466D01*
X296757Y635287D01*
X296706Y635112D01*
X296704Y635094D01*
X296700Y635077D01*
X296673Y634746D01*
X296673Y504882D01*
X296676Y504851D01*
X296674Y504819D01*
X296696Y504650D01*
X296713Y504481D01*
X296722Y504451D01*
X296726Y504420D01*
X296827Y504104D01*
X297407Y502706D01*
X297407Y500594D01*
X296599Y498644D01*
X295106Y497151D01*
X293156Y496343D01*
X291044Y496343D01*
G37*
%LPD*%
%LPC*%
G36*
X360079Y442721D02*
X360079Y442721D01*
X357091Y443959D01*
X354751Y446299D01*
X354700Y446394D01*
X354686Y446411D01*
X354675Y446431D01*
X354558Y446566D01*
X354444Y446705D01*
X354426Y446719D01*
X354412Y446736D01*
X354271Y446845D01*
X354131Y446958D01*
X354111Y446969D01*
X354094Y446982D01*
X353933Y447062D01*
X353774Y447145D01*
X353753Y447152D01*
X353733Y447162D01*
X353559Y447208D01*
X353388Y447258D01*
X353366Y447260D01*
X353344Y447266D01*
X353014Y447293D01*
X112827Y447293D01*
X88022Y472098D01*
X88001Y472115D01*
X87983Y472136D01*
X87846Y472243D01*
X87710Y472353D01*
X87687Y472366D01*
X87665Y472382D01*
X87508Y472460D01*
X87354Y472542D01*
X87329Y472550D01*
X87305Y472562D01*
X87135Y472607D01*
X86969Y472657D01*
X86942Y472659D01*
X86916Y472666D01*
X86585Y472693D01*
X68445Y472693D01*
X68418Y472691D01*
X68392Y472693D01*
X68218Y472671D01*
X68044Y472653D01*
X68019Y472646D01*
X67992Y472642D01*
X67826Y472586D01*
X67659Y472535D01*
X67636Y472522D01*
X67610Y472514D01*
X67459Y472427D01*
X67305Y472343D01*
X67285Y472326D01*
X67262Y472313D01*
X67009Y472098D01*
X61253Y466343D01*
X53047Y466343D01*
X47243Y472147D01*
X47243Y480353D01*
X53047Y486157D01*
X61253Y486157D01*
X67009Y480402D01*
X67029Y480385D01*
X67047Y480364D01*
X67185Y480257D01*
X67320Y480147D01*
X67344Y480134D01*
X67365Y480118D01*
X67521Y480040D01*
X67676Y479958D01*
X67701Y479950D01*
X67725Y479938D01*
X67895Y479893D01*
X68062Y479843D01*
X68088Y479841D01*
X68114Y479834D01*
X68445Y479807D01*
X90373Y479807D01*
X115178Y455002D01*
X115199Y454985D01*
X115217Y454964D01*
X115354Y454857D01*
X115490Y454747D01*
X115513Y454734D01*
X115535Y454718D01*
X115692Y454640D01*
X115846Y454558D01*
X115871Y454550D01*
X115895Y454538D01*
X116065Y454493D01*
X116231Y454443D01*
X116258Y454441D01*
X116284Y454434D01*
X116615Y454407D01*
X353014Y454407D01*
X353036Y454409D01*
X353058Y454407D01*
X353235Y454429D01*
X353414Y454447D01*
X353435Y454453D01*
X353458Y454456D01*
X353627Y454512D01*
X353799Y454565D01*
X353819Y454575D01*
X353840Y454582D01*
X353995Y454671D01*
X354153Y454757D01*
X354170Y454771D01*
X354190Y454782D01*
X354325Y454900D01*
X354462Y455014D01*
X354476Y455032D01*
X354493Y455046D01*
X354602Y455188D01*
X354715Y455328D01*
X354725Y455348D01*
X354739Y455366D01*
X354763Y455412D01*
X357091Y457741D01*
X360079Y458979D01*
X376521Y458979D01*
X379509Y457741D01*
X381849Y455401D01*
X381900Y455306D01*
X381914Y455289D01*
X381925Y455269D01*
X382042Y455134D01*
X382156Y454995D01*
X382174Y454981D01*
X382188Y454964D01*
X382330Y454855D01*
X382469Y454742D01*
X382489Y454731D01*
X382506Y454718D01*
X382667Y454638D01*
X382826Y454555D01*
X382847Y454548D01*
X382867Y454538D01*
X383041Y454492D01*
X383212Y454442D01*
X383234Y454440D01*
X383256Y454434D01*
X383586Y454407D01*
X403814Y454407D01*
X403836Y454409D01*
X403858Y454407D01*
X404035Y454429D01*
X404214Y454447D01*
X404235Y454453D01*
X404258Y454456D01*
X404427Y454512D01*
X404599Y454565D01*
X404619Y454575D01*
X404640Y454582D01*
X404795Y454671D01*
X404953Y454757D01*
X404970Y454771D01*
X404990Y454782D01*
X405125Y454900D01*
X405262Y455014D01*
X405276Y455032D01*
X405293Y455046D01*
X405402Y455188D01*
X405515Y455328D01*
X405525Y455348D01*
X405539Y455366D01*
X405563Y455412D01*
X407891Y457741D01*
X410879Y458979D01*
X427321Y458979D01*
X430309Y457741D01*
X432595Y455455D01*
X433833Y452467D01*
X433833Y449233D01*
X432595Y446245D01*
X430309Y443959D01*
X427321Y442721D01*
X410879Y442721D01*
X407891Y443959D01*
X405551Y446299D01*
X405500Y446394D01*
X405486Y446411D01*
X405475Y446431D01*
X405358Y446566D01*
X405244Y446705D01*
X405226Y446719D01*
X405212Y446736D01*
X405071Y446845D01*
X404931Y446958D01*
X404911Y446969D01*
X404894Y446982D01*
X404733Y447062D01*
X404574Y447145D01*
X404553Y447152D01*
X404533Y447162D01*
X404359Y447208D01*
X404188Y447258D01*
X404166Y447260D01*
X404144Y447266D01*
X403814Y447293D01*
X383586Y447293D01*
X383564Y447291D01*
X383542Y447293D01*
X383365Y447271D01*
X383186Y447253D01*
X383165Y447247D01*
X383142Y447244D01*
X382973Y447188D01*
X382801Y447135D01*
X382781Y447125D01*
X382760Y447118D01*
X382605Y447029D01*
X382447Y446943D01*
X382430Y446929D01*
X382410Y446918D01*
X382275Y446800D01*
X382138Y446686D01*
X382124Y446668D01*
X382107Y446654D01*
X381998Y446512D01*
X381885Y446372D01*
X381875Y446352D01*
X381861Y446334D01*
X381837Y446288D01*
X379509Y443959D01*
X376521Y442721D01*
X360079Y442721D01*
G37*
%LPD*%
%LPC*%
G36*
X66665Y202945D02*
X66665Y202945D01*
X60504Y205498D01*
X55788Y210214D01*
X53235Y216375D01*
X53235Y253525D01*
X55788Y259686D01*
X60504Y264402D01*
X66665Y266955D01*
X73335Y266955D01*
X79496Y264402D01*
X84212Y259686D01*
X86765Y253525D01*
X86765Y216375D01*
X84212Y210214D01*
X79496Y205498D01*
X73335Y202945D01*
X66665Y202945D01*
G37*
%LPD*%
%LPC*%
G36*
X124665Y202945D02*
X124665Y202945D01*
X118504Y205498D01*
X113788Y210214D01*
X111235Y216375D01*
X111235Y253525D01*
X113788Y259686D01*
X118504Y264402D01*
X124665Y266955D01*
X131335Y266955D01*
X137496Y264402D01*
X142212Y259686D01*
X144765Y253525D01*
X144765Y216375D01*
X142212Y210214D01*
X137496Y205498D01*
X131335Y202945D01*
X124665Y202945D01*
G37*
%LPD*%
%LPC*%
G36*
X174433Y684021D02*
X174433Y684021D01*
X170456Y687998D01*
X170435Y688015D01*
X170418Y688036D01*
X170280Y688143D01*
X170144Y688253D01*
X170121Y688266D01*
X170100Y688282D01*
X169943Y688360D01*
X169789Y688442D01*
X169763Y688450D01*
X169739Y688462D01*
X169570Y688507D01*
X169403Y688557D01*
X169376Y688559D01*
X169350Y688566D01*
X169020Y688593D01*
X150927Y688593D01*
X126122Y713398D01*
X126101Y713415D01*
X126083Y713436D01*
X125946Y713543D01*
X125810Y713653D01*
X125787Y713666D01*
X125765Y713682D01*
X125608Y713760D01*
X125454Y713842D01*
X125429Y713850D01*
X125405Y713862D01*
X125235Y713907D01*
X125069Y713957D01*
X125042Y713959D01*
X125016Y713966D01*
X124685Y713993D01*
X110380Y713993D01*
X110354Y713991D01*
X110327Y713993D01*
X110153Y713971D01*
X109980Y713953D01*
X109954Y713946D01*
X109928Y713942D01*
X109762Y713887D01*
X109595Y713835D01*
X109571Y713822D01*
X109546Y713814D01*
X109394Y713727D01*
X109241Y713643D01*
X109220Y713626D01*
X109197Y713613D01*
X108944Y713398D01*
X104967Y709421D01*
X98233Y709421D01*
X93471Y714183D01*
X93471Y720917D01*
X98233Y725679D01*
X104967Y725679D01*
X108944Y721702D01*
X108965Y721685D01*
X108982Y721664D01*
X109120Y721557D01*
X109256Y721447D01*
X109279Y721434D01*
X109300Y721418D01*
X109457Y721340D01*
X109611Y721258D01*
X109637Y721250D01*
X109661Y721238D01*
X109830Y721193D01*
X109997Y721143D01*
X110024Y721141D01*
X110050Y721134D01*
X110380Y721107D01*
X128473Y721107D01*
X153278Y696302D01*
X153299Y696285D01*
X153317Y696264D01*
X153454Y696157D01*
X153590Y696047D01*
X153613Y696034D01*
X153635Y696018D01*
X153792Y695940D01*
X153946Y695858D01*
X153971Y695850D01*
X153995Y695838D01*
X154165Y695793D01*
X154331Y695743D01*
X154358Y695741D01*
X154384Y695734D01*
X154715Y695707D01*
X169020Y695707D01*
X169046Y695709D01*
X169073Y695707D01*
X169247Y695729D01*
X169420Y695747D01*
X169446Y695754D01*
X169472Y695758D01*
X169638Y695813D01*
X169805Y695865D01*
X169829Y695878D01*
X169854Y695886D01*
X170006Y695973D01*
X170159Y696057D01*
X170180Y696074D01*
X170203Y696087D01*
X170456Y696302D01*
X174433Y700279D01*
X181167Y700279D01*
X185144Y696302D01*
X185165Y696285D01*
X185182Y696264D01*
X185320Y696157D01*
X185456Y696047D01*
X185479Y696034D01*
X185500Y696018D01*
X185657Y695940D01*
X185811Y695858D01*
X185837Y695850D01*
X185861Y695838D01*
X186030Y695793D01*
X186197Y695743D01*
X186224Y695741D01*
X186250Y695734D01*
X186580Y695707D01*
X194420Y695707D01*
X194446Y695709D01*
X194473Y695707D01*
X194647Y695729D01*
X194820Y695747D01*
X194846Y695754D01*
X194872Y695758D01*
X195038Y695813D01*
X195205Y695865D01*
X195229Y695878D01*
X195254Y695886D01*
X195406Y695973D01*
X195559Y696057D01*
X195580Y696074D01*
X195603Y696087D01*
X195856Y696302D01*
X199833Y700279D01*
X206567Y700279D01*
X210544Y696302D01*
X210565Y696285D01*
X210582Y696264D01*
X210720Y696157D01*
X210856Y696047D01*
X210879Y696034D01*
X210900Y696018D01*
X211057Y695940D01*
X211211Y695858D01*
X211237Y695850D01*
X211261Y695838D01*
X211430Y695793D01*
X211597Y695743D01*
X211624Y695741D01*
X211650Y695734D01*
X211980Y695707D01*
X226014Y695707D01*
X226036Y695709D01*
X226058Y695707D01*
X226235Y695729D01*
X226414Y695747D01*
X226435Y695753D01*
X226458Y695756D01*
X226627Y695812D01*
X226799Y695865D01*
X226819Y695875D01*
X226840Y695882D01*
X226995Y695971D01*
X227153Y696057D01*
X227170Y696071D01*
X227190Y696082D01*
X227325Y696200D01*
X227462Y696314D01*
X227476Y696332D01*
X227493Y696346D01*
X227602Y696488D01*
X227715Y696628D01*
X227725Y696648D01*
X227739Y696666D01*
X227763Y696712D01*
X230091Y699041D01*
X233079Y700279D01*
X249521Y700279D01*
X252509Y699041D01*
X254795Y696755D01*
X256033Y693767D01*
X256033Y690533D01*
X254795Y687545D01*
X252509Y685259D01*
X249521Y684021D01*
X233079Y684021D01*
X230091Y685259D01*
X227751Y687599D01*
X227700Y687694D01*
X227686Y687711D01*
X227675Y687731D01*
X227558Y687866D01*
X227444Y688005D01*
X227426Y688019D01*
X227412Y688036D01*
X227271Y688145D01*
X227131Y688258D01*
X227111Y688269D01*
X227094Y688282D01*
X226933Y688362D01*
X226774Y688445D01*
X226753Y688452D01*
X226733Y688462D01*
X226559Y688508D01*
X226388Y688558D01*
X226366Y688560D01*
X226344Y688566D01*
X226014Y688593D01*
X211980Y688593D01*
X211954Y688591D01*
X211927Y688593D01*
X211753Y688571D01*
X211580Y688553D01*
X211554Y688546D01*
X211528Y688542D01*
X211362Y688487D01*
X211195Y688435D01*
X211171Y688422D01*
X211146Y688414D01*
X210994Y688327D01*
X210841Y688243D01*
X210820Y688226D01*
X210797Y688213D01*
X210544Y687998D01*
X206567Y684021D01*
X199833Y684021D01*
X195856Y687998D01*
X195835Y688015D01*
X195818Y688036D01*
X195680Y688143D01*
X195544Y688253D01*
X195521Y688266D01*
X195500Y688282D01*
X195343Y688360D01*
X195189Y688442D01*
X195163Y688450D01*
X195139Y688462D01*
X194970Y688507D01*
X194803Y688557D01*
X194776Y688559D01*
X194750Y688566D01*
X194420Y688593D01*
X186580Y688593D01*
X186554Y688591D01*
X186527Y688593D01*
X186353Y688571D01*
X186180Y688553D01*
X186154Y688546D01*
X186128Y688542D01*
X185962Y688487D01*
X185795Y688435D01*
X185771Y688422D01*
X185746Y688414D01*
X185594Y688327D01*
X185441Y688243D01*
X185420Y688226D01*
X185397Y688213D01*
X185144Y687998D01*
X181167Y684021D01*
X174433Y684021D01*
G37*
%LPD*%
%LPC*%
G36*
X309279Y709421D02*
X309279Y709421D01*
X306291Y710659D01*
X304005Y712945D01*
X302767Y715933D01*
X302767Y719167D01*
X304005Y722155D01*
X306291Y724441D01*
X309279Y725679D01*
X311912Y725679D01*
X311930Y725681D01*
X311948Y725679D01*
X312130Y725700D01*
X312313Y725719D01*
X312330Y725724D01*
X312347Y725726D01*
X312522Y725783D01*
X312698Y725837D01*
X312713Y725845D01*
X312730Y725851D01*
X312890Y725941D01*
X313052Y726029D01*
X313065Y726040D01*
X313081Y726049D01*
X313220Y726169D01*
X313361Y726286D01*
X313372Y726300D01*
X313386Y726312D01*
X313498Y726457D01*
X313613Y726600D01*
X313621Y726616D01*
X313632Y726630D01*
X313714Y726795D01*
X313799Y726957D01*
X313804Y726974D01*
X313812Y726990D01*
X313859Y727169D01*
X313910Y727344D01*
X313912Y727362D01*
X313916Y727379D01*
X313943Y727710D01*
X313943Y753220D01*
X313941Y753246D01*
X313943Y753273D01*
X313921Y753447D01*
X313903Y753620D01*
X313896Y753646D01*
X313892Y753672D01*
X313836Y753838D01*
X313785Y754005D01*
X313772Y754029D01*
X313764Y754054D01*
X313677Y754206D01*
X313593Y754359D01*
X313576Y754380D01*
X313563Y754403D01*
X313348Y754656D01*
X309371Y758633D01*
X309371Y765367D01*
X314133Y770129D01*
X320867Y770129D01*
X325629Y765367D01*
X325629Y758633D01*
X321652Y754656D01*
X321635Y754635D01*
X321614Y754618D01*
X321507Y754480D01*
X321397Y754344D01*
X321384Y754321D01*
X321368Y754300D01*
X321290Y754143D01*
X321208Y753989D01*
X321200Y753963D01*
X321188Y753939D01*
X321143Y753770D01*
X321093Y753603D01*
X321091Y753576D01*
X321084Y753550D01*
X321057Y753220D01*
X321057Y727710D01*
X321059Y727692D01*
X321057Y727674D01*
X321078Y727492D01*
X321097Y727309D01*
X321102Y727292D01*
X321104Y727275D01*
X321161Y727100D01*
X321215Y726924D01*
X321223Y726909D01*
X321229Y726892D01*
X321319Y726732D01*
X321407Y726570D01*
X321418Y726557D01*
X321427Y726541D01*
X321547Y726402D01*
X321664Y726261D01*
X321678Y726250D01*
X321690Y726236D01*
X321835Y726124D01*
X321978Y726009D01*
X321994Y726001D01*
X322008Y725990D01*
X322173Y725908D01*
X322335Y725823D01*
X322352Y725818D01*
X322368Y725810D01*
X322547Y725763D01*
X322722Y725712D01*
X322740Y725710D01*
X322757Y725706D01*
X323088Y725679D01*
X325721Y725679D01*
X328709Y724441D01*
X331049Y722101D01*
X331100Y722006D01*
X331114Y721989D01*
X331125Y721969D01*
X331242Y721834D01*
X331356Y721695D01*
X331374Y721681D01*
X331388Y721664D01*
X331530Y721555D01*
X331669Y721442D01*
X331689Y721431D01*
X331706Y721418D01*
X331867Y721338D01*
X332026Y721255D01*
X332047Y721248D01*
X332067Y721238D01*
X332241Y721192D01*
X332412Y721142D01*
X332434Y721140D01*
X332456Y721134D01*
X332786Y721107D01*
X346820Y721107D01*
X346846Y721109D01*
X346873Y721107D01*
X347047Y721129D01*
X347220Y721147D01*
X347246Y721154D01*
X347272Y721158D01*
X347438Y721214D01*
X347605Y721265D01*
X347629Y721278D01*
X347654Y721286D01*
X347806Y721373D01*
X347959Y721457D01*
X347980Y721474D01*
X348003Y721487D01*
X348256Y721702D01*
X352233Y725679D01*
X358967Y725679D01*
X362944Y721702D01*
X362965Y721685D01*
X362982Y721664D01*
X363120Y721557D01*
X363256Y721447D01*
X363279Y721434D01*
X363300Y721418D01*
X363457Y721340D01*
X363611Y721258D01*
X363637Y721250D01*
X363661Y721238D01*
X363830Y721193D01*
X363997Y721143D01*
X364024Y721141D01*
X364050Y721134D01*
X364380Y721107D01*
X372220Y721107D01*
X372246Y721109D01*
X372273Y721107D01*
X372447Y721129D01*
X372620Y721147D01*
X372646Y721154D01*
X372672Y721158D01*
X372838Y721214D01*
X373005Y721265D01*
X373029Y721278D01*
X373054Y721286D01*
X373206Y721373D01*
X373359Y721457D01*
X373380Y721474D01*
X373403Y721487D01*
X373656Y721702D01*
X377633Y725679D01*
X384367Y725679D01*
X389129Y720917D01*
X389129Y714183D01*
X384367Y709421D01*
X377633Y709421D01*
X373656Y713398D01*
X373635Y713415D01*
X373618Y713436D01*
X373480Y713543D01*
X373344Y713653D01*
X373321Y713666D01*
X373300Y713682D01*
X373143Y713760D01*
X372989Y713842D01*
X372963Y713850D01*
X372939Y713862D01*
X372770Y713907D01*
X372603Y713957D01*
X372576Y713959D01*
X372550Y713966D01*
X372220Y713993D01*
X364380Y713993D01*
X364354Y713991D01*
X364327Y713993D01*
X364153Y713971D01*
X363980Y713953D01*
X363954Y713946D01*
X363928Y713942D01*
X363762Y713886D01*
X363595Y713835D01*
X363571Y713822D01*
X363546Y713814D01*
X363394Y713727D01*
X363241Y713643D01*
X363220Y713626D01*
X363197Y713613D01*
X362944Y713398D01*
X358967Y709421D01*
X352233Y709421D01*
X348256Y713398D01*
X348235Y713415D01*
X348218Y713436D01*
X348080Y713543D01*
X347944Y713653D01*
X347921Y713666D01*
X347900Y713682D01*
X347743Y713760D01*
X347589Y713842D01*
X347563Y713850D01*
X347539Y713862D01*
X347370Y713907D01*
X347203Y713957D01*
X347176Y713959D01*
X347150Y713966D01*
X346820Y713993D01*
X332786Y713993D01*
X332764Y713991D01*
X332742Y713993D01*
X332565Y713971D01*
X332386Y713953D01*
X332365Y713947D01*
X332342Y713944D01*
X332173Y713888D01*
X332001Y713835D01*
X331981Y713825D01*
X331960Y713818D01*
X331805Y713729D01*
X331647Y713643D01*
X331630Y713629D01*
X331610Y713618D01*
X331475Y713500D01*
X331338Y713386D01*
X331324Y713368D01*
X331307Y713354D01*
X331198Y713212D01*
X331085Y713072D01*
X331075Y713052D01*
X331061Y713034D01*
X331037Y712988D01*
X328709Y710659D01*
X325721Y709421D01*
X309279Y709421D01*
G37*
%LPD*%
%LPC*%
G36*
X188605Y555624D02*
X188605Y555624D01*
X185104Y557074D01*
X182424Y559754D01*
X180974Y563255D01*
X180974Y567045D01*
X182424Y570546D01*
X185104Y573226D01*
X188605Y574676D01*
X192395Y574676D01*
X195896Y573226D01*
X198576Y570546D01*
X198818Y569961D01*
X198828Y569941D01*
X198835Y569920D01*
X198924Y569764D01*
X199008Y569606D01*
X199022Y569589D01*
X199033Y569569D01*
X199150Y569434D01*
X199265Y569295D01*
X199282Y569281D01*
X199296Y569264D01*
X199438Y569155D01*
X199577Y569042D01*
X199597Y569031D01*
X199615Y569018D01*
X199775Y568938D01*
X199934Y568855D01*
X199955Y568848D01*
X199975Y568838D01*
X200149Y568792D01*
X200320Y568742D01*
X200342Y568740D01*
X200364Y568734D01*
X200695Y568707D01*
X226014Y568707D01*
X226036Y568709D01*
X226058Y568707D01*
X226236Y568729D01*
X226414Y568747D01*
X226436Y568753D01*
X226458Y568756D01*
X226628Y568812D01*
X226799Y568865D01*
X226819Y568875D01*
X226840Y568883D01*
X226996Y568971D01*
X227153Y569057D01*
X227170Y569071D01*
X227190Y569082D01*
X227325Y569200D01*
X227462Y569314D01*
X227476Y569332D01*
X227493Y569347D01*
X227602Y569489D01*
X227715Y569628D01*
X227725Y569648D01*
X227739Y569666D01*
X227763Y569713D01*
X230091Y572041D01*
X232346Y572975D01*
X233079Y573279D01*
X235712Y573279D01*
X235730Y573281D01*
X235748Y573279D01*
X235930Y573300D01*
X236113Y573319D01*
X236130Y573324D01*
X236147Y573326D01*
X236322Y573383D01*
X236498Y573437D01*
X236513Y573445D01*
X236530Y573451D01*
X236690Y573541D01*
X236852Y573629D01*
X236865Y573640D01*
X236881Y573649D01*
X237020Y573769D01*
X237161Y573886D01*
X237172Y573900D01*
X237186Y573912D01*
X237298Y574057D01*
X237413Y574200D01*
X237421Y574216D01*
X237432Y574230D01*
X237514Y574395D01*
X237599Y574557D01*
X237604Y574574D01*
X237612Y574590D01*
X237659Y574769D01*
X237710Y574944D01*
X237712Y574962D01*
X237716Y574979D01*
X237743Y575310D01*
X237743Y580390D01*
X237741Y580408D01*
X237743Y580426D01*
X237722Y580608D01*
X237703Y580791D01*
X237698Y580808D01*
X237696Y580825D01*
X237639Y581000D01*
X237585Y581176D01*
X237577Y581191D01*
X237571Y581208D01*
X237481Y581368D01*
X237393Y581530D01*
X237382Y581543D01*
X237373Y581559D01*
X237253Y581698D01*
X237136Y581839D01*
X237122Y581850D01*
X237110Y581864D01*
X236965Y581976D01*
X236822Y582091D01*
X236806Y582099D01*
X236792Y582110D01*
X236627Y582192D01*
X236465Y582277D01*
X236448Y582282D01*
X236432Y582290D01*
X236253Y582337D01*
X236078Y582388D01*
X236060Y582390D01*
X236043Y582394D01*
X235712Y582421D01*
X233079Y582421D01*
X230091Y583659D01*
X227805Y585945D01*
X226567Y588933D01*
X226567Y592167D01*
X227805Y595155D01*
X230091Y597441D01*
X233079Y598679D01*
X249521Y598679D01*
X252509Y597441D01*
X254795Y595155D01*
X256033Y592167D01*
X256033Y588933D01*
X254795Y585945D01*
X252509Y583659D01*
X249521Y582421D01*
X246888Y582421D01*
X246870Y582419D01*
X246852Y582421D01*
X246670Y582400D01*
X246487Y582381D01*
X246470Y582376D01*
X246453Y582374D01*
X246278Y582317D01*
X246102Y582263D01*
X246087Y582255D01*
X246070Y582249D01*
X245910Y582159D01*
X245748Y582071D01*
X245735Y582060D01*
X245719Y582051D01*
X245580Y581931D01*
X245439Y581814D01*
X245428Y581800D01*
X245414Y581788D01*
X245302Y581643D01*
X245187Y581500D01*
X245179Y581484D01*
X245168Y581470D01*
X245086Y581305D01*
X245001Y581143D01*
X244996Y581126D01*
X244988Y581110D01*
X244941Y580931D01*
X244890Y580756D01*
X244888Y580738D01*
X244884Y580721D01*
X244857Y580390D01*
X244857Y575310D01*
X244859Y575292D01*
X244857Y575274D01*
X244878Y575092D01*
X244897Y574909D01*
X244902Y574892D01*
X244904Y574875D01*
X244961Y574700D01*
X245015Y574524D01*
X245023Y574509D01*
X245029Y574492D01*
X245119Y574332D01*
X245207Y574170D01*
X245218Y574157D01*
X245227Y574141D01*
X245347Y574002D01*
X245464Y573861D01*
X245478Y573850D01*
X245490Y573836D01*
X245635Y573724D01*
X245778Y573609D01*
X245794Y573601D01*
X245808Y573590D01*
X245973Y573508D01*
X246135Y573423D01*
X246152Y573418D01*
X246168Y573410D01*
X246347Y573363D01*
X246522Y573312D01*
X246540Y573310D01*
X246557Y573306D01*
X246888Y573279D01*
X249521Y573279D01*
X252509Y572041D01*
X254795Y569755D01*
X256033Y566767D01*
X256033Y563533D01*
X254795Y560545D01*
X252509Y558259D01*
X249521Y557021D01*
X233079Y557021D01*
X230091Y558259D01*
X227751Y560599D01*
X227700Y560694D01*
X227686Y560711D01*
X227675Y560731D01*
X227558Y560867D01*
X227444Y561004D01*
X227426Y561019D01*
X227412Y561036D01*
X227271Y561145D01*
X227131Y561258D01*
X227111Y561269D01*
X227094Y561282D01*
X226933Y561362D01*
X226775Y561445D01*
X226753Y561452D01*
X226733Y561462D01*
X226559Y561508D01*
X226388Y561558D01*
X226366Y561560D01*
X226344Y561566D01*
X226014Y561593D01*
X200695Y561593D01*
X200672Y561591D01*
X200650Y561593D01*
X200473Y561571D01*
X200294Y561553D01*
X200273Y561547D01*
X200250Y561544D01*
X200081Y561488D01*
X199909Y561435D01*
X199889Y561425D01*
X199868Y561418D01*
X199713Y561329D01*
X199555Y561243D01*
X199538Y561229D01*
X199519Y561218D01*
X199383Y561100D01*
X199246Y560986D01*
X199232Y560968D01*
X199215Y560954D01*
X199106Y560812D01*
X198993Y560672D01*
X198983Y560652D01*
X198970Y560634D01*
X198818Y560339D01*
X198576Y559754D01*
X195896Y557074D01*
X192395Y555624D01*
X188605Y555624D01*
G37*
%LPD*%
%LPC*%
G36*
X174433Y709421D02*
X174433Y709421D01*
X169671Y714183D01*
X169671Y720917D01*
X174433Y725679D01*
X181167Y725679D01*
X183476Y723370D01*
X183483Y723364D01*
X183488Y723358D01*
X183638Y723237D01*
X183787Y723115D01*
X183795Y723111D01*
X183802Y723105D01*
X183972Y723017D01*
X184143Y722926D01*
X184152Y722924D01*
X184159Y722920D01*
X184344Y722867D01*
X184529Y722812D01*
X184538Y722811D01*
X184546Y722808D01*
X184737Y722793D01*
X184930Y722775D01*
X184939Y722776D01*
X184948Y722775D01*
X185137Y722798D01*
X185330Y722819D01*
X185339Y722821D01*
X185347Y722822D01*
X185529Y722882D01*
X185714Y722940D01*
X185722Y722944D01*
X185730Y722947D01*
X185899Y723042D01*
X186066Y723135D01*
X186073Y723141D01*
X186081Y723145D01*
X186227Y723271D01*
X186373Y723395D01*
X186379Y723402D01*
X186386Y723408D01*
X186503Y723560D01*
X186623Y723711D01*
X186627Y723719D01*
X186632Y723726D01*
X186718Y723898D01*
X186805Y724070D01*
X186808Y724079D01*
X186812Y724087D01*
X186862Y724273D01*
X186913Y724458D01*
X186914Y724467D01*
X186916Y724476D01*
X186943Y724806D01*
X186943Y734170D01*
X186941Y734196D01*
X186943Y734223D01*
X186921Y734397D01*
X186903Y734570D01*
X186896Y734596D01*
X186892Y734622D01*
X186837Y734788D01*
X186785Y734955D01*
X186772Y734979D01*
X186764Y735004D01*
X186677Y735156D01*
X186593Y735309D01*
X186576Y735330D01*
X186563Y735353D01*
X186348Y735606D01*
X182371Y739583D01*
X182371Y746317D01*
X187133Y751079D01*
X193867Y751079D01*
X198629Y746317D01*
X198629Y739583D01*
X194652Y735606D01*
X194635Y735585D01*
X194614Y735568D01*
X194507Y735430D01*
X194397Y735294D01*
X194384Y735271D01*
X194368Y735250D01*
X194290Y735093D01*
X194208Y734939D01*
X194200Y734913D01*
X194188Y734889D01*
X194143Y734720D01*
X194093Y734553D01*
X194091Y734526D01*
X194084Y734500D01*
X194057Y734170D01*
X194057Y724806D01*
X194058Y724798D01*
X194057Y724789D01*
X194078Y724597D01*
X194097Y724406D01*
X194099Y724397D01*
X194100Y724388D01*
X194158Y724206D01*
X194215Y724021D01*
X194219Y724013D01*
X194222Y724004D01*
X194315Y723836D01*
X194407Y723667D01*
X194412Y723660D01*
X194417Y723652D01*
X194542Y723504D01*
X194664Y723358D01*
X194671Y723352D01*
X194677Y723345D01*
X194828Y723226D01*
X194978Y723105D01*
X194986Y723101D01*
X194993Y723096D01*
X195166Y723008D01*
X195335Y722920D01*
X195344Y722917D01*
X195352Y722913D01*
X195538Y722861D01*
X195722Y722808D01*
X195731Y722808D01*
X195740Y722805D01*
X195933Y722791D01*
X196124Y722775D01*
X196132Y722776D01*
X196141Y722776D01*
X196334Y722800D01*
X196523Y722822D01*
X196532Y722825D01*
X196541Y722826D01*
X196724Y722888D01*
X196906Y722947D01*
X196914Y722952D01*
X196922Y722954D01*
X197088Y723050D01*
X197257Y723145D01*
X197264Y723151D01*
X197271Y723155D01*
X197524Y723370D01*
X199833Y725679D01*
X206567Y725679D01*
X210544Y721702D01*
X210565Y721685D01*
X210582Y721664D01*
X210720Y721557D01*
X210856Y721447D01*
X210879Y721434D01*
X210900Y721418D01*
X211057Y721340D01*
X211211Y721258D01*
X211237Y721250D01*
X211261Y721238D01*
X211430Y721193D01*
X211597Y721143D01*
X211624Y721141D01*
X211650Y721134D01*
X211980Y721107D01*
X226014Y721107D01*
X226036Y721109D01*
X226058Y721107D01*
X226235Y721129D01*
X226414Y721147D01*
X226435Y721153D01*
X226458Y721156D01*
X226627Y721212D01*
X226799Y721265D01*
X226819Y721275D01*
X226840Y721282D01*
X226995Y721371D01*
X227153Y721457D01*
X227170Y721471D01*
X227190Y721482D01*
X227325Y721600D01*
X227462Y721714D01*
X227476Y721732D01*
X227493Y721746D01*
X227602Y721888D01*
X227715Y722028D01*
X227725Y722048D01*
X227739Y722066D01*
X227763Y722112D01*
X230091Y724441D01*
X233079Y725679D01*
X249521Y725679D01*
X252509Y724441D01*
X254795Y722155D01*
X256033Y719167D01*
X256033Y715933D01*
X254795Y712945D01*
X252509Y710659D01*
X249521Y709421D01*
X233079Y709421D01*
X230091Y710659D01*
X227751Y712999D01*
X227700Y713094D01*
X227686Y713111D01*
X227675Y713131D01*
X227558Y713266D01*
X227444Y713405D01*
X227426Y713419D01*
X227412Y713436D01*
X227271Y713545D01*
X227131Y713658D01*
X227111Y713669D01*
X227094Y713682D01*
X226933Y713762D01*
X226774Y713845D01*
X226753Y713852D01*
X226733Y713862D01*
X226559Y713908D01*
X226388Y713958D01*
X226366Y713960D01*
X226344Y713966D01*
X226014Y713993D01*
X211980Y713993D01*
X211954Y713991D01*
X211927Y713993D01*
X211753Y713971D01*
X211580Y713953D01*
X211554Y713946D01*
X211528Y713942D01*
X211362Y713887D01*
X211195Y713835D01*
X211171Y713822D01*
X211146Y713814D01*
X210994Y713727D01*
X210841Y713643D01*
X210820Y713626D01*
X210797Y713613D01*
X210544Y713398D01*
X206567Y709421D01*
X199833Y709421D01*
X195856Y713398D01*
X195835Y713415D01*
X195818Y713436D01*
X195680Y713543D01*
X195544Y713653D01*
X195521Y713666D01*
X195500Y713682D01*
X195343Y713760D01*
X195189Y713842D01*
X195163Y713850D01*
X195139Y713862D01*
X194970Y713907D01*
X194803Y713957D01*
X194776Y713959D01*
X194750Y713966D01*
X194420Y713993D01*
X186580Y713993D01*
X186554Y713991D01*
X186527Y713993D01*
X186353Y713971D01*
X186180Y713953D01*
X186154Y713946D01*
X186128Y713942D01*
X185962Y713887D01*
X185795Y713835D01*
X185771Y713822D01*
X185746Y713814D01*
X185594Y713727D01*
X185441Y713643D01*
X185420Y713626D01*
X185397Y713613D01*
X185144Y713398D01*
X181167Y709421D01*
X174433Y709421D01*
G37*
%LPD*%
%LPC*%
G36*
X48136Y657243D02*
X48136Y657243D01*
X47243Y658136D01*
X47243Y676164D01*
X48136Y677057D01*
X66164Y677057D01*
X67057Y676164D01*
X67057Y672338D01*
X67058Y672325D01*
X67057Y672313D01*
X67058Y672308D01*
X67057Y672302D01*
X67078Y672120D01*
X67097Y671937D01*
X67102Y671920D01*
X67104Y671903D01*
X67161Y671728D01*
X67215Y671552D01*
X67223Y671537D01*
X67229Y671520D01*
X67319Y671360D01*
X67407Y671198D01*
X67418Y671185D01*
X67427Y671169D01*
X67547Y671030D01*
X67664Y670889D01*
X67678Y670878D01*
X67690Y670864D01*
X67835Y670752D01*
X67978Y670637D01*
X67994Y670629D01*
X68008Y670618D01*
X68173Y670536D01*
X68335Y670451D01*
X68352Y670446D01*
X68368Y670438D01*
X68547Y670391D01*
X68722Y670340D01*
X68740Y670338D01*
X68757Y670334D01*
X69088Y670307D01*
X73885Y670307D01*
X73912Y670309D01*
X73939Y670307D01*
X74113Y670329D01*
X74286Y670347D01*
X74311Y670354D01*
X74338Y670358D01*
X74504Y670413D01*
X74671Y670465D01*
X74694Y670478D01*
X74720Y670486D01*
X74871Y670573D01*
X75025Y670657D01*
X75045Y670674D01*
X75069Y670687D01*
X75322Y670902D01*
X78398Y673978D01*
X78415Y673999D01*
X78436Y674017D01*
X78543Y674154D01*
X78653Y674290D01*
X78666Y674313D01*
X78682Y674335D01*
X78760Y674492D01*
X78842Y674646D01*
X78850Y674671D01*
X78862Y674695D01*
X78907Y674865D01*
X78957Y675031D01*
X78959Y675058D01*
X78966Y675084D01*
X78993Y675415D01*
X78993Y731723D01*
X93777Y746507D01*
X105520Y746507D01*
X105546Y746509D01*
X105573Y746507D01*
X105747Y746529D01*
X105920Y746547D01*
X105946Y746554D01*
X105972Y746558D01*
X106138Y746613D01*
X106305Y746665D01*
X106329Y746678D01*
X106354Y746686D01*
X106506Y746773D01*
X106659Y746857D01*
X106680Y746874D01*
X106703Y746887D01*
X106956Y747102D01*
X110933Y751079D01*
X117667Y751079D01*
X122429Y746317D01*
X122429Y739583D01*
X117667Y734821D01*
X110933Y734821D01*
X106956Y738798D01*
X106942Y738810D01*
X106932Y738822D01*
X106926Y738826D01*
X106918Y738836D01*
X106780Y738943D01*
X106644Y739053D01*
X106621Y739066D01*
X106600Y739082D01*
X106443Y739160D01*
X106289Y739242D01*
X106263Y739250D01*
X106239Y739262D01*
X106070Y739307D01*
X105903Y739357D01*
X105876Y739359D01*
X105850Y739366D01*
X105520Y739393D01*
X97565Y739393D01*
X97538Y739391D01*
X97511Y739393D01*
X97337Y739371D01*
X97164Y739353D01*
X97139Y739346D01*
X97112Y739342D01*
X96946Y739287D01*
X96779Y739235D01*
X96756Y739222D01*
X96730Y739214D01*
X96579Y739127D01*
X96425Y739043D01*
X96405Y739026D01*
X96381Y739013D01*
X96128Y738798D01*
X86702Y729372D01*
X86685Y729351D01*
X86664Y729333D01*
X86557Y729196D01*
X86447Y729060D01*
X86434Y729037D01*
X86418Y729015D01*
X86340Y728858D01*
X86258Y728704D01*
X86250Y728679D01*
X86238Y728655D01*
X86193Y728485D01*
X86143Y728319D01*
X86141Y728292D01*
X86134Y728266D01*
X86107Y727935D01*
X86107Y671627D01*
X77673Y663193D01*
X69088Y663193D01*
X69070Y663191D01*
X69052Y663193D01*
X68870Y663172D01*
X68687Y663153D01*
X68670Y663148D01*
X68653Y663146D01*
X68478Y663089D01*
X68302Y663035D01*
X68287Y663027D01*
X68270Y663021D01*
X68110Y662931D01*
X67948Y662843D01*
X67935Y662832D01*
X67919Y662823D01*
X67780Y662703D01*
X67639Y662586D01*
X67628Y662572D01*
X67614Y662560D01*
X67502Y662415D01*
X67387Y662272D01*
X67379Y662256D01*
X67368Y662242D01*
X67286Y662077D01*
X67201Y661915D01*
X67196Y661898D01*
X67188Y661882D01*
X67141Y661703D01*
X67090Y661528D01*
X67088Y661510D01*
X67084Y661493D01*
X67057Y661162D01*
X67057Y658136D01*
X66164Y657243D01*
X48136Y657243D01*
G37*
%LPD*%
%LPC*%
G36*
X428433Y772921D02*
X428433Y772921D01*
X423671Y777683D01*
X423671Y784417D01*
X428433Y789179D01*
X434057Y789179D01*
X434084Y789181D01*
X434111Y789179D01*
X434285Y789201D01*
X434458Y789219D01*
X434483Y789226D01*
X434510Y789230D01*
X434676Y789285D01*
X434843Y789337D01*
X434866Y789350D01*
X434892Y789358D01*
X435043Y789445D01*
X435197Y789529D01*
X435217Y789546D01*
X435241Y789559D01*
X435494Y789774D01*
X453048Y807328D01*
X453065Y807349D01*
X453086Y807367D01*
X453193Y807504D01*
X453303Y807640D01*
X453316Y807663D01*
X453332Y807685D01*
X453410Y807842D01*
X453492Y807996D01*
X453500Y808021D01*
X453512Y808045D01*
X453557Y808215D01*
X453607Y808381D01*
X453609Y808408D01*
X453616Y808434D01*
X453643Y808765D01*
X453643Y842235D01*
X453641Y842262D01*
X453643Y842289D01*
X453621Y842463D01*
X453603Y842636D01*
X453596Y842661D01*
X453592Y842688D01*
X453537Y842854D01*
X453485Y843021D01*
X453472Y843044D01*
X453464Y843070D01*
X453377Y843221D01*
X453293Y843375D01*
X453276Y843395D01*
X453263Y843419D01*
X453048Y843672D01*
X443622Y853098D01*
X443601Y853115D01*
X443583Y853136D01*
X443446Y853243D01*
X443310Y853353D01*
X443287Y853366D01*
X443265Y853382D01*
X443108Y853460D01*
X442954Y853542D01*
X442929Y853550D01*
X442905Y853562D01*
X442735Y853607D01*
X442569Y853657D01*
X442542Y853659D01*
X442516Y853666D01*
X442185Y853693D01*
X434386Y853693D01*
X434364Y853691D01*
X434342Y853693D01*
X434165Y853671D01*
X433986Y853653D01*
X433965Y853647D01*
X433942Y853644D01*
X433773Y853588D01*
X433601Y853535D01*
X433581Y853525D01*
X433560Y853518D01*
X433405Y853429D01*
X433247Y853343D01*
X433230Y853329D01*
X433210Y853318D01*
X433075Y853200D01*
X432938Y853086D01*
X432924Y853068D01*
X432907Y853054D01*
X432798Y852912D01*
X432685Y852772D01*
X432675Y852752D01*
X432661Y852734D01*
X432637Y852688D01*
X430309Y850359D01*
X427321Y849121D01*
X410879Y849121D01*
X407891Y850359D01*
X405605Y852645D01*
X404367Y855633D01*
X404367Y858867D01*
X405605Y861855D01*
X407891Y864141D01*
X410879Y865379D01*
X427321Y865379D01*
X430309Y864141D01*
X432649Y861801D01*
X432700Y861706D01*
X432714Y861689D01*
X432725Y861669D01*
X432842Y861534D01*
X432956Y861395D01*
X432974Y861381D01*
X432988Y861364D01*
X433130Y861255D01*
X433269Y861142D01*
X433289Y861131D01*
X433306Y861118D01*
X433467Y861038D01*
X433626Y860955D01*
X433647Y860948D01*
X433667Y860938D01*
X433841Y860892D01*
X434012Y860842D01*
X434034Y860840D01*
X434056Y860834D01*
X434386Y860807D01*
X445973Y860807D01*
X460757Y846023D01*
X460757Y804977D01*
X440524Y784744D01*
X440507Y784723D01*
X440486Y784705D01*
X440379Y784568D01*
X440269Y784432D01*
X440256Y784409D01*
X440240Y784387D01*
X440162Y784230D01*
X440080Y784076D01*
X440072Y784051D01*
X440060Y784027D01*
X440015Y783857D01*
X439965Y783691D01*
X439963Y783664D01*
X439956Y783638D01*
X439929Y783307D01*
X439929Y777683D01*
X435167Y772921D01*
X428433Y772921D01*
G37*
%LPD*%
%LPC*%
G36*
X360079Y468121D02*
X360079Y468121D01*
X357091Y469359D01*
X354805Y471645D01*
X353567Y474633D01*
X353567Y477867D01*
X354805Y480855D01*
X357091Y483141D01*
X360079Y484379D01*
X370557Y484379D01*
X370584Y484381D01*
X370611Y484379D01*
X370785Y484401D01*
X370958Y484419D01*
X370984Y484426D01*
X371010Y484430D01*
X371176Y484485D01*
X371343Y484537D01*
X371367Y484550D01*
X371392Y484558D01*
X371543Y484645D01*
X371697Y484729D01*
X371717Y484746D01*
X371741Y484759D01*
X371994Y484974D01*
X417627Y530607D01*
X423020Y530607D01*
X423046Y530609D01*
X423073Y530607D01*
X423247Y530629D01*
X423420Y530647D01*
X423446Y530654D01*
X423472Y530658D01*
X423638Y530713D01*
X423805Y530765D01*
X423829Y530778D01*
X423854Y530786D01*
X424006Y530873D01*
X424159Y530957D01*
X424180Y530974D01*
X424203Y530987D01*
X424456Y531202D01*
X428433Y535179D01*
X435167Y535179D01*
X439929Y530417D01*
X439929Y523683D01*
X435167Y518921D01*
X428433Y518921D01*
X424456Y522898D01*
X424435Y522915D01*
X424418Y522936D01*
X424280Y523043D01*
X424144Y523153D01*
X424121Y523166D01*
X424100Y523182D01*
X423943Y523260D01*
X423789Y523342D01*
X423763Y523350D01*
X423739Y523362D01*
X423570Y523407D01*
X423403Y523457D01*
X423376Y523459D01*
X423350Y523466D01*
X423020Y523493D01*
X421415Y523493D01*
X421388Y523491D01*
X421361Y523493D01*
X421187Y523471D01*
X421014Y523453D01*
X420989Y523446D01*
X420962Y523442D01*
X420796Y523387D01*
X420629Y523335D01*
X420606Y523322D01*
X420580Y523314D01*
X420429Y523227D01*
X420275Y523143D01*
X420255Y523126D01*
X420231Y523113D01*
X419978Y522898D01*
X381301Y484221D01*
X381290Y484207D01*
X381276Y484196D01*
X381162Y484051D01*
X381046Y483910D01*
X381038Y483894D01*
X381027Y483880D01*
X380943Y483715D01*
X380857Y483554D01*
X380852Y483537D01*
X380844Y483521D01*
X380795Y483344D01*
X380743Y483168D01*
X380741Y483150D01*
X380736Y483133D01*
X380723Y482950D01*
X380706Y482767D01*
X380708Y482749D01*
X380707Y482732D01*
X380730Y482550D01*
X380750Y482367D01*
X380755Y482350D01*
X380757Y482332D01*
X380816Y482159D01*
X380871Y481983D01*
X380880Y481967D01*
X380886Y481950D01*
X380978Y481791D01*
X381066Y481631D01*
X381078Y481617D01*
X381087Y481602D01*
X381301Y481349D01*
X381795Y480855D01*
X383033Y477867D01*
X383033Y474633D01*
X381795Y471645D01*
X379509Y469359D01*
X376521Y468121D01*
X360079Y468121D01*
G37*
%LPD*%
%LPC*%
G36*
X110933Y760221D02*
X110933Y760221D01*
X106171Y764983D01*
X106171Y771717D01*
X110933Y776479D01*
X116557Y776479D01*
X116584Y776481D01*
X116611Y776479D01*
X116785Y776501D01*
X116958Y776519D01*
X116984Y776526D01*
X117010Y776530D01*
X117176Y776585D01*
X117343Y776637D01*
X117367Y776650D01*
X117392Y776658D01*
X117543Y776745D01*
X117697Y776829D01*
X117717Y776846D01*
X117741Y776859D01*
X117994Y777074D01*
X163758Y822838D01*
X163777Y822862D01*
X163801Y822882D01*
X163905Y823017D01*
X164013Y823149D01*
X164027Y823177D01*
X164046Y823201D01*
X164198Y823497D01*
X164305Y823755D01*
X166591Y826041D01*
X169579Y827279D01*
X186021Y827279D01*
X189009Y826041D01*
X191295Y823755D01*
X192533Y820767D01*
X192533Y817533D01*
X191295Y814545D01*
X189009Y812259D01*
X186021Y811021D01*
X169579Y811021D01*
X166591Y812259D01*
X166351Y812499D01*
X166338Y812510D01*
X166326Y812524D01*
X166182Y812638D01*
X166040Y812754D01*
X166024Y812762D01*
X166010Y812773D01*
X165846Y812857D01*
X165684Y812943D01*
X165667Y812948D01*
X165651Y812956D01*
X165475Y813005D01*
X165298Y813057D01*
X165281Y813059D01*
X165263Y813064D01*
X165080Y813077D01*
X164897Y813094D01*
X164880Y813092D01*
X164862Y813093D01*
X164679Y813070D01*
X164497Y813050D01*
X164480Y813045D01*
X164462Y813043D01*
X164288Y812984D01*
X164113Y812929D01*
X164098Y812920D01*
X164081Y812914D01*
X163921Y812823D01*
X163761Y812734D01*
X163747Y812722D01*
X163732Y812714D01*
X163479Y812499D01*
X123024Y772044D01*
X123007Y772023D01*
X122986Y772006D01*
X122879Y771868D01*
X122769Y771732D01*
X122756Y771709D01*
X122740Y771687D01*
X122662Y771530D01*
X122580Y771376D01*
X122572Y771351D01*
X122560Y771327D01*
X122515Y771157D01*
X122465Y770991D01*
X122463Y770964D01*
X122456Y770938D01*
X122429Y770607D01*
X122429Y764983D01*
X117667Y760221D01*
X110933Y760221D01*
G37*
%LPD*%
%LPC*%
G36*
X309279Y557021D02*
X309279Y557021D01*
X306291Y558259D01*
X304005Y560545D01*
X302767Y563533D01*
X302767Y566767D01*
X304005Y569755D01*
X306291Y572041D01*
X308546Y572975D01*
X309279Y573279D01*
X325721Y573279D01*
X328709Y572041D01*
X331049Y569701D01*
X331100Y569606D01*
X331114Y569589D01*
X331125Y569569D01*
X331242Y569434D01*
X331356Y569295D01*
X331374Y569281D01*
X331388Y569264D01*
X331530Y569155D01*
X331669Y569042D01*
X331689Y569031D01*
X331706Y569018D01*
X331867Y568938D01*
X332026Y568855D01*
X332047Y568848D01*
X332067Y568838D01*
X332241Y568792D01*
X332412Y568742D01*
X332434Y568740D01*
X332456Y568734D01*
X332786Y568707D01*
X346820Y568707D01*
X346846Y568709D01*
X346873Y568707D01*
X347047Y568729D01*
X347220Y568747D01*
X347246Y568754D01*
X347272Y568758D01*
X347438Y568814D01*
X347605Y568865D01*
X347629Y568878D01*
X347654Y568886D01*
X347806Y568973D01*
X347959Y569057D01*
X347980Y569074D01*
X348003Y569087D01*
X348256Y569302D01*
X352233Y573279D01*
X358967Y573279D01*
X362944Y569302D01*
X362965Y569285D01*
X362982Y569264D01*
X363120Y569157D01*
X363256Y569047D01*
X363279Y569034D01*
X363300Y569018D01*
X363457Y568940D01*
X363611Y568858D01*
X363637Y568850D01*
X363661Y568838D01*
X363830Y568793D01*
X363997Y568743D01*
X364024Y568741D01*
X364050Y568734D01*
X364380Y568707D01*
X372220Y568707D01*
X372246Y568709D01*
X372273Y568707D01*
X372447Y568729D01*
X372620Y568747D01*
X372646Y568754D01*
X372672Y568758D01*
X372838Y568814D01*
X373005Y568865D01*
X373029Y568878D01*
X373054Y568886D01*
X373206Y568973D01*
X373359Y569057D01*
X373380Y569074D01*
X373403Y569087D01*
X373656Y569302D01*
X377633Y573279D01*
X384367Y573279D01*
X389129Y568517D01*
X389129Y561783D01*
X384367Y557021D01*
X377633Y557021D01*
X373656Y560998D01*
X373635Y561015D01*
X373618Y561036D01*
X373480Y561143D01*
X373344Y561253D01*
X373321Y561266D01*
X373300Y561282D01*
X373143Y561360D01*
X372989Y561442D01*
X372963Y561450D01*
X372939Y561462D01*
X372770Y561507D01*
X372603Y561557D01*
X372576Y561559D01*
X372550Y561566D01*
X372220Y561593D01*
X364380Y561593D01*
X364354Y561591D01*
X364327Y561593D01*
X364153Y561571D01*
X363980Y561553D01*
X363954Y561546D01*
X363928Y561542D01*
X363762Y561486D01*
X363595Y561435D01*
X363571Y561422D01*
X363546Y561414D01*
X363394Y561327D01*
X363241Y561243D01*
X363220Y561226D01*
X363197Y561213D01*
X362944Y560998D01*
X358967Y557021D01*
X352233Y557021D01*
X348256Y560998D01*
X348235Y561015D01*
X348218Y561036D01*
X348080Y561143D01*
X347944Y561253D01*
X347921Y561266D01*
X347900Y561282D01*
X347743Y561360D01*
X347589Y561442D01*
X347563Y561450D01*
X347539Y561462D01*
X347370Y561507D01*
X347203Y561557D01*
X347176Y561559D01*
X347150Y561566D01*
X346820Y561593D01*
X332786Y561593D01*
X332764Y561591D01*
X332742Y561593D01*
X332565Y561571D01*
X332386Y561553D01*
X332365Y561547D01*
X332342Y561544D01*
X332173Y561488D01*
X332001Y561435D01*
X331981Y561425D01*
X331960Y561418D01*
X331805Y561329D01*
X331647Y561243D01*
X331630Y561229D01*
X331610Y561218D01*
X331475Y561100D01*
X331338Y560986D01*
X331324Y560968D01*
X331307Y560954D01*
X331198Y560812D01*
X331085Y560672D01*
X331075Y560652D01*
X331061Y560634D01*
X331037Y560588D01*
X328709Y558259D01*
X325721Y557021D01*
X309279Y557021D01*
G37*
%LPD*%
%LPC*%
G36*
X360079Y798321D02*
X360079Y798321D01*
X357091Y799559D01*
X354805Y801845D01*
X353567Y804833D01*
X353567Y808067D01*
X354805Y811055D01*
X357091Y813341D01*
X360079Y814579D01*
X376521Y814579D01*
X379509Y813341D01*
X381849Y811001D01*
X381900Y810906D01*
X381914Y810889D01*
X381925Y810869D01*
X382042Y810734D01*
X382156Y810595D01*
X382174Y810581D01*
X382188Y810564D01*
X382330Y810455D01*
X382469Y810342D01*
X382489Y810331D01*
X382506Y810318D01*
X382667Y810238D01*
X382826Y810155D01*
X382847Y810148D01*
X382867Y810138D01*
X383041Y810092D01*
X383212Y810042D01*
X383234Y810040D01*
X383256Y810034D01*
X383586Y810007D01*
X403814Y810007D01*
X403836Y810009D01*
X403858Y810007D01*
X404035Y810029D01*
X404214Y810047D01*
X404235Y810053D01*
X404258Y810056D01*
X404427Y810112D01*
X404599Y810165D01*
X404619Y810175D01*
X404640Y810182D01*
X404795Y810271D01*
X404953Y810357D01*
X404970Y810371D01*
X404990Y810382D01*
X405125Y810500D01*
X405262Y810614D01*
X405276Y810632D01*
X405293Y810646D01*
X405402Y810788D01*
X405515Y810928D01*
X405525Y810948D01*
X405539Y810966D01*
X405563Y811012D01*
X407891Y813341D01*
X410879Y814579D01*
X427321Y814579D01*
X430309Y813341D01*
X432595Y811055D01*
X433833Y808067D01*
X433833Y804833D01*
X432595Y801845D01*
X430309Y799559D01*
X427321Y798321D01*
X410879Y798321D01*
X407891Y799559D01*
X405551Y801899D01*
X405500Y801994D01*
X405486Y802011D01*
X405475Y802031D01*
X405358Y802166D01*
X405244Y802305D01*
X405226Y802319D01*
X405212Y802336D01*
X405071Y802445D01*
X404931Y802558D01*
X404911Y802569D01*
X404894Y802582D01*
X404733Y802662D01*
X404574Y802745D01*
X404553Y802752D01*
X404533Y802762D01*
X404359Y802808D01*
X404188Y802858D01*
X404166Y802860D01*
X404144Y802866D01*
X403814Y802893D01*
X383586Y802893D01*
X383564Y802891D01*
X383542Y802893D01*
X383365Y802871D01*
X383186Y802853D01*
X383165Y802847D01*
X383142Y802844D01*
X382973Y802788D01*
X382801Y802735D01*
X382781Y802725D01*
X382760Y802718D01*
X382605Y802629D01*
X382447Y802543D01*
X382430Y802529D01*
X382410Y802518D01*
X382275Y802400D01*
X382138Y802286D01*
X382124Y802268D01*
X382107Y802254D01*
X381998Y802112D01*
X381885Y801972D01*
X381875Y801952D01*
X381861Y801934D01*
X381837Y801888D01*
X379509Y799559D01*
X376521Y798321D01*
X360079Y798321D01*
G37*
%LPD*%
%LPC*%
G36*
X360079Y823721D02*
X360079Y823721D01*
X357091Y824959D01*
X354805Y827245D01*
X353567Y830233D01*
X353567Y833467D01*
X354805Y836455D01*
X357091Y838741D01*
X357882Y839069D01*
X360079Y839979D01*
X376521Y839979D01*
X379509Y838741D01*
X381849Y836401D01*
X381900Y836306D01*
X381914Y836289D01*
X381925Y836269D01*
X382042Y836134D01*
X382156Y835995D01*
X382174Y835981D01*
X382188Y835964D01*
X382330Y835855D01*
X382469Y835742D01*
X382489Y835731D01*
X382506Y835718D01*
X382667Y835638D01*
X382826Y835555D01*
X382847Y835548D01*
X382867Y835538D01*
X383041Y835492D01*
X383212Y835442D01*
X383234Y835440D01*
X383256Y835434D01*
X383586Y835407D01*
X403814Y835407D01*
X403836Y835409D01*
X403858Y835407D01*
X404035Y835429D01*
X404214Y835447D01*
X404235Y835453D01*
X404258Y835456D01*
X404427Y835512D01*
X404599Y835565D01*
X404619Y835575D01*
X404640Y835582D01*
X404795Y835671D01*
X404953Y835757D01*
X404970Y835771D01*
X404990Y835782D01*
X405125Y835900D01*
X405262Y836014D01*
X405276Y836032D01*
X405293Y836046D01*
X405402Y836188D01*
X405515Y836328D01*
X405525Y836348D01*
X405539Y836366D01*
X405563Y836412D01*
X407891Y838741D01*
X408682Y839069D01*
X410879Y839979D01*
X427321Y839979D01*
X430309Y838741D01*
X432595Y836455D01*
X433833Y833467D01*
X433833Y830233D01*
X432595Y827245D01*
X430309Y824959D01*
X427321Y823721D01*
X410879Y823721D01*
X407891Y824959D01*
X405551Y827299D01*
X405500Y827394D01*
X405486Y827411D01*
X405475Y827431D01*
X405358Y827566D01*
X405244Y827705D01*
X405226Y827719D01*
X405212Y827736D01*
X405071Y827845D01*
X404931Y827958D01*
X404911Y827969D01*
X404894Y827982D01*
X404733Y828062D01*
X404574Y828145D01*
X404553Y828152D01*
X404533Y828162D01*
X404359Y828208D01*
X404188Y828258D01*
X404166Y828260D01*
X404144Y828266D01*
X403814Y828293D01*
X383586Y828293D01*
X383564Y828291D01*
X383542Y828293D01*
X383365Y828271D01*
X383186Y828253D01*
X383165Y828247D01*
X383142Y828244D01*
X382973Y828188D01*
X382801Y828135D01*
X382781Y828125D01*
X382760Y828118D01*
X382605Y828029D01*
X382447Y827943D01*
X382430Y827929D01*
X382410Y827918D01*
X382275Y827800D01*
X382138Y827686D01*
X382124Y827668D01*
X382107Y827654D01*
X381998Y827512D01*
X381885Y827372D01*
X381875Y827352D01*
X381861Y827334D01*
X381837Y827288D01*
X379509Y824959D01*
X376521Y823721D01*
X360079Y823721D01*
G37*
%LPD*%
%LPC*%
G36*
X118779Y836421D02*
X118779Y836421D01*
X115791Y837659D01*
X113505Y839945D01*
X112267Y842933D01*
X112267Y846167D01*
X113505Y849155D01*
X115791Y851441D01*
X118779Y852679D01*
X135221Y852679D01*
X138209Y851441D01*
X140549Y849101D01*
X140600Y849006D01*
X140614Y848989D01*
X140625Y848969D01*
X140742Y848834D01*
X140856Y848695D01*
X140874Y848681D01*
X140888Y848664D01*
X141030Y848555D01*
X141169Y848442D01*
X141189Y848431D01*
X141206Y848418D01*
X141367Y848338D01*
X141526Y848255D01*
X141547Y848248D01*
X141567Y848238D01*
X141741Y848192D01*
X141912Y848142D01*
X141934Y848140D01*
X141956Y848134D01*
X142286Y848107D01*
X162514Y848107D01*
X162536Y848109D01*
X162558Y848107D01*
X162735Y848129D01*
X162914Y848147D01*
X162935Y848153D01*
X162958Y848156D01*
X163127Y848212D01*
X163299Y848265D01*
X163319Y848275D01*
X163340Y848282D01*
X163495Y848371D01*
X163653Y848457D01*
X163670Y848471D01*
X163690Y848482D01*
X163825Y848600D01*
X163962Y848714D01*
X163976Y848732D01*
X163993Y848746D01*
X164102Y848888D01*
X164215Y849028D01*
X164225Y849048D01*
X164239Y849066D01*
X164263Y849112D01*
X166591Y851441D01*
X169579Y852679D01*
X186021Y852679D01*
X189009Y851441D01*
X191295Y849155D01*
X192533Y846167D01*
X192533Y842933D01*
X191295Y839945D01*
X189009Y837659D01*
X186746Y836721D01*
X186021Y836421D01*
X169579Y836421D01*
X166591Y837659D01*
X164251Y839999D01*
X164200Y840094D01*
X164186Y840111D01*
X164175Y840131D01*
X164058Y840266D01*
X163944Y840405D01*
X163926Y840419D01*
X163912Y840436D01*
X163771Y840545D01*
X163631Y840658D01*
X163611Y840669D01*
X163594Y840682D01*
X163433Y840762D01*
X163274Y840845D01*
X163253Y840852D01*
X163233Y840862D01*
X163059Y840908D01*
X162888Y840958D01*
X162866Y840960D01*
X162844Y840966D01*
X162514Y840993D01*
X142286Y840993D01*
X142264Y840991D01*
X142242Y840993D01*
X142065Y840971D01*
X141886Y840953D01*
X141865Y840947D01*
X141842Y840944D01*
X141673Y840888D01*
X141501Y840835D01*
X141481Y840825D01*
X141460Y840818D01*
X141305Y840729D01*
X141147Y840643D01*
X141130Y840629D01*
X141110Y840618D01*
X140975Y840500D01*
X140838Y840386D01*
X140824Y840368D01*
X140807Y840354D01*
X140698Y840212D01*
X140585Y840072D01*
X140575Y840052D01*
X140561Y840034D01*
X140537Y839988D01*
X138209Y837659D01*
X135946Y836721D01*
X135221Y836421D01*
X118779Y836421D01*
G37*
%LPD*%
%LPC*%
G36*
X410879Y468121D02*
X410879Y468121D01*
X407891Y469359D01*
X405605Y471645D01*
X404367Y474633D01*
X404367Y477867D01*
X405605Y480855D01*
X407891Y483141D01*
X410879Y484379D01*
X413512Y484379D01*
X413530Y484381D01*
X413548Y484379D01*
X413730Y484400D01*
X413913Y484419D01*
X413930Y484424D01*
X413947Y484426D01*
X414122Y484483D01*
X414298Y484537D01*
X414313Y484545D01*
X414330Y484551D01*
X414490Y484641D01*
X414652Y484729D01*
X414665Y484740D01*
X414681Y484749D01*
X414820Y484869D01*
X414961Y484986D01*
X414972Y485000D01*
X414986Y485012D01*
X415098Y485157D01*
X415213Y485300D01*
X415221Y485316D01*
X415232Y485330D01*
X415314Y485495D01*
X415399Y485657D01*
X415404Y485674D01*
X415412Y485690D01*
X415459Y485869D01*
X415510Y486044D01*
X415512Y486062D01*
X415516Y486079D01*
X415543Y486410D01*
X415543Y490423D01*
X423076Y497956D01*
X423093Y497977D01*
X423114Y497995D01*
X423221Y498132D01*
X423331Y498268D01*
X423344Y498291D01*
X423360Y498313D01*
X423438Y498470D01*
X423520Y498624D01*
X423528Y498649D01*
X423540Y498673D01*
X423585Y498843D01*
X423635Y499009D01*
X423637Y499036D01*
X423644Y499062D01*
X423671Y499393D01*
X423671Y505017D01*
X428433Y509779D01*
X435167Y509779D01*
X439929Y505017D01*
X439929Y498283D01*
X435167Y493521D01*
X429543Y493521D01*
X429516Y493519D01*
X429489Y493521D01*
X429315Y493499D01*
X429142Y493481D01*
X429117Y493474D01*
X429090Y493470D01*
X428924Y493415D01*
X428757Y493363D01*
X428734Y493350D01*
X428708Y493342D01*
X428557Y493255D01*
X428403Y493171D01*
X428383Y493154D01*
X428359Y493141D01*
X428106Y492926D01*
X423252Y488072D01*
X423235Y488051D01*
X423214Y488033D01*
X423107Y487895D01*
X422997Y487760D01*
X422984Y487737D01*
X422968Y487715D01*
X422890Y487558D01*
X422808Y487404D01*
X422800Y487379D01*
X422788Y487355D01*
X422743Y487185D01*
X422693Y487019D01*
X422691Y486992D01*
X422684Y486966D01*
X422657Y486635D01*
X422657Y486410D01*
X422659Y486392D01*
X422657Y486374D01*
X422678Y486192D01*
X422697Y486009D01*
X422702Y485992D01*
X422704Y485975D01*
X422761Y485800D01*
X422815Y485624D01*
X422823Y485609D01*
X422829Y485592D01*
X422919Y485432D01*
X423007Y485270D01*
X423018Y485257D01*
X423027Y485241D01*
X423147Y485102D01*
X423264Y484961D01*
X423278Y484950D01*
X423290Y484936D01*
X423435Y484824D01*
X423578Y484709D01*
X423594Y484701D01*
X423608Y484690D01*
X423773Y484608D01*
X423935Y484523D01*
X423952Y484518D01*
X423968Y484510D01*
X424147Y484463D01*
X424322Y484412D01*
X424340Y484410D01*
X424357Y484406D01*
X424688Y484379D01*
X427321Y484379D01*
X430309Y483141D01*
X432595Y480855D01*
X433833Y477867D01*
X433833Y474633D01*
X432595Y471645D01*
X430309Y469359D01*
X427321Y468121D01*
X410879Y468121D01*
G37*
%LPD*%
%LPC*%
G36*
X110933Y785621D02*
X110933Y785621D01*
X106171Y790383D01*
X106171Y797117D01*
X110933Y801879D01*
X116557Y801879D01*
X116584Y801881D01*
X116611Y801879D01*
X116785Y801901D01*
X116958Y801919D01*
X116984Y801926D01*
X117010Y801930D01*
X117176Y801985D01*
X117343Y802037D01*
X117367Y802050D01*
X117392Y802058D01*
X117543Y802145D01*
X117697Y802229D01*
X117717Y802246D01*
X117741Y802259D01*
X117994Y802474D01*
X122848Y807328D01*
X122865Y807349D01*
X122886Y807366D01*
X122993Y807504D01*
X123103Y807640D01*
X123116Y807663D01*
X123132Y807685D01*
X123210Y807842D01*
X123292Y807996D01*
X123300Y808021D01*
X123312Y808045D01*
X123357Y808215D01*
X123407Y808381D01*
X123409Y808408D01*
X123416Y808434D01*
X123443Y808765D01*
X123443Y808990D01*
X123441Y809008D01*
X123443Y809026D01*
X123422Y809208D01*
X123403Y809391D01*
X123398Y809408D01*
X123396Y809425D01*
X123339Y809600D01*
X123285Y809776D01*
X123277Y809791D01*
X123271Y809808D01*
X123181Y809968D01*
X123093Y810130D01*
X123082Y810143D01*
X123073Y810159D01*
X122953Y810298D01*
X122836Y810439D01*
X122822Y810450D01*
X122810Y810464D01*
X122665Y810576D01*
X122522Y810691D01*
X122506Y810699D01*
X122492Y810710D01*
X122327Y810792D01*
X122165Y810877D01*
X122148Y810882D01*
X122132Y810890D01*
X121953Y810937D01*
X121778Y810988D01*
X121760Y810990D01*
X121743Y810994D01*
X121412Y811021D01*
X118779Y811021D01*
X115791Y812259D01*
X113505Y814545D01*
X112267Y817533D01*
X112267Y820767D01*
X113505Y823755D01*
X115791Y826041D01*
X118779Y827279D01*
X135221Y827279D01*
X138209Y826041D01*
X140495Y823755D01*
X141733Y820767D01*
X141733Y817533D01*
X140495Y814545D01*
X138209Y812259D01*
X135221Y811021D01*
X132588Y811021D01*
X132570Y811019D01*
X132552Y811021D01*
X132370Y811000D01*
X132187Y810981D01*
X132170Y810976D01*
X132153Y810974D01*
X131978Y810917D01*
X131802Y810863D01*
X131787Y810855D01*
X131770Y810849D01*
X131610Y810759D01*
X131448Y810671D01*
X131435Y810660D01*
X131419Y810651D01*
X131280Y810531D01*
X131139Y810414D01*
X131128Y810400D01*
X131114Y810388D01*
X131002Y810243D01*
X130887Y810100D01*
X130879Y810084D01*
X130868Y810070D01*
X130786Y809905D01*
X130701Y809743D01*
X130696Y809726D01*
X130688Y809710D01*
X130641Y809531D01*
X130590Y809356D01*
X130588Y809338D01*
X130584Y809321D01*
X130557Y808990D01*
X130557Y804977D01*
X127879Y802299D01*
X127878Y802298D01*
X123024Y797444D01*
X123007Y797423D01*
X122986Y797406D01*
X122879Y797268D01*
X122769Y797132D01*
X122756Y797109D01*
X122740Y797087D01*
X122662Y796930D01*
X122580Y796776D01*
X122572Y796751D01*
X122560Y796727D01*
X122515Y796557D01*
X122465Y796391D01*
X122463Y796364D01*
X122456Y796338D01*
X122429Y796007D01*
X122429Y790383D01*
X117667Y785621D01*
X110933Y785621D01*
G37*
%LPD*%
%LPC*%
G36*
X428433Y747521D02*
X428433Y747521D01*
X424456Y751498D01*
X424435Y751515D01*
X424418Y751536D01*
X424280Y751643D01*
X424144Y751753D01*
X424121Y751766D01*
X424100Y751782D01*
X423943Y751860D01*
X423789Y751942D01*
X423763Y751950D01*
X423739Y751962D01*
X423570Y752007D01*
X423403Y752057D01*
X423376Y752059D01*
X423350Y752066D01*
X423020Y752093D01*
X398490Y752093D01*
X398463Y752091D01*
X398436Y752093D01*
X398262Y752071D01*
X398089Y752053D01*
X398063Y752046D01*
X398037Y752042D01*
X397871Y751987D01*
X397704Y751935D01*
X397680Y751922D01*
X397655Y751914D01*
X397503Y751827D01*
X397350Y751743D01*
X397329Y751726D01*
X397306Y751713D01*
X397053Y751498D01*
X396706Y751151D01*
X394756Y750343D01*
X392644Y750343D01*
X390694Y751151D01*
X389201Y752644D01*
X388393Y754594D01*
X388393Y756706D01*
X389201Y758656D01*
X390694Y760149D01*
X392644Y760957D01*
X394756Y760957D01*
X396706Y760149D01*
X397053Y759802D01*
X397074Y759785D01*
X397091Y759764D01*
X397229Y759657D01*
X397365Y759547D01*
X397388Y759534D01*
X397409Y759518D01*
X397566Y759440D01*
X397720Y759358D01*
X397746Y759350D01*
X397770Y759338D01*
X397939Y759293D01*
X398106Y759243D01*
X398133Y759241D01*
X398159Y759234D01*
X398490Y759207D01*
X423020Y759207D01*
X423046Y759209D01*
X423073Y759207D01*
X423247Y759229D01*
X423420Y759247D01*
X423446Y759254D01*
X423472Y759258D01*
X423638Y759314D01*
X423805Y759365D01*
X423829Y759378D01*
X423854Y759386D01*
X424006Y759473D01*
X424159Y759557D01*
X424180Y759574D01*
X424203Y759587D01*
X424456Y759802D01*
X428433Y763779D01*
X435167Y763779D01*
X439929Y759017D01*
X439929Y752283D01*
X435167Y747521D01*
X428433Y747521D01*
G37*
%LPD*%
%LPC*%
G36*
X360079Y849121D02*
X360079Y849121D01*
X357091Y850359D01*
X354805Y852645D01*
X353567Y855633D01*
X353567Y858867D01*
X354805Y861855D01*
X357091Y864141D01*
X360079Y865379D01*
X376521Y865379D01*
X379509Y864141D01*
X381795Y861855D01*
X383033Y858867D01*
X383033Y855633D01*
X381795Y852645D01*
X379509Y850359D01*
X376521Y849121D01*
X360079Y849121D01*
G37*
%LPD*%
%LPC*%
G36*
X233079Y607821D02*
X233079Y607821D01*
X230091Y609059D01*
X227805Y611345D01*
X226567Y614333D01*
X226567Y617567D01*
X227805Y620555D01*
X230091Y622841D01*
X233079Y624079D01*
X249521Y624079D01*
X252509Y622841D01*
X254795Y620555D01*
X256033Y617567D01*
X256033Y614333D01*
X254795Y611345D01*
X252509Y609059D01*
X249521Y607821D01*
X233079Y607821D01*
G37*
%LPD*%
%LPC*%
G36*
X233079Y633221D02*
X233079Y633221D01*
X230091Y634459D01*
X227805Y636745D01*
X226567Y639733D01*
X226567Y642967D01*
X227805Y645955D01*
X230091Y648241D01*
X233079Y649479D01*
X249521Y649479D01*
X252509Y648241D01*
X254795Y645955D01*
X256033Y642967D01*
X256033Y639733D01*
X254795Y636745D01*
X252509Y634459D01*
X249521Y633221D01*
X233079Y633221D01*
G37*
%LPD*%
%LPC*%
G36*
X410879Y417321D02*
X410879Y417321D01*
X407891Y418559D01*
X405605Y420845D01*
X404367Y423833D01*
X404367Y427067D01*
X405605Y430055D01*
X407891Y432341D01*
X410879Y433579D01*
X427321Y433579D01*
X430309Y432341D01*
X432595Y430055D01*
X433833Y427067D01*
X433833Y423833D01*
X432595Y420845D01*
X430309Y418559D01*
X429645Y418284D01*
X427321Y417321D01*
X410879Y417321D01*
G37*
%LPD*%
%LPC*%
G36*
X360079Y417321D02*
X360079Y417321D01*
X357091Y418559D01*
X354805Y420845D01*
X353567Y423833D01*
X353567Y427067D01*
X354805Y430055D01*
X357091Y432341D01*
X360079Y433579D01*
X376521Y433579D01*
X379509Y432341D01*
X381795Y430055D01*
X383033Y427067D01*
X383033Y423833D01*
X381795Y420845D01*
X379509Y418559D01*
X378845Y418284D01*
X376521Y417321D01*
X360079Y417321D01*
G37*
%LPD*%
%LPC*%
G36*
X118779Y861821D02*
X118779Y861821D01*
X115791Y863059D01*
X113505Y865345D01*
X112267Y868333D01*
X112267Y871567D01*
X113505Y874555D01*
X115791Y876841D01*
X117774Y877662D01*
X117774Y877663D01*
X118779Y878079D01*
X135221Y878079D01*
X138209Y876841D01*
X140495Y874555D01*
X141733Y871567D01*
X141733Y868333D01*
X140495Y865345D01*
X138209Y863059D01*
X135221Y861821D01*
X118779Y861821D01*
G37*
%LPD*%
%LPC*%
G36*
X169579Y861821D02*
X169579Y861821D01*
X166591Y863059D01*
X164305Y865345D01*
X163067Y868333D01*
X163067Y871567D01*
X164305Y874555D01*
X166591Y876841D01*
X168574Y877662D01*
X168574Y877663D01*
X169579Y878079D01*
X186021Y878079D01*
X189009Y876841D01*
X191295Y874555D01*
X192533Y871567D01*
X192533Y868333D01*
X191295Y865345D01*
X189009Y863059D01*
X186021Y861821D01*
X169579Y861821D01*
G37*
%LPD*%
%LPC*%
G36*
X48136Y873143D02*
X48136Y873143D01*
X47243Y874036D01*
X47243Y892064D01*
X48136Y892957D01*
X66164Y892957D01*
X67057Y892064D01*
X67057Y874036D01*
X66164Y873143D01*
X48136Y873143D01*
G37*
%LPD*%
%LPC*%
G36*
X48136Y441343D02*
X48136Y441343D01*
X47243Y442236D01*
X47243Y460264D01*
X48136Y461157D01*
X66164Y461157D01*
X67057Y460264D01*
X67057Y442236D01*
X66164Y441343D01*
X48136Y441343D01*
G37*
%LPD*%
%LPC*%
G36*
X21063Y48513D02*
X21063Y48513D01*
X21063Y77009D01*
X22728Y76563D01*
X24881Y75671D01*
X26900Y74506D01*
X28749Y73087D01*
X30397Y71439D01*
X31816Y69590D01*
X32981Y67571D01*
X33873Y65418D01*
X34476Y63166D01*
X34781Y60855D01*
X34781Y48513D01*
X21063Y48513D01*
G37*
%LPD*%
%LPC*%
G36*
X21063Y239013D02*
X21063Y239013D01*
X21063Y267509D01*
X22728Y267063D01*
X24881Y266171D01*
X26900Y265006D01*
X28749Y263587D01*
X30397Y261939D01*
X31816Y260090D01*
X32981Y258071D01*
X33873Y255918D01*
X34476Y253666D01*
X34781Y251355D01*
X34781Y239013D01*
X21063Y239013D01*
G37*
%LPD*%
%LPC*%
G36*
X21063Y230887D02*
X21063Y230887D01*
X34781Y230887D01*
X34781Y218545D01*
X34476Y216234D01*
X33873Y213982D01*
X32981Y211829D01*
X31816Y209810D01*
X30397Y207961D01*
X28749Y206313D01*
X26900Y204894D01*
X24881Y203729D01*
X22728Y202837D01*
X21063Y202391D01*
X21063Y230887D01*
G37*
%LPD*%
%LPC*%
G36*
X53047Y707243D02*
X53047Y707243D01*
X47243Y713047D01*
X47243Y721253D01*
X53047Y727057D01*
X61253Y727057D01*
X67057Y721253D01*
X67057Y713047D01*
X61253Y707243D01*
X53047Y707243D01*
G37*
%LPD*%
%LPC*%
G36*
X53047Y898143D02*
X53047Y898143D01*
X47243Y903947D01*
X47243Y912153D01*
X53047Y917957D01*
X61253Y917957D01*
X67057Y912153D01*
X67057Y903947D01*
X61253Y898143D01*
X53047Y898143D01*
G37*
%LPD*%
%LPC*%
G36*
X53047Y682243D02*
X53047Y682243D01*
X47243Y688047D01*
X47243Y696253D01*
X53047Y702057D01*
X61253Y702057D01*
X67057Y696253D01*
X67057Y688047D01*
X61253Y682243D01*
X53047Y682243D01*
G37*
%LPD*%
%LPC*%
G36*
X84954Y568324D02*
X84954Y568324D01*
X79374Y573904D01*
X79374Y581796D01*
X84954Y587376D01*
X92846Y587376D01*
X98426Y581796D01*
X98426Y573904D01*
X92846Y568324D01*
X84954Y568324D01*
G37*
%LPD*%
%LPC*%
G36*
X161154Y555624D02*
X161154Y555624D01*
X155574Y561204D01*
X155574Y569096D01*
X161154Y574676D01*
X169046Y574676D01*
X174626Y569096D01*
X174626Y561204D01*
X169046Y555624D01*
X161154Y555624D01*
G37*
%LPD*%
%LPC*%
G36*
X262754Y403224D02*
X262754Y403224D01*
X257174Y408804D01*
X257174Y416696D01*
X262754Y422276D01*
X270646Y422276D01*
X276226Y416696D01*
X276226Y408804D01*
X270646Y403224D01*
X262754Y403224D01*
G37*
%LPD*%
%LPC*%
G36*
X87005Y593724D02*
X87005Y593724D01*
X83504Y595174D01*
X80824Y597854D01*
X79374Y601355D01*
X79374Y605145D01*
X80824Y608646D01*
X83504Y611326D01*
X87005Y612776D01*
X90795Y612776D01*
X94296Y611326D01*
X96976Y608646D01*
X98426Y605145D01*
X98426Y601355D01*
X96976Y597854D01*
X94296Y595174D01*
X93881Y595003D01*
X90795Y593724D01*
X87005Y593724D01*
G37*
%LPD*%
%LPC*%
G36*
X328305Y365124D02*
X328305Y365124D01*
X324804Y366574D01*
X322124Y369254D01*
X320674Y372755D01*
X320674Y376545D01*
X322124Y380046D01*
X324804Y382726D01*
X328047Y384069D01*
X328305Y384176D01*
X332095Y384176D01*
X335596Y382726D01*
X338276Y380046D01*
X339726Y376545D01*
X339726Y372755D01*
X338276Y369254D01*
X335596Y366574D01*
X332933Y365471D01*
X332095Y365124D01*
X328305Y365124D01*
G37*
%LPD*%
%LPC*%
G36*
X352023Y277113D02*
X352023Y277113D01*
X346963Y282173D01*
X346963Y289327D01*
X352023Y294387D01*
X359177Y294387D01*
X364237Y289327D01*
X364237Y282173D01*
X359177Y277113D01*
X352023Y277113D01*
G37*
%LPD*%
%LPC*%
G36*
X352023Y175513D02*
X352023Y175513D01*
X346963Y180573D01*
X346963Y187727D01*
X352023Y192787D01*
X359177Y192787D01*
X364237Y187727D01*
X364237Y180573D01*
X359177Y175513D01*
X352023Y175513D01*
G37*
%LPD*%
%LPC*%
G36*
X326623Y175513D02*
X326623Y175513D01*
X321563Y180573D01*
X321563Y187727D01*
X326623Y192787D01*
X333777Y192787D01*
X338837Y187727D01*
X338837Y180573D01*
X333777Y175513D01*
X326623Y175513D01*
G37*
%LPD*%
%LPC*%
G36*
X326623Y277113D02*
X326623Y277113D01*
X321563Y282173D01*
X321563Y289327D01*
X326623Y294387D01*
X333777Y294387D01*
X338837Y289327D01*
X338837Y282173D01*
X333777Y277113D01*
X326623Y277113D01*
G37*
%LPD*%
%LPC*%
G36*
X352233Y518921D02*
X352233Y518921D01*
X347471Y523683D01*
X347471Y530417D01*
X352233Y535179D01*
X358967Y535179D01*
X363729Y530417D01*
X363729Y523683D01*
X358967Y518921D01*
X352233Y518921D01*
G37*
%LPD*%
%LPC*%
G36*
X237933Y753871D02*
X237933Y753871D01*
X233171Y758633D01*
X233171Y765367D01*
X237933Y770129D01*
X244667Y770129D01*
X249429Y765367D01*
X249429Y758633D01*
X244667Y753871D01*
X237933Y753871D01*
G37*
%LPD*%
%LPC*%
G36*
X352233Y493521D02*
X352233Y493521D01*
X347471Y498283D01*
X347471Y505017D01*
X352233Y509779D01*
X358967Y509779D01*
X363729Y505017D01*
X363729Y498283D01*
X358967Y493521D01*
X352233Y493521D01*
G37*
%LPD*%
%LPC*%
G36*
X352233Y747521D02*
X352233Y747521D01*
X347471Y752283D01*
X347471Y759017D01*
X352233Y763779D01*
X358967Y763779D01*
X363729Y759017D01*
X363729Y752283D01*
X358967Y747521D01*
X352233Y747521D01*
G37*
%LPD*%
%LPC*%
G36*
X98233Y684021D02*
X98233Y684021D01*
X93471Y688783D01*
X93471Y695517D01*
X98233Y700279D01*
X104967Y700279D01*
X109729Y695517D01*
X109729Y688783D01*
X104967Y684021D01*
X98233Y684021D01*
G37*
%LPD*%
%LPC*%
G36*
X187133Y760221D02*
X187133Y760221D01*
X182371Y764983D01*
X182371Y771717D01*
X187133Y776479D01*
X193867Y776479D01*
X198629Y771717D01*
X198629Y764983D01*
X193867Y760221D01*
X187133Y760221D01*
G37*
%LPD*%
%LPC*%
G36*
X199833Y633221D02*
X199833Y633221D01*
X195071Y637983D01*
X195071Y644717D01*
X199833Y649479D01*
X206567Y649479D01*
X211329Y644717D01*
X211329Y637983D01*
X206567Y633221D01*
X199833Y633221D01*
G37*
%LPD*%
%LPC*%
G36*
X243331Y668781D02*
X243331Y668781D01*
X243331Y675895D01*
X248624Y675895D01*
X250045Y675670D01*
X251414Y675225D01*
X252697Y674571D01*
X253861Y673725D01*
X254879Y672707D01*
X255725Y671543D01*
X256379Y670260D01*
X256824Y668891D01*
X256841Y668781D01*
X243331Y668781D01*
G37*
%LPD*%
%LPC*%
G36*
X319531Y617981D02*
X319531Y617981D01*
X319531Y625095D01*
X324824Y625095D01*
X326245Y624870D01*
X327614Y624425D01*
X328897Y623771D01*
X330061Y622925D01*
X331079Y621907D01*
X331925Y620743D01*
X332579Y619460D01*
X333024Y618091D01*
X333041Y617981D01*
X319531Y617981D01*
G37*
%LPD*%
%LPC*%
G36*
X319531Y668781D02*
X319531Y668781D01*
X319531Y675895D01*
X324824Y675895D01*
X326245Y675670D01*
X327614Y675225D01*
X328897Y674571D01*
X330061Y673725D01*
X331079Y672707D01*
X331925Y671543D01*
X332579Y670260D01*
X333024Y668891D01*
X333041Y668781D01*
X319531Y668781D01*
G37*
%LPD*%
%LPC*%
G36*
X301959Y668781D02*
X301959Y668781D01*
X301976Y668891D01*
X302421Y670260D01*
X303075Y671543D01*
X303921Y672707D01*
X304939Y673725D01*
X306103Y674571D01*
X307386Y675225D01*
X308755Y675670D01*
X310176Y675895D01*
X315469Y675895D01*
X315469Y668781D01*
X301959Y668781D01*
G37*
%LPD*%
%LPC*%
G36*
X301959Y617981D02*
X301959Y617981D01*
X301976Y618091D01*
X302421Y619460D01*
X303075Y620743D01*
X303921Y621907D01*
X304939Y622925D01*
X306103Y623771D01*
X307386Y624425D01*
X308755Y624870D01*
X310176Y625095D01*
X315469Y625095D01*
X315469Y617981D01*
X301959Y617981D01*
G37*
%LPD*%
%LPC*%
G36*
X225759Y668781D02*
X225759Y668781D01*
X225776Y668891D01*
X226221Y670260D01*
X226875Y671543D01*
X227721Y672707D01*
X228739Y673725D01*
X229903Y674571D01*
X231186Y675225D01*
X232555Y675670D01*
X233976Y675895D01*
X239269Y675895D01*
X239269Y668781D01*
X225759Y668781D01*
G37*
%LPD*%
%LPC*%
G36*
X319531Y657605D02*
X319531Y657605D01*
X319531Y664719D01*
X333041Y664719D01*
X333024Y664609D01*
X332579Y663240D01*
X331925Y661957D01*
X331079Y660793D01*
X330061Y659775D01*
X328897Y658929D01*
X327614Y658275D01*
X326245Y657830D01*
X324824Y657605D01*
X319531Y657605D01*
G37*
%LPD*%
%LPC*%
G36*
X243331Y657605D02*
X243331Y657605D01*
X243331Y664719D01*
X256841Y664719D01*
X256824Y664609D01*
X256379Y663240D01*
X255725Y661957D01*
X254879Y660793D01*
X253861Y659775D01*
X252697Y658929D01*
X251414Y658275D01*
X250045Y657830D01*
X248624Y657605D01*
X243331Y657605D01*
G37*
%LPD*%
%LPC*%
G36*
X319531Y606805D02*
X319531Y606805D01*
X319531Y613919D01*
X333041Y613919D01*
X333024Y613809D01*
X332579Y612440D01*
X331925Y611157D01*
X331079Y609993D01*
X330061Y608975D01*
X328897Y608129D01*
X327614Y607475D01*
X326245Y607030D01*
X324824Y606805D01*
X319531Y606805D01*
G37*
%LPD*%
%LPC*%
G36*
X233976Y657605D02*
X233976Y657605D01*
X232555Y657830D01*
X231186Y658275D01*
X229903Y658929D01*
X228739Y659775D01*
X227721Y660793D01*
X226875Y661957D01*
X226221Y663240D01*
X225776Y664609D01*
X225759Y664719D01*
X239269Y664719D01*
X239269Y657605D01*
X233976Y657605D01*
G37*
%LPD*%
%LPC*%
G36*
X310176Y606805D02*
X310176Y606805D01*
X308755Y607030D01*
X307386Y607475D01*
X306103Y608129D01*
X304939Y608975D01*
X303921Y609993D01*
X303075Y611157D01*
X302421Y612440D01*
X301976Y613809D01*
X301959Y613919D01*
X315469Y613919D01*
X315469Y606805D01*
X310176Y606805D01*
G37*
%LPD*%
%LPC*%
G36*
X310176Y657605D02*
X310176Y657605D01*
X308755Y657830D01*
X307386Y658275D01*
X306103Y658929D01*
X304939Y659775D01*
X303921Y660793D01*
X303075Y661957D01*
X302421Y663240D01*
X301976Y664609D01*
X301959Y664719D01*
X315469Y664719D01*
X315469Y657605D01*
X310176Y657605D01*
G37*
%LPD*%
%LPC*%
G36*
X357631Y376681D02*
X357631Y376681D01*
X357631Y385192D01*
X359967Y385192D01*
X366142Y379017D01*
X366142Y376681D01*
X357631Y376681D01*
G37*
%LPD*%
%LPC*%
G36*
X345058Y376681D02*
X345058Y376681D01*
X345058Y379017D01*
X351233Y385192D01*
X353569Y385192D01*
X353569Y376681D01*
X345058Y376681D01*
G37*
%LPD*%
%LPC*%
G36*
X357631Y364108D02*
X357631Y364108D01*
X357631Y372619D01*
X366142Y372619D01*
X366142Y370283D01*
X359967Y364108D01*
X357631Y364108D01*
G37*
%LPD*%
%LPC*%
G36*
X351233Y364108D02*
X351233Y364108D01*
X345058Y370283D01*
X345058Y372619D01*
X353569Y372619D01*
X353569Y364108D01*
X351233Y364108D01*
G37*
%LPD*%
%LPC*%
G36*
X243331Y414781D02*
X243331Y414781D01*
X243331Y423101D01*
X243769Y423032D01*
X245347Y422519D01*
X246825Y421766D01*
X248167Y420791D01*
X249341Y419617D01*
X250316Y418275D01*
X251069Y416797D01*
X251582Y415219D01*
X251651Y414781D01*
X243331Y414781D01*
G37*
%LPD*%
%LPC*%
G36*
X243331Y410719D02*
X243331Y410719D01*
X251651Y410719D01*
X251582Y410281D01*
X251069Y408703D01*
X250316Y407225D01*
X249341Y405883D01*
X248167Y404709D01*
X246825Y403734D01*
X245347Y402981D01*
X243769Y402468D01*
X243331Y402399D01*
X243331Y410719D01*
G37*
%LPD*%
%LPC*%
G36*
X230949Y414781D02*
X230949Y414781D01*
X231018Y415219D01*
X231531Y416797D01*
X232284Y418275D01*
X233259Y419617D01*
X234433Y420791D01*
X235775Y421766D01*
X237253Y422519D01*
X238831Y423032D01*
X239269Y423101D01*
X239269Y414781D01*
X230949Y414781D01*
G37*
%LPD*%
%LPC*%
G36*
X238831Y402468D02*
X238831Y402468D01*
X237253Y402981D01*
X235775Y403734D01*
X234433Y404709D01*
X233259Y405883D01*
X232284Y407225D01*
X231531Y408703D01*
X231018Y410281D01*
X230949Y410719D01*
X239269Y410719D01*
X239269Y402399D01*
X238831Y402468D01*
G37*
%LPD*%
%LPC*%
G36*
X59899Y935799D02*
X59899Y935799D01*
X59899Y943973D01*
X61674Y943973D01*
X68073Y937574D01*
X68073Y935799D01*
X59899Y935799D01*
G37*
%LPD*%
%LPC*%
G36*
X59899Y503999D02*
X59899Y503999D01*
X59899Y512173D01*
X61674Y512173D01*
X68073Y505774D01*
X68073Y503999D01*
X59899Y503999D01*
G37*
%LPD*%
%LPC*%
G36*
X46227Y935799D02*
X46227Y935799D01*
X46227Y937574D01*
X52626Y943973D01*
X54401Y943973D01*
X54401Y935799D01*
X46227Y935799D01*
G37*
%LPD*%
%LPC*%
G36*
X46227Y503999D02*
X46227Y503999D01*
X46227Y505774D01*
X52626Y512173D01*
X54401Y512173D01*
X54401Y503999D01*
X46227Y503999D01*
G37*
%LPD*%
%LPC*%
G36*
X59899Y490327D02*
X59899Y490327D01*
X59899Y498501D01*
X68073Y498501D01*
X68073Y496726D01*
X61674Y490327D01*
X59899Y490327D01*
G37*
%LPD*%
%LPC*%
G36*
X59899Y922127D02*
X59899Y922127D01*
X59899Y930301D01*
X68073Y930301D01*
X68073Y928526D01*
X61674Y922127D01*
X59899Y922127D01*
G37*
%LPD*%
%LPC*%
G36*
X52626Y490327D02*
X52626Y490327D01*
X46227Y496726D01*
X46227Y498501D01*
X54401Y498501D01*
X54401Y490327D01*
X52626Y490327D01*
G37*
%LPD*%
%LPC*%
G36*
X52626Y922127D02*
X52626Y922127D01*
X46227Y928526D01*
X46227Y930301D01*
X54401Y930301D01*
X54401Y922127D01*
X52626Y922127D01*
G37*
%LPD*%
%LPC*%
G36*
X357885Y211835D02*
X357885Y211835D01*
X357885Y219203D01*
X359598Y219203D01*
X365253Y213548D01*
X365253Y211835D01*
X357885Y211835D01*
G37*
%LPD*%
%LPC*%
G36*
X357885Y262635D02*
X357885Y262635D01*
X357885Y270003D01*
X359598Y270003D01*
X365253Y264348D01*
X365253Y262635D01*
X357885Y262635D01*
G37*
%LPD*%
%LPC*%
G36*
X332485Y211835D02*
X332485Y211835D01*
X332485Y219203D01*
X334198Y219203D01*
X339853Y213548D01*
X339853Y211835D01*
X332485Y211835D01*
G37*
%LPD*%
%LPC*%
G36*
X357885Y237235D02*
X357885Y237235D01*
X357885Y244603D01*
X359598Y244603D01*
X365253Y238948D01*
X365253Y237235D01*
X357885Y237235D01*
G37*
%LPD*%
%LPC*%
G36*
X332485Y262635D02*
X332485Y262635D01*
X332485Y270003D01*
X334198Y270003D01*
X339853Y264348D01*
X339853Y262635D01*
X332485Y262635D01*
G37*
%LPD*%
%LPC*%
G36*
X332485Y237235D02*
X332485Y237235D01*
X332485Y244603D01*
X334198Y244603D01*
X339853Y238948D01*
X339853Y237235D01*
X332485Y237235D01*
G37*
%LPD*%
%LPC*%
G36*
X345947Y262635D02*
X345947Y262635D01*
X345947Y264348D01*
X351602Y270003D01*
X353315Y270003D01*
X353315Y262635D01*
X345947Y262635D01*
G37*
%LPD*%
%LPC*%
G36*
X332485Y199897D02*
X332485Y199897D01*
X332485Y207265D01*
X339853Y207265D01*
X339853Y205552D01*
X334198Y199897D01*
X332485Y199897D01*
G37*
%LPD*%
%LPC*%
G36*
X320547Y211835D02*
X320547Y211835D01*
X320547Y213548D01*
X326202Y219203D01*
X327915Y219203D01*
X327915Y211835D01*
X320547Y211835D01*
G37*
%LPD*%
%LPC*%
G36*
X357885Y250697D02*
X357885Y250697D01*
X357885Y258065D01*
X365253Y258065D01*
X365253Y256352D01*
X359598Y250697D01*
X357885Y250697D01*
G37*
%LPD*%
%LPC*%
G36*
X345947Y211835D02*
X345947Y211835D01*
X345947Y213548D01*
X351602Y219203D01*
X353315Y219203D01*
X353315Y211835D01*
X345947Y211835D01*
G37*
%LPD*%
%LPC*%
G36*
X332485Y250697D02*
X332485Y250697D01*
X332485Y258065D01*
X339853Y258065D01*
X339853Y256352D01*
X334198Y250697D01*
X332485Y250697D01*
G37*
%LPD*%
%LPC*%
G36*
X320547Y237235D02*
X320547Y237235D01*
X320547Y238948D01*
X326202Y244603D01*
X327915Y244603D01*
X327915Y237235D01*
X320547Y237235D01*
G37*
%LPD*%
%LPC*%
G36*
X357885Y199897D02*
X357885Y199897D01*
X357885Y207265D01*
X365253Y207265D01*
X365253Y205552D01*
X359598Y199897D01*
X357885Y199897D01*
G37*
%LPD*%
%LPC*%
G36*
X320547Y262635D02*
X320547Y262635D01*
X320547Y264348D01*
X326202Y270003D01*
X327915Y270003D01*
X327915Y262635D01*
X320547Y262635D01*
G37*
%LPD*%
%LPC*%
G36*
X345947Y237235D02*
X345947Y237235D01*
X345947Y238948D01*
X351602Y244603D01*
X353315Y244603D01*
X353315Y237235D01*
X345947Y237235D01*
G37*
%LPD*%
%LPC*%
G36*
X332485Y225297D02*
X332485Y225297D01*
X332485Y232665D01*
X339853Y232665D01*
X339853Y230952D01*
X334198Y225297D01*
X332485Y225297D01*
G37*
%LPD*%
%LPC*%
G36*
X357885Y225297D02*
X357885Y225297D01*
X357885Y232665D01*
X365253Y232665D01*
X365253Y230952D01*
X359598Y225297D01*
X357885Y225297D01*
G37*
%LPD*%
%LPC*%
G36*
X351602Y225297D02*
X351602Y225297D01*
X345947Y230952D01*
X345947Y232665D01*
X353315Y232665D01*
X353315Y225297D01*
X351602Y225297D01*
G37*
%LPD*%
%LPC*%
G36*
X326202Y199897D02*
X326202Y199897D01*
X320547Y205552D01*
X320547Y207265D01*
X327915Y207265D01*
X327915Y199897D01*
X326202Y199897D01*
G37*
%LPD*%
%LPC*%
G36*
X351602Y199897D02*
X351602Y199897D01*
X345947Y205552D01*
X345947Y207265D01*
X353315Y207265D01*
X353315Y199897D01*
X351602Y199897D01*
G37*
%LPD*%
%LPC*%
G36*
X326202Y250697D02*
X326202Y250697D01*
X320547Y256352D01*
X320547Y258065D01*
X327915Y258065D01*
X327915Y250697D01*
X326202Y250697D01*
G37*
%LPD*%
%LPC*%
G36*
X326202Y225297D02*
X326202Y225297D01*
X320547Y230952D01*
X320547Y232665D01*
X327915Y232665D01*
X327915Y225297D01*
X326202Y225297D01*
G37*
%LPD*%
%LPC*%
G36*
X351602Y250697D02*
X351602Y250697D01*
X345947Y256352D01*
X345947Y258065D01*
X353315Y258065D01*
X353315Y250697D01*
X351602Y250697D01*
G37*
%LPD*%
%LPC*%
G36*
X383031Y643381D02*
X383031Y643381D01*
X383031Y650495D01*
X384788Y650495D01*
X390145Y645138D01*
X390145Y643381D01*
X383031Y643381D01*
G37*
%LPD*%
%LPC*%
G36*
X179831Y643381D02*
X179831Y643381D01*
X179831Y650495D01*
X181588Y650495D01*
X186945Y645138D01*
X186945Y643381D01*
X179831Y643381D01*
G37*
%LPD*%
%LPC*%
G36*
X371855Y643381D02*
X371855Y643381D01*
X371855Y645138D01*
X377212Y650495D01*
X378969Y650495D01*
X378969Y643381D01*
X371855Y643381D01*
G37*
%LPD*%
%LPC*%
G36*
X168655Y643381D02*
X168655Y643381D01*
X168655Y645138D01*
X174012Y650495D01*
X175769Y650495D01*
X175769Y643381D01*
X168655Y643381D01*
G37*
%LPD*%
%LPC*%
G36*
X179831Y632205D02*
X179831Y632205D01*
X179831Y639319D01*
X186945Y639319D01*
X186945Y637562D01*
X181588Y632205D01*
X179831Y632205D01*
G37*
%LPD*%
%LPC*%
G36*
X383031Y632205D02*
X383031Y632205D01*
X383031Y639319D01*
X390145Y639319D01*
X390145Y637562D01*
X384788Y632205D01*
X383031Y632205D01*
G37*
%LPD*%
%LPC*%
G36*
X377212Y632205D02*
X377212Y632205D01*
X371855Y637562D01*
X371855Y639319D01*
X378969Y639319D01*
X378969Y632205D01*
X377212Y632205D01*
G37*
%LPD*%
%LPC*%
G36*
X174012Y632205D02*
X174012Y632205D01*
X168655Y637562D01*
X168655Y639319D01*
X175769Y639319D01*
X175769Y632205D01*
X174012Y632205D01*
G37*
%LPD*%
D10*
X355600Y590550D03*
X355600Y565150D03*
D11*
X355600Y692150D03*
X355600Y717550D03*
X203200Y692150D03*
X203200Y717550D03*
D12*
X88900Y577850D03*
D13*
X88900Y603250D03*
D14*
X165100Y565150D03*
D13*
X190500Y565150D03*
D15*
X310896Y565150D02*
X324104Y565150D01*
X324104Y590550D02*
X310896Y590550D01*
X310896Y717550D02*
X324104Y717550D01*
X247904Y717550D02*
X234696Y717550D01*
X310896Y615950D02*
X324104Y615950D01*
X324104Y641350D02*
X310896Y641350D01*
X310896Y692150D02*
X324104Y692150D01*
X324104Y666750D02*
X310896Y666750D01*
X247904Y692150D02*
X234696Y692150D01*
X234696Y666750D02*
X247904Y666750D01*
X247904Y641350D02*
X234696Y641350D01*
X234696Y615950D02*
X247904Y615950D01*
X247904Y590550D02*
X234696Y590550D01*
X234696Y565150D02*
X247904Y565150D01*
D16*
X431800Y501650D03*
X355600Y501650D03*
X190500Y768350D03*
X114300Y768350D03*
X177800Y692150D03*
X101600Y692150D03*
X177800Y717550D03*
X101600Y717550D03*
D17*
X241300Y762000D03*
X317500Y762000D03*
D18*
X57150Y451250D03*
D19*
X57150Y476250D03*
X57150Y501250D03*
D18*
X57150Y883050D03*
D19*
X57150Y908050D03*
X57150Y933050D03*
D18*
X57150Y667150D03*
D19*
X57150Y692150D03*
X57150Y717150D03*
D17*
X114300Y742950D03*
X190500Y742950D03*
X355600Y527050D03*
X431800Y527050D03*
X381000Y590550D03*
X457200Y590550D03*
X381000Y565150D03*
X457200Y565150D03*
D16*
X431800Y781050D03*
X355600Y781050D03*
D17*
X355600Y755650D03*
X431800Y755650D03*
X381000Y692150D03*
X457200Y692150D03*
X381000Y717550D03*
X457200Y717550D03*
X114300Y793750D03*
X190500Y793750D03*
D15*
X361696Y425450D02*
X374904Y425450D01*
X374904Y476250D02*
X361696Y476250D01*
X361696Y450850D02*
X374904Y450850D01*
X412496Y425450D02*
X425704Y425450D01*
X425704Y476250D02*
X412496Y476250D01*
X412496Y450850D02*
X425704Y450850D01*
X374904Y806450D02*
X361696Y806450D01*
X361696Y857250D02*
X374904Y857250D01*
X374904Y831850D02*
X361696Y831850D01*
X412496Y806450D02*
X425704Y806450D01*
X425704Y857250D02*
X412496Y857250D01*
X412496Y831850D02*
X425704Y831850D01*
X184404Y869950D02*
X171196Y869950D01*
X171196Y819150D02*
X184404Y819150D01*
X184404Y844550D02*
X171196Y844550D01*
X133604Y869950D02*
X120396Y869950D01*
X120396Y819150D02*
X133604Y819150D01*
X133604Y844550D02*
X120396Y844550D01*
D20*
X266700Y412750D03*
D13*
X241300Y412750D03*
D20*
X355600Y374650D03*
D13*
X330200Y374650D03*
D21*
X330200Y285750D03*
X355600Y285750D03*
X330200Y260350D03*
X355600Y260350D03*
X330200Y234950D03*
X355600Y234950D03*
X330200Y209550D03*
X355600Y209550D03*
X330200Y184150D03*
X355600Y184150D03*
D22*
X70000Y59690D02*
X70000Y29210D01*
X17000Y29210D02*
X17000Y59690D01*
X128000Y59690D02*
X128000Y29210D01*
X70000Y219710D02*
X70000Y250190D01*
X17000Y250190D02*
X17000Y219710D01*
X128000Y219710D02*
X128000Y250190D01*
D17*
X177800Y641350D03*
X203200Y641350D03*
D16*
X381000Y641350D03*
X355600Y641350D03*
D23*
X368300Y450850D02*
X419100Y450850D01*
X114300Y450850D02*
X88900Y476250D01*
X114300Y450850D02*
X368300Y450850D01*
X88900Y476250D02*
X57150Y476250D01*
X419100Y476250D02*
X419100Y488950D01*
X431800Y501650D01*
X431800Y527050D02*
X419100Y527050D01*
X368300Y476250D01*
D24*
X355600Y641350D02*
X317500Y641350D01*
X292100Y641350D01*
X292100Y501650D01*
X292100Y641350D02*
X292100Y793750D01*
X342900Y793750D01*
X355600Y781050D01*
X292100Y793750D02*
X190500Y793750D01*
D25*
X292100Y501650D03*
D23*
X317500Y590550D02*
X355600Y590550D01*
X381000Y590550D01*
X431800Y565150D02*
X457200Y565150D01*
X431800Y565150D02*
X406400Y590550D01*
X381000Y590550D01*
X355600Y565150D02*
X317500Y565150D01*
X355600Y565150D02*
X381000Y565150D01*
X368300Y831850D02*
X419100Y831850D01*
X419100Y806450D02*
X368300Y806450D01*
X406400Y692150D02*
X457200Y692150D01*
D25*
X406400Y692150D03*
D23*
X419100Y857250D02*
X444500Y857250D01*
X457200Y844550D01*
X457200Y806450D01*
X431800Y781050D01*
X431800Y755650D02*
X393700Y755650D01*
D25*
X393700Y755650D03*
D23*
X355600Y692150D02*
X317500Y692150D01*
X355600Y692150D02*
X381000Y692150D01*
X406400Y717550D01*
X457200Y717550D01*
X355600Y717550D02*
X317500Y717550D01*
X317500Y762000D01*
X355600Y717550D02*
X381000Y717550D01*
X177800Y844550D02*
X127000Y844550D01*
X127000Y819150D02*
X127000Y806450D01*
X114300Y793750D01*
X165100Y819150D02*
X177800Y819150D01*
X165100Y819150D02*
X114300Y768350D01*
X203200Y692150D02*
X241300Y692150D01*
X203200Y692150D02*
X177800Y692150D01*
X152400Y692150D01*
X127000Y717550D01*
X101600Y717550D01*
X177800Y717550D02*
X203200Y717550D01*
X190500Y717550D02*
X190500Y742950D01*
X190500Y717550D02*
X203200Y717550D01*
X241300Y717550D01*
X114300Y742950D02*
X95250Y742950D01*
X82550Y730250D01*
X82550Y673100D01*
X76200Y666750D01*
X57550Y666750D01*
X57150Y667150D01*
X241300Y590550D02*
X241300Y565150D01*
X190500Y565150D01*
M02*
